<?xml version="1.0" encoding="UTF-8" standalone="no"?>
<!-- Created with Inkscape (http://www.inkscape.org/) -->

<svg
   xmlns:osb="http://www.openswatchbook.org/uri/2009/osb"
   xmlns:dc="http://purl.org/dc/elements/1.1/"
   xmlns:cc="http://creativecommons.org/ns#"
   xmlns:rdf="http://www.w3.org/1999/02/22-rdf-syntax-ns#"
   xmlns:svg="http://www.w3.org/2000/svg"
   xmlns="http://www.w3.org/2000/svg"
   xmlns:sodipodi="http://sodipodi.sourceforge.net/DTD/sodipodi-0.dtd"
   xmlns:inkscape="http://www.inkscape.org/namespaces/inkscape"
   width="360mm"
   height="360mm"
   viewBox="0 0 360 360"
   version="1.1"
   id="svg8"
   inkscape:version="0.92.4 (5da689c313, 2019-01-14)"
   sodipodi:docname="Final orion .svg">
  <defs
     id="defs2">
    <linearGradient
       id="linearGradient2281"
       osb:paint="solid">
      <stop
         style="stop-color:#000000;stop-opacity:1;"
         offset="0"
         id="stop2279" />
    </linearGradient>
    <clipPath
       clipPathUnits="userSpaceOnUse"
       id="clipPath3750">
      <rect
         style="opacity:1;fill:#e6e6e6;stroke-width:0.26458332"
         id="rect3752"
         width="160"
         height="160"
         x="-85.800598"
         y="77.622612" />
    </clipPath>
    <clipPath
       clipPathUnits="userSpaceOnUse"
       id="clipPath3788">
      <rect
         style="opacity:1;fill:#e6e6e6;stroke-width:0.26458332"
         id="rect3790"
         width="256.84698"
         height="256.84698"
         x="-257.32581"
         y="43.302383" />
    </clipPath>
  </defs>
  <sodipodi:namedview
     id="base"
     pagecolor="#ffffff"
     bordercolor="#666666"
     borderopacity="1.0"
     inkscape:pageopacity="0"
     inkscape:pageshadow="2"
     inkscape:zoom="0.35"
     inkscape:cx="180.12942"
     inkscape:cy="752.42706"
     inkscape:document-units="mm"
     inkscape:current-layer="layer1"
     showgrid="false"
     inkscape:window-width="1366"
     inkscape:window-height="705"
     inkscape:window-x="-8"
     inkscape:window-y="-8"
     inkscape:window-maximized="1"
     inkscape:snap-intersection-paths="true" />
  <metadata
     id="metadata5">
    <rdf:RDF>
      <cc:Work
         rdf:about="">
        <dc:format>image/svg+xml</dc:format>
        <dc:type
           rdf:resource="http://purl.org/dc/dcmitype/StillImage" />
        <dc:title />
      </cc:Work>
    </rdf:RDF>
  </metadata>
  <g
     inkscape:label="Layer 1"
     inkscape:groupmode="layer"
     id="layer1"
     transform="translate(0,63)">
    <rect
       style="opacity:1;fill:#e6e6e6;stroke-width:0.26458332"
       id="rect3776"
       width="1.493828e-05"
       height="8.1527342e-06"
       x="1.3607178"
       y="296.58685" />
    <rect
       style="opacity:1;fill:#e6e6e6;stroke-width:0.26458332"
       id="rect3778"
       width="1.4901161e-05"
       height="3.0517578e-05"
       x="1.3607104"
       y="296.58685" />
    <path
       style="opacity:1;fill:#666666;stroke-width:0.46856576"
       d="m 185.13836,16.653707 -5.60797,0.333762 c -6.37161,0.379363 -15.41617,1.473119 -16.27712,1.968296 -0.3169,0.182265 -2.801,1.961198 -5.51989,3.953249 -8.33018,6.103325 -23.88497,15.907166 -25.23839,15.907166 -0.21717,-1e-6 -0.86973,-1.269536 -1.45003,-2.821278 -0.58032,-1.551743 -1.25524,-2.945144 -1.50001,-3.096423 -0.51176,-0.316283 -6.20377,3.489413 -8.85077,5.917701 l -1.78764,1.639981 2.58681,7.731287 c 8.48355,25.353305 12.34926,54.558592 10.44687,78.926922 -0.28281,3.62254 -0.56652,6.64205 -0.63069,6.70983 -0.19326,0.20414 -6.55225,-2.26673 -7.02758,-2.73063 -0.2568,-0.25065 -0.46762,-7.33263 -0.5048,-16.95137 -0.0675,-17.486347 -0.39091,-21.565663 -2.85043,-35.966498 -1.66227,-9.732901 -5.60535,-25.69363 -7.72455,-31.267566 -0.44491,-1.170167 -0.46537,-1.174452 -1.42795,-0.305255 -0.5371,0.485006 -2.74853,2.915457 -4.91417,5.401045 l -3.93723,4.519234 1.82544,7.429237 c 2.02495,8.240625 3.90022,18.211541 4.96639,26.405922 1.14836,8.826221 1.84262,24.369071 1.37091,30.691331 l -0.41928,5.6227 -1.31679,-0.0923 c -0.72416,-0.0507 -2.46385,-0.42524 -3.8658,-0.83279 l -2.54902,-0.7412 -0.0122,-5.25819 c -0.0429,-18.3406 -1.54307,-33.979327 -4.741859,-49.435144 l -0.996799,-4.817121 -1.156635,1.702119 c -1.332072,1.960319 -4.441946,8.552867 -6.64192,14.079806 l -1.514418,3.804626 0.728702,6.287338 c 0.70287,6.062776 1.91176,30.311296 1.530115,30.692936 -0.102718,0.10271 -1.708142,-0.0491 -3.567278,-0.33761 -1.859137,-0.28848 -3.494389,-0.41049 -3.633901,-0.27098 -0.257212,0.25721 0.664346,10.67602 1.067268,12.06634 0.159606,0.55074 1.650253,1.03851 5.479199,1.79277 22.069366,4.34746 44.360086,12.3324 62.259666,22.30277 6.34466,3.53408 19.64601,12.06231 19.49463,12.49908 -0.065,0.18761 -1.47361,1.46953 -3.13038,2.8485 l -3.01251,2.50707 -5.65665,-3.61534 c -16.93369,-10.82312 -36.94372,-19.74679 -57.17893,-25.49944 -11.903859,-3.38413 -15.594813,-4.26367 -16.036888,-3.8216 -0.33931,0.33931 0.551469,3.42068 2.755294,9.5327 1.608418,4.46074 0.390467,3.75972 13.262704,7.63359 15.04812,4.52871 32.42892,12.1992 45.68529,20.16182 3.4791,2.08979 6.53,4.00154 6.77997,4.24826 0.29192,0.28809 -0.57234,1.47563 -2.41609,3.31937 l -2.87092,2.8706 -6.72072,-3.85844 c -8.34312,-4.78986 -21.79369,-11.38277 -29.14647,-14.28639 -7.88241,-3.11276 -17.050308,-6.16344 -17.417749,-5.796 -0.171561,0.17157 0.243967,1.32767 0.923451,2.5692 1.666547,3.04505 9.370498,13.29961 10.763008,14.32644 0.61425,0.45295 4.21121,2.18415 7.99298,3.84723 10.24263,4.50434 24.14678,12.18022 24.14678,13.33028 0,0.21166 -0.84327,1.44428 -1.87412,2.73897 -1.03084,1.29468 -1.87444,2.45006 -1.87444,2.56758 0,0.36384 9.19705,4.56065 10.61182,4.84244 1.23896,0.24675 1.8777,-0.3176 8.72809,-7.71016 13.87087,-14.96869 26.9766,-25.9331 43.42424,-36.32909 9.49612,-6.00216 22.89915,-12.85589 23.91392,-12.22874 0.21488,0.13282 0.65289,1.70876 0.97341,3.50226 0.47582,2.6624 0.46969,3.39695 -0.0326,4.00225 -0.3384,0.40777 -3.26976,2.09169 -6.51443,3.74185 -11.48444,5.84074 -22.97815,13.43505 -35.3105,23.33128 -7.97503,6.39964 -26.38017,24.1527 -25.72207,24.81078 0.23694,0.23695 3.45293,1.04156 7.14673,1.78796 l 6.71623,1.35714 4.00098,-3.8661 c 12.17625,-11.76575 24.86694,-21.68002 38.20673,-29.84765 6.63724,-4.06383 14.76225,-8.33885 15.02888,-7.90746 0.35886,0.58067 2.07335,6.58063 2.07335,7.25596 0,0.28706 -1.31788,1.22296 -2.92858,2.07976 -13.58126,7.22447 -31.21626,19.69265 -42.99085,30.39505 l -2.57721,2.34241 4.54454,0.0202 c 5.31965,0.0238 14.81721,-1.1295 16.9376,-2.0567 2.44609,-1.06961 9.97257,-6.82373 8.9475,-6.8405 -0.89516,-0.0147 -0.8948,-0.0265 0.0138,-0.71334 0.50803,-0.38404 1.18666,-0.59738 1.50802,-0.47404 0.32133,0.12331 3.23991,-1.47307 6.48592,-3.54775 7.00553,-4.47758 13.62449,-8.07007 14.20633,-7.71047 0.22934,0.14174 0.89572,1.53847 1.48112,3.10379 0.76855,2.05512 1.25345,2.7736 1.74438,2.58521 0.79595,-0.30542 6.79244,-4.47095 8.70599,-6.04775 l 1.31872,-1.08679 -2.56985,-8.15827 c -6.29693,-19.98898 -9.10482,-34.41243 -10.12366,-52.00275 -0.74825,-12.91866 -0.40562,-32.06925 0.59161,-33.06417 0.20649,-0.20601 1.89337,0.14587 3.74857,0.78187 l 3.37317,1.15631 0.287,17.80564 c 0.27475,17.03503 0.47312,19.98494 2.09385,31.15962 1.47491,10.16927 4.43637,23.15405 7.46703,32.73971 l 1.24024,3.92314 1.87734,-1.81456 c 1.0325,-0.99799 3.26109,-3.46513 4.95227,-5.48239 l 3.07497,-3.66753 -1.92409,-7.81232 c -4.19316,-17.02603 -5.67823,-28.69978 -6.00099,-47.17154 -0.15137,-8.66306 -0.0728,-14.30646 0.20501,-14.70729 0.38058,-0.54912 1.02398,-0.50907 4.13167,0.25689 l 3.68097,0.90711 0.30301,13.80017 c 0.34105,15.52703 0.75452,20.30133 2.74024,31.64809 2.10514,12.02911 2.47609,13.78033 2.91769,13.78033 0.56254,0 7.02826,-13.30424 8.06025,-16.58526 0.80071,-2.54563 0.8039,-3.0736 0.0707,-10.9427 -0.42366,-4.54745 -0.90032,-12.60234 -1.05926,-17.8995 -0.33785,-11.26059 -0.3971,-11.09031 3.59707,-10.33283 3.83035,0.72641 3.69072,0.82636 3.44492,-2.45901 -0.32075,-4.28695 -1.09283,-9.43686 -1.4715,-9.81553 -0.18106,-0.18106 -3.87874,-1.07143 -8.21719,-1.978872 C 253.2934,94.403199 233.1199,87.096918 215.92032,77.801226 205.5558,72.199611 195.24215,65.348566 195.24215,64.065113 c 0,-0.507058 1.75552,-2.238282 4.09002,-4.033327 l 1.51282,-1.16336 3.48879,2.377651 c 10.58559,7.213794 28.27695,16.178893 41.5136,21.036909 12.68536,4.655673 33.26297,10.579583 34.04239,9.800161 0.15913,-0.15912 -0.74229,-3.300595 -2.0032,-6.981127 l -2.29245,-6.691887 -2.57368,-0.777708 c -1.41543,-0.427669 -5.20914,-1.561473 -8.43051,-2.519549 -11.70285,-3.480548 -21.28506,-7.323092 -33.72082,-13.522467 -6.71378,-3.3469 -19.434,-10.726512 -19.96195,-11.580759 -0.14908,-0.241225 0.97361,-1.726488 2.4952,-3.30078 l 2.76683,-2.862278 6.0535,3.613402 c 7.02597,4.194105 19.17455,10.327852 26.90464,13.583966 6.03613,2.542562 21.1461,7.855955 21.45685,7.545192 0.24993,-0.249923 -5.42164,-8.948324 -8.10862,-12.435983 -3.06518,-3.978555 -4.44813,-5.175017 -7.49105,-6.481124 -8.45997,-3.631256 -28.73165,-14.266181 -29.46968,-15.460336 -0.12972,-0.209882 0.7022,-1.524743 1.8485,-2.922176 1.14631,-1.397431 2.08425,-2.67015 2.08425,-2.828004 0,-0.337911 -10.77746,-5.126086 -11.51381,-5.115327 -0.2764,0.0041 -2.02757,1.783673 -3.89143,3.954849 -4.23247,4.930335 -17.56481,17.989774 -24.04237,23.55037 -12.09443,10.382343 -25.03085,19.025112 -38.79674,25.920015 -2.70248,1.35359 -5.69687,2.737766 -6.65441,3.075602 -1.99721,0.704661 -1.87403,0.876403 -2.69924,-3.760744 -0.38702,-2.174835 -0.36449,-2.924755 0.10121,-3.390467 0.32889,-0.328872 3.35536,-2.053596 6.72553,-3.832493 12.60759,-6.654733 21.64336,-12.609318 33.42484,-22.026981 12.14224,-9.70603 28.45883,-25.579378 27.08434,-26.348586 -0.3756,-0.210194 -3.53877,-0.962746 -7.02918,-1.672331 l -6.34627,-1.290203 -4.03653,3.734158 c -15.02351,13.897877 -20.19419,18.082522 -32.37653,26.200947 -9.00712,6.002438 -20.24935,12.305527 -20.83638,11.682294 -0.21371,-0.226874 -0.81133,-1.926804 -1.328,-3.777718 -1.11502,-3.994373 -1.45709,-3.509641 5.04838,-7.155373 9.51843,-5.334222 19.86627,-12.265396 28.59588,-19.154135 4.41279,-3.482248 6.06236,-4.898468 11.4648,-9.842443 z m 22.34184,18.882514 c 0.25771,0 0.33833,0.2109 0.17906,0.468611 -0.15928,0.257711 -0.50047,0.468611 -0.75818,0.468611 -0.25771,0 -0.33833,-0.2109 -0.17905,-0.468611 0.15927,-0.257711 0.50045,-0.468613 0.75817,-0.468611 z m -22.28451,7.497142 c 0.11364,0 0.2066,0.2109 0.2066,0.468611 0,0.257711 -0.22324,0.468611 -0.49616,0.468611 -0.27292,0 -0.36587,-0.2109 -0.2066,-0.468611 0.15927,-0.257711 0.38251,-0.468611 0.49616,-0.468611 z m -7.55192,5.78061 c 0.0748,-0.0074 0.16505,0.01683 0.2617,0.07655 0.2577,0.159273 0.46828,0.382511 0.46828,0.496158 0,0.113645 -0.21058,0.206599 -0.46828,0.206599 -0.25771,0 -0.46862,-0.223237 -0.46862,-0.496157 0,-0.170576 0.0823,-0.270811 0.20692,-0.283152 z m 6.3498,23.981185 c 0.038,0.0034 0.069,0.01183 0.0932,0.02594 0.33694,0.196235 3.24851,2.193985 6.46991,4.439479 7.64525,5.329176 16.04615,10.342346 23.89662,14.259498 3.47911,1.735966 6.65031,3.442018 7.0468,3.791493 0.64335,0.567073 0.64912,1.204498 0.0544,5.924112 -0.74169,5.88656 -1.01559,29.64964 -0.40999,35.56643 l 0.36516,3.56984 -4.11373,1.7617 c -8.73413,3.74055 -17.21518,8.34732 -28.59107,15.53016 -3.41168,2.15417 -6.46893,3.90782 -6.79406,3.89687 -0.32513,-0.011 -3.12146,-1.82448 -6.21398,-4.0298 -6.85989,-4.89187 -14.42483,-9.42733 -24.50777,-14.6932 -7.55436,-3.94528 -7.62403,-3.99578 -7.39305,-5.38824 0.80458,-4.85054 1.30809,-18.36265 1.11691,-29.97639 l -0.21781,-13.225869 7.7694,-3.791492 c 9.38515,-4.579803 18.50604,-9.730584 25.62437,-14.471222 3.13706,-2.089205 5.23506,-3.239764 5.80464,-3.189313 z m 44.77882,111.276492 c 0.11364,0 0.2066,0.21088 0.2066,0.46861 0,0.2577 -0.22324,0.46862 -0.49616,0.46862 -0.27292,0 -0.36587,-0.21092 -0.2066,-0.46862 0.15928,-0.25773 0.38252,-0.46861 0.49616,-0.46861 z m 24.28772,1.87413 c 0.10129,0 0.30553,0.31652 0.45388,0.70307 0.14834,0.38658 0.0655,0.70276 -0.18418,0.70276 -0.24962,0 -0.45389,-0.31618 -0.45389,-0.70276 0,-0.38655 0.0829,-0.70307 0.18419,-0.70307 z m -95.77163,26.70829 c 0.25771,0 0.46861,0.2109 0.46861,0.46861 0,0.2577 -0.2109,0.46861 -0.46861,0.46861 -0.25771,0 -0.46862,-0.21091 -0.46862,-0.46861 0,-0.25771 0.21091,-0.46861 0.46862,-0.46861 z"
       id="path3798"
       inkscape:connector-curvature="0" />
  </g>
</svg>
