<?xml version="1.0" encoding="UTF-8" standalone="no"?>
<svg
   xmlns:dc="http://purl.org/dc/elements/1.1/"
   xmlns:cc="http://creativecommons.org/ns#"
   xmlns:rdf="http://www.w3.org/1999/02/22-rdf-syntax-ns#"
   xmlns:svg="http://www.w3.org/2000/svg"
   xmlns="http://www.w3.org/2000/svg"
   id="svg8"
   version="1.1"
   viewBox="0 0 360 360"
   height="360mm"
   width="360mm">
  <defs
     id="defs2">
    <clipPath
       id="clipPath3750"
       clipPathUnits="userSpaceOnUse">
      <rect
         y="77.622612"
         x="-85.800598"
         height="160"
         width="160"
         id="rect3752"
         style="opacity:1;fill:#e6e6e6;stroke-width:0.26458332" />
    </clipPath>
    <clipPath
       id="clipPath3788"
       clipPathUnits="userSpaceOnUse">
      <rect
         y="43.302383"
         x="-257.32581"
         height="256.84698"
         width="256.84698"
         id="rect3790"
         style="opacity:1;fill:#e6e6e6;stroke-width:0.26458332" />
    </clipPath>
  </defs>
  <metadata
     id="metadata5">
    <rdf:RDF>
      <cc:Work
         rdf:about="">
        <dc:format>image/svg+xml</dc:format>
        <dc:type
           rdf:resource="http://purl.org/dc/dcmitype/StillImage" />
        <dc:title></dc:title>
      </cc:Work>
    </rdf:RDF>
  </metadata>
  <g
     transform="translate(0,63)"
     id="layer1">
    <path
       transform="matrix(1.2780616,0,0,1.2780616,345.48149,-103.41786)"
       clip-path="url(#clipPath3788)"
       id="path3754"
       d="m -130.3912,299.3679 c 0.0155,-0.1735 1.48567,-1.52412 3.26712,-3.00137 1.78147,-1.47725 3.69168,-3.13138 4.24493,-3.67583 1.50579,-1.48185 7.10611,-6.19237 9.14346,-7.69071 0.98397,-0.72364 2.08275,-1.59373 2.44174,-1.93353 5.10701,-4.83408 28.496944,-20.14015 38.710434,-25.33161 2.97922,-1.51432 4.15531,-2.36076 3.99861,-2.87783 -0.1221,-0.40289 -0.68673,-2.38069 -1.25474,-4.39513 -1.45593,-5.16343 -1.41032,-5.06566 -2.10586,-4.5132 -0.33256,0.26414 -3.24173,1.86415 -6.46482,3.55558 -19.98074,10.48558 -41.422914,26.33393 -59.501514,43.97878 l -5.30145,5.17426 -2.51534,-0.41486 c -8.8064,-1.45245 -15.94489,-3.20936 -15.94489,-3.92432 0,-0.8693 19.17671,-19.63853 26.12657,-25.57142 18.91554,-16.14762 37.984524,-28.89614 56.037834,-37.46392 4.86286,-2.30783 4.72994,-1.99609 3.58694,-8.41251 -0.48675,-2.73245 -0.77198,-3.38987 -1.42137,-3.27611 -0.95041,0.1665 -8.49004,3.57375 -11.32207,5.11658 -1.07437,0.58529 -3.60156,1.94891 -5.616,3.03027 -7.017574,3.76709 -8.940154,4.93301 -17.749734,10.76402 -8.65154,5.7264 -17.39303,12.16062 -22.76456,16.75594 -1.46706,1.25508 -4.54365,3.8937 -6.83686,5.86361 -5.4386,4.67187 -19.60462,18.98207 -25.13272,25.3885 -2.95121,3.42012 -4.59854,4.96444 -5.12292,4.80259 -3.7844,-1.16812 -14.69082,-6.12959 -14.69082,-6.68305 0,-0.4079 1.61479,-2.52558 3.65686,-4.79575 0.80894,-0.89929 1.47079,-1.87569 1.47079,-2.16978 0,-0.77026 -10.83955,-7.01372 -20.54454,-11.83344 -4.58473,-2.27688 -8.47553,-4.13978 -8.64624,-4.13978 -0.1707,0 -1.69371,-0.63065 -3.38447,-1.40144 -1.69075,-0.77079 -4.063,-1.80036 -5.27166,-2.28793 -3.04027,-1.22642 -3.89787,-2.07586 -8.84773,-8.76348 -2.38558,-3.2231 -4.51908,-6.08476 -4.74111,-6.35925 -1.3971,-1.72723 -5.33489,-8.80684 -4.96957,-8.93462 0.52383,-0.1832 15.92176,4.94405 18.91935,6.29983 1.13859,0.51497 2.23737,0.93412 2.44174,0.93146 0.8747,-0.0114 13.22321,5.47804 21.58528,9.59562 7.59941,3.74203 12.91936,6.68305 24.06652,13.30463 l 1.32897,0.78944 3.43241,-3.40534 c 1.88783,-1.87293 3.43241,-3.52866 3.43241,-3.6794 0,-0.15073 -0.68618,-0.70602 -1.52486,-1.23396 -0.83867,-0.52795 -2.02927,-1.28953 -2.64578,-1.69242 -10.81071,-7.06476 -28.29962,-15.8963 -42.22234,-21.32141 -3.08879,-1.20358 -6.60489,-2.59054 -7.81355,-3.08214 -2.54237,-1.03405 -16.30357,-5.24125 -22.64384,-6.92288 -4.64467,-1.2319 -4.48238,-1.08446 -6.23633,-5.66587 -0.23136,-0.60433 -0.62556,-1.59323 -0.87599,-2.19756 -0.55107,-1.32982 -2.72381,-8.38528 -3.15814,-10.25529 -0.35379,-1.52324 0.10003,-1.65425 3.06847,-0.88585 0.97123,0.25142 3.52392,0.9021 5.67265,1.44598 3.90286,0.98786 14.64915,3.9476 18.80136,5.17825 21.89662,6.48981 51.54764,20.54425 69.26093,32.82934 l 3.0899,2.14301 2.03775,-1.6855 c 1.12076,-0.92702 2.8905,-2.43004 3.93276,-3.34003 l 1.895,-1.65453 -6.5343,-4.42033 c -17.14603,-11.59896 -34.51936,-20.28907 -57.32241,-28.67258 -9.91537,-3.64537 -29.06804,-8.7358 -40.53001,-10.77214 l -5.86297,-1.04162 -0.57559,-4.63416 c -0.31658,-2.54879 -0.72453,-6.41586 -0.90658,-8.59349 l -0.33098,-3.95934 2.37162,0.38914 c 1.30439,0.21402 3.45054,0.54533 4.76924,0.73624 l 2.39762,0.34711 -0.31363,-13.38071 c -0.30067,-12.82766 -0.54113,-16.24256 -1.96351,-27.88434 l -0.63838,-5.22502 1.87476,-5.03027 c 1.69439,-4.54633 6.98545,-15.90372 7.68984,-16.50643 0.15694,-0.1343 0.71595,-1.06483 1.24223,-2.06785 0.60707,-1.15698 1.0747,-1.6033 1.27917,-1.22087 0.64503,1.20646 3.47239,15.90061 4.57931,23.7993 1.87531,13.38183 2.28646,18.98045 2.55192,34.74955 l 0.27669,16.43652 2.25438,0.58109 c 1.23991,0.3196 3.23107,0.89054 4.4248,1.26877 1.26585,0.40108 2.35133,0.5068 2.60446,0.25366 0.23871,-0.23871 0.55853,-4.72943 0.71071,-9.97938 0.51668,-17.82439 -1.58013,-39.36023 -5.72371,-58.78701 -1.48739,-6.9735 -4.04895,-17.378684 -4.62,-18.766625 -0.17913,-0.435401 -0.0366,-1.094669 0.31683,-1.465042 0.3534,-0.370372 1.81687,-2.101817 3.25216,-3.847658 1.4353,-1.745841 4.06012,-4.678859 5.83293,-6.517818 l 3.2233,-3.343567 0.67347,1.878525 c 3.91225,10.912475 8.77658,31.554995 10.79961,45.829775 2.56299,18.08484 3.20016,28.35258 2.78802,44.92794 -0.17363,6.98336 -0.36638,13.34386 -0.42831,14.13445 -0.0995,1.2703 0.11448,1.51992 1.84077,2.14712 1.07436,0.39033 3.18951,1.19021 4.70032,1.77749 l 2.74694,1.06779 0.31892,-2.97074 c 3.05165,-28.42614 -0.33956,-62.72735 -9.34633,-94.53584 -1.18908,-4.1994 -5.82998,-18.16527 -6.66729,-20.063915 -0.25807,-0.585181 0.94554,-1.724393 4.9297,-4.665981 8.88171,-6.557546 8.4028,-6.280887 9.13627,-5.277812 0.3482,0.476202 1.11702,2.368352 1.70848,4.204781 0.59146,1.836425 1.23526,3.338957 1.43065,3.338957 0.70126,0 13.26156,-7.325462 18.94227,-11.047561 3.18781,-2.08871 7.88348,-5.34706 10.43483,-7.240773 5.06579,-3.760033 4.81105,-3.568689 7.4731,-5.613267 1.02115,-0.784286 2.44956,-1.545233 3.17426,-1.691 4.24157,-0.853147 13.51978,-1.834491 19.83474,-2.097895 l 7.28512,-0.30387 -3.13417,2.84117 c -1.7238,1.562643 -4.12307,3.750804 -5.33173,4.862585 -11.2099,10.311373 -32.09795,24.973382 -47.59931,33.411508 l -6.00171,3.267008 1.14331,3.89264 c 0.62882,2.140953 1.15184,4.277213 1.16228,4.747248 0.0105,0.470034 0.27539,0.854607 0.58879,0.854607 0.52374,0 5.01953,-2.318389 12.36535,-6.376574 9.39284,-5.189055 25.02513,-15.963322 34.2604,-23.613344 1.65008,-1.366844 4.06093,-3.364194 5.35743,-4.438558 3.40919,-2.825069 8.47776,-7.513861 14.41361,-13.333636 l 5.19069,-5.089188 3.59956,0.576806 c 1.97976,0.317245 4.3687,0.773035 5.30877,1.012867 0.94007,0.239832 3.522215,0.821224 5.738084,1.291986 2.21588,0.470761 4.02887,1.04159 4.02887,1.268516 0,0.574057 -19.995854,20.52234 -24.173194,24.115687 -20.34935,17.504521 -36.34708,28.456158 -55.81038,38.206378 -6.86548,3.43929 -6.88008,3.4502 -6.48063,4.843 0.2202,0.76777 0.55291,2.71038 0.73937,4.31693 0.18646,1.60654 0.50948,3.1968 0.71783,3.53391 0.46171,0.74708 9.03691,-3.23683 19.3243,-8.97778 6.20169,-3.4609 14.83771,-8.76245 16.14622,-9.91198 0.28551,-0.25082 0.98647,-0.70617 1.5577,-1.01188 1.10316,-0.5904 6.25696,-4.29584 12.60393,-9.061891 13.30663,-9.992184 38.410594,-34.367247 44.485804,-43.194152 0.18088,-0.262804 5.5036,1.923219 11.07682,4.549213 l 4.80485,2.263944 -1.33852,1.812285 c -0.73617,0.996761 -2.08793,2.604698 -3.00391,3.573197 l -1.6654,1.760907 2.35002,1.470687 c 8.94356,5.597045 22.69874,12.695063 32.87172,16.962637 6.98712,2.931098 7.28496,3.158722 11.52833,8.810735 1.2099,1.611546 2.46227,3.269328 2.78304,3.683959 0.60433,0.78117 3.73309,5.514629 6.81088,10.304109 0.97411,1.51585 1.67523,2.85196 1.55806,2.96913 -0.11718,0.11718 -2.57617,-0.59405 -5.46443,-1.5805 -12.09525,-4.13102 -14.60282,-5.0126 -15.99501,-5.62336 -0.80578,-0.3535 -2.6737,-1.11451 -4.15095,-1.69114 -7.31219,-2.85422 -21.19862,-9.509137 -29.05666,-13.92507 -5.42134,-3.046593 -8.09129,-4.628593 -10.96283,-6.495686 -1.73209,-1.126226 -3.27038,-2.044871 -3.41843,-2.041438 -0.14803,0.0034 -1.85991,1.600485 -3.80417,3.549005 l -3.53502,3.542753 7.39183,4.605988 c 10.37725,6.466259 19.41697,11.138798 34.45752,17.810708 8.47342,3.75876 25.2319,9.4256 35.66588,12.06031 l 4.51832,1.14094 1.4488498,3.79413 c 0.79686,2.08677 2.02269,5.716 2.72406,8.06495 0.70137,2.34895 1.47259,4.76526 1.71382,5.36959 0.61492,1.54044 0.2414,1.49446 -11.0536898,-1.36081 -14.66422,-3.70694 -29.28452,-8.43697 -28.75026,-9.30141 0.14837,-0.24007 -0.0633,-0.30868 -0.47039,-0.15247 -1.19041,0.45681 -16.43085,-5.74325 -27.39053,-11.14291 -8.56857,-4.2216 -24.36511,-13.25503 -27.347439,-15.63894 -1.201615,-0.9605 -4.920485,-3.285624 -5.267975,-3.293652 -0.21147,-0.0049 -2.01799,1.354292 -4.01447,3.020392 -4.23083,3.5307 -4.47365,2.82657 2.68975,7.79981 4.00246,2.77873 14.948974,9.6815 15.353074,9.6815 0.0763,0 1.76244,0.90327 3.74693,2.00726 7.55096,4.20073 16.58412,8.53581 25.09542,12.0435 17.32239,7.13892 36.99574,12.96658 53.9623598,15.98475 2.55161,0.45391 4.88649,0.89635 5.18862,0.98322 0.30212,0.0869 0.70813,1.3291 0.90224,2.76053 0.1941,1.43143 0.43016,3.04211 0.52457,3.5793 0.0944,0.53718 0.32026996,3.19256 0.50190996,5.90084 l 0.33025,4.92415 -3.60170996,-0.63173 c -6.4281798,-1.12748 -5.8015,-1.96744 -5.78481,7.7535 0.0181,10.5401 1.58478,32.13646 2.6727,36.84246 0.46615,2.01637 -6.1399498,17.34291 -10.6776098,24.77268 -0.9956,1.63016 -1.2117,1.77531 -1.45411,0.9767 -0.60556,-1.995 -3.26501,-16.2689 -4.7241,-25.35537 -1.42968,-8.90327 -2.14194,-20.24436 -2.16586,-34.48632 l -0.0251,-14.95244 -4.86327,-1.26461 c -2.6748,-0.69554 -4.96734,-1.16054 -5.09454,-1.03335 -0.48914,0.48914 -0.20024,29.11344 0.35705,35.37709 0.90098,10.1264 3.27092,26.62829 4.73409,32.96343 1.79327,7.76435 3.6724,15.37113 4.3329,17.53968 l 0.73128,2.40093 -1.53962,1.9942 c -2.19045,2.83719 -4.43354,5.40604 -8.07733,9.25038 l -3.17468,3.34941 -0.69402,-1.64019 c -0.78546,-1.85629 -4.55268,-15.07811 -5.71995,-20.07529 -0.42348,-1.81299 -1.08927,-4.66982 -1.47954,-6.34852 -2.21536,-9.52913 -4.46411,-24.35891 -5.68347,-37.48064 -0.60483,-6.50868 -0.84762,-26.53826 -0.44383,-36.61536 l 0.24417,-6.09365 -4.52373,-1.67268 c -2.48806,-0.91997 -4.62445,-1.57197 -4.74753,-1.44889 -0.70861,0.70862 -1.32222,18.35828 -1.07551,30.93599 0.53922,27.49006 4.80313,51.52587 14.00032,78.92023 l 2.72277,8.1099 -3.35311,2.63374 c -4.902,3.85033 -10.25058,7.32869 -10.62098,6.90718 -0.1772,-0.20166 -0.93201,-2.06977 -1.67735,-4.15135 -0.74534,-2.08158 -1.44291,-3.78469 -1.55016,-3.78469 -0.37026,0 -5.30093,2.56948 -8.7086,4.53824 -7.09378,4.09839 -14.26687,8.84942 -22.95232,15.20225 l -7.325204,5.35791 -4.88348,0.8757 c -2.68591,0.48163 -6.64152,0.99004 -8.79024,1.12978 -7.31673,0.47585 -14.40631,0.63109 -14.37814,0.31485 z m -28.84059,-5.44311 c 0,-0.26859 -0.0969,-0.48834 -0.21535,-0.48834 -0.11844,0 -0.35117,0.21975 -0.51717,0.48834 -0.166,0.26859 -0.0691,0.48835 0.21535,0.48835 0.28445,0 0.51717,-0.21976 0.51717,-0.48835 z m 69.407594,-7.16098 c 0.61307,-0.74319 0.56611,-0.75837 -0.55064,-0.17803 -1.63716,0.85078 -1.7604,0.9905 -0.87371,0.9905 0.41477,0 1.05572,-0.36561 1.42435,-0.81247 z m 51.27476,-26.6652 c -0.4823,-0.47871 -0.5384,-0.42262 -0.27338,0.27338 0.18339,0.48161 0.45645,0.75265 0.60681,0.60229 0.15036,-0.15036 3.1e-4,-0.5444 -0.33343,-0.87567 z m -30.5823,-2.31151 c 0.166,-0.26859 0.0691,-0.48835 -0.21535,-0.48835 -0.28444,0 -0.51717,0.21976 -0.51717,0.48835 0,0.26859 0.0969,0.48835 0.21535,0.48835 0.11845,0 0.35117,-0.21976 0.51717,-0.48835 z m -54.389984,-31.86465 c 14.71593,-9.73021 30.141234,-18.19861 40.378634,-22.16762 2.94185,-1.14054 4.46363,-1.97663 4.31286,-2.36954 -0.12814,-0.33392 -0.5129,-6.12277 -0.85503,-12.86411 -0.74173,-14.61502 -0.23067,-26.86691 1.72887,-41.44652 l 0.21059,-1.56685 -6.92495,-3.39871 c -12.4022,-6.08689 -26.468424,-14.59653 -37.068624,-22.42539 l -4.67294,-3.45123 -1.63724,1.23391 c -9.24687,6.96895 -28.65531,17.99891 -42.41422,24.1043 -2.93066,1.30045 -5.07096,2.53116 -4.99536,2.87239 0.54289,2.45014 1.12973,23.03778 0.87135,30.56918 -0.30362,8.85033 -1.50311,23.88937 -1.96499,24.6367 -0.11987,0.19396 3.01411,1.94622 6.96439,3.89393 7.82741,3.85935 16.76688,8.84587 24.03031,13.40433 4.93526,3.09733 6.16467,3.9529 12.69703,8.83614 2.28302,1.70666 4.27971,3.12288 4.43709,3.14714 0.15738,0.0243 2.36338,-1.32936 4.90223,-3.00805 z m -9.33932,-138.760445 c 0,-0.105561 -0.34105,-0.322797 -0.75789,-0.482755 -0.43459,-0.166766 -0.63061,-0.0849 -0.45952,0.191925 0.28679,0.464032 1.21741,0.686348 1.21741,0.29083 z m 8.69593,-7.878724 c -0.15035,-0.150358 -0.42342,0.120675 -0.60681,0.602293 -0.26501,0.695992 -0.20892,0.752084 0.27338,0.273377 0.33375,-0.331266 0.48379,-0.725313 0.33343,-0.87567 z m 28.418454,-9.62189 c 0,-0.285835 -0.3103,-0.238372 -0.73252,0.112041 -0.40289,0.334367 -0.73252,0.684014 -0.73252,0.77699 0,0.09298 0.32963,0.04254 0.73252,-0.112042 0.40289,-0.154605 0.73252,-0.504247 0.73252,-0.776989 z M 440.45851,274.60076 c -3.65049,-0.63098 -6.65002,-1.33961 -7.08103,-1.67287 -0.26859,-0.20767 -1.14762,-0.51849 -1.95339,-0.69071 -2.26163,-0.48336 -7.66075,-3.66694 -11.20527,-6.60715 -9.33891,-7.74667 -14.9213,-20.01834 -14.9213,-32.80115 0,-11.73459 4.3456,-22.40224 12.41686,-30.48118 4.56263,-4.56695 9.0815,-7.42391 15.219,-9.62183 4.15393,-1.48758 4.68251,-1.55841 11.67608,-1.56452 7.77439,-0.007 10.02694,0.41723 15.87129,2.98766 10.60909,4.66603 19.53295,15.54123 22.7664,27.74457 1.36546,5.1534 1.25666,17.14678 -0.2033,22.40536 -3.92534,14.13883 -14.76962,25.3551 -28.13749,29.10271 -3.319,0.93047 -11.88769,1.64163 -14.44785,1.19911 z m 12.20761,-3.70908 c 11.99253,-3.82045 19.35666,-9.88394 24.55258,-20.21608 3.08606,-6.13665 3.99653,-10.27008 3.97324,-18.03838 -0.0239,-8.02508 -0.68046,-11.02166 -3.85702,-17.60738 -1.91783,-3.97611 -7.11341,-11.44279 -7.96972,-11.45351 -0.18611,-0.002 -1.10753,-0.72501 -2.04759,-1.60595 -3.39148,-3.17815 -9.23021,-6.11622 -14.73236,-7.41332 -3.94375,-0.92972 -10.91163,-0.93215 -15.28698,-0.005 -8.17327,1.73132 -17.15109,7.79912 -21.66825,14.64483 -0.70894,1.07436 -1.41274,2.06326 -1.56408,2.19756 -1.38774,1.23158 -4.48562,9.62417 -5.36142,14.52479 -0.82902,4.63901 -0.3668,12.96353 0.98172,17.68001 4.18431,14.63493 16.1052,25.6242 30.2202,27.85851 3.26245,0.51642 10.349,0.20221 12.75968,-0.56575 z M 71.651294,273.4087 c -6.00985,-0.95492 -14.64182,-4.62825 -20.22398,-8.60632 -4.06054,-2.89371 -4.46863,-3.42577 -3.4267,-4.46769 0.58114,-0.58114 1.02594,-0.68123 1.5188,-0.34175 8.36464,5.76133 11.12646,7.26755 17.10936,9.33092 3.5885,1.23759 4.52344,1.34968 11.47616,1.3759 6.6766,0.0252 7.97257,-0.10595 10.98781,-1.11176 7.78623,-2.59729 12.595966,-6.28405 15.395416,-11.8009 1.38922,-2.73771 1.61282,-3.67796 1.62589,-6.83686 0.0195,-4.72031 -1.3641,-8.03439 -4.51442,-10.8129 -3.840406,-3.38714 -9.284986,-5.55421 -20.076266,-7.99082 -14.75155,-3.33081 -22.46563,-6.75526 -25.15462,-11.16671 -2.61004,-4.28191 -2.92194,-5.33059 -2.92366,-9.82986 -0.001,-3.81004 0.1774,-4.7598 1.34361,-7.1345 2.74036,-5.58007 9.62057,-10.29096 17.47325,-11.96398 4.25149,-0.90578 10.77276,-0.68189 15.36576,0.52753 6.91665,1.82128 16.210586,7.65817 15.777186,9.90859 -0.2923,1.51778 -1.82613,1.20518 -4.157986,-0.84741 -6.69552,-5.89363 -18.41645,-8.71464 -27.40442,-6.59574 -6.64309,1.5661 -12.58156,5.83458 -14.74317,10.59716 -1.88176,4.146 -0.89143,10.865 2.07374,14.0696 4.02375,4.34866 7.7688,5.93634 22.83865,9.68225 15.79566,3.92632 19.947976,5.88553 24.017276,11.33225 2.14084,2.86549 3.00132,6.38469 2.72899,11.16104 -0.25161,4.41267 -0.98176,6.42427 -3.85397,10.61776 -2.77303,4.04867 -9.691936,8.27273 -16.787956,10.2492 -3.07059,0.85526 -12.77473,1.24131 -16.46475,0.655 z m -5.49795,-77.54738 c -0.15035,-0.15035 -0.5444,-3.1e-4 -0.87567,0.33344 -0.4787,0.4823 -0.42261,0.53839 0.27338,0.27338 0.48162,-0.18339 0.75265,-0.45646 0.60229,-0.60682 z M 527.14013,273.4507 c -3.51654,-0.57152 -8.38526,-1.97464 -11.40544,-3.28695 -5.64437,-2.45259 -13.25609,-7.66508 -13.25609,-9.07779 0,-1.37175 1.39677,-1.59313 2.84614,-0.45108 5.58302,4.39925 13.80391,8.31706 20.34229,9.69452 3.39758,0.71578 16.50658,0.78605 16.07898,0.0862 -0.10509,-0.17199 0.63109,-0.4601 1.63596,-0.64023 1.9465,-0.34895 9.05406,-3.7626 10.1815,-4.89006 0.37105,-0.37106 1.18424,-1.07611 1.80708,-1.56678 1.78579,-1.40687 4.51047,-5.67821 5.20539,-8.16027 0.86604,-3.09325 0.44074,-8.30209 -0.89084,-10.90981 -3.02414,-5.92239 -8.14475,-8.4914 -25.00372,-12.54442 -13.32367,-3.20312 -18.29758,-5.29697 -22.10899,-9.30719 -6.51557,-6.8555 -5.94518,-17.529 1.28128,-23.97585 8.65966,-7.72544 23.04398,-9.10384 35.26208,-3.37903 4.64164,2.17485 9.14401,5.81073 8.94227,7.22132 -0.2282,1.5959 -1.51993,1.53963 -3.32305,-0.14476 -4.80216,-4.48588 -13.77364,-7.81654 -21.05465,-7.81654 -5.53444,0 -12.59931,1.98987 -15.20835,4.28354 -0.47003,0.41322 -0.85461,0.59444 -0.85461,0.40272 0,-0.19172 -0.95159,0.61668 -2.11464,1.79645 -5.74902,5.83156 -6.14756,13.63751 -0.98924,19.37483 3.34835,3.72415 7.40143,5.43183 20.92855,8.81782 15.51494,3.88356 20.75524,6.10658 24.38147,10.34299 2.25357,2.63282 3.18895,4.7297 3.7675,8.4458 0.57659,3.70363 -0.005,7.50031 -1.71425,11.2393 -1.30921,2.85973 -5.04536,7.10967 -7.62837,8.67748 -0.9428,0.57225 -1.82408,1.1706 -1.95837,1.32967 -0.45949,0.54426 -6.10156,2.83608 -9.02217,3.66482 -3.31011,0.93928 -12.41905,1.37604 -16.12771,0.77331 z m -376.21756,-0.70402 c -0.40519,-0.48826 -0.51961,-11.04577 -0.42604,-39.312 l 0.12795,-38.64447 -13.73601,6e-5 c -11.61407,4e-5 -13.82993,-0.11311 -14.34395,-0.73248 -0.48517,-0.58458 -0.48453,-0.88122 0.003,-1.46886 0.53428,-0.64377 4.27123,-0.7205 29.72687,-0.61043 l 29.11603,0.12591 0.14826,1.03927 c 0.11007,0.77173 -0.17834,1.12124 -1.12032,1.35766 -0.6977,0.17512 -7.02751,0.29763 -14.06615,0.27226 l -12.79758,-0.0461 -0.25145,39.22129 c -0.1383,21.57171 -0.30312,39.27623 -0.36626,39.34337 -0.33759,0.35896 -1.53214,0.0355 -2.01428,-0.54544 z m 79.2331,-0.0887 c -10.44521,-2.29184 -18.53815,-8.76485 -23.17163,-18.53352 -2.73826,-5.77289 -2.88555,-7.60419 -2.88555,-35.8732 0,-23.37462 0.0746,-25.82687 0.7944,-26.10307 2.06502,-0.79241 2.08665,-0.51772 2.12313,26.94989 0.0386,29.10487 0.0435,29.15475 3.32428,35.51472 1.17765,2.28285 2.98888,4.63807 5.4523,7.08989 16.31578,16.23894 43.26424,8.80905 49.62725,-13.68257 0.81046,-2.86486 0.91438,-5.73512 1.06621,-29.44733 0.1469,-22.94387 0.26219,-26.30914 0.90989,-26.55768 0.40792,-0.15653 0.96326,-0.063 1.23415,0.20786 0.67685,0.67685 0.56663,52.90469 -0.11725,55.55297 -0.80089,3.1014 -2.19664,6.65519 -3.54833,9.03443 -1.58542,2.79066 -5.83306,7.68511 -8.36871,9.64302 -7.35085,5.67599 -17.73901,8.11374 -26.44014,6.20459 z m 14.34339,-1.98059 c -0.16228,-0.16227 -0.58348,-0.17962 -0.93601,-0.0385 -0.38956,0.15589 -0.27387,0.27161 0.29506,0.29504 0.51476,0.0212 0.80323,-0.0942 0.64095,-0.25649 z m 4.27973,-1.65275 c 0.17112,-0.27683 -0.0249,-0.35869 -0.45954,-0.19193 -0.84601,0.32465 -1.00077,0.67468 -0.29833,0.67468 0.25272,0 0.59378,-0.21724 0.75787,-0.48275 z m 13.27025,-10.48358 c 0,-0.39107 -0.18675,-0.59564 -0.41495,-0.4546 -0.22821,0.14104 -0.28847,0.46101 -0.13396,0.71104 0.39488,0.63894 0.54891,0.567 0.54891,-0.25644 z m 33.97792,14.49474 c -0.48551,-0.32881 -0.58724,-8.80077 -0.48835,-40.67338 l 0.12497,-40.25805 11.96451,0.0229 11.9645,0.0229 5.37182,1.86213 c 13.3749,4.63639 23.1228,14.84385 26.6997,27.95843 1.5442,5.66176 1.53038,15.975 -0.0288,21.41021 -3.99761,13.93676 -15.06166,24.82092 -29.11282,28.63949 -3.33331,0.90587 -5.51964,1.0888 -14.89459,1.24626 -6.04329,0.10151 -11.26377,-0.002 -11.60112,-0.23077 z m 23.70833,-3.32531 c 7.86668,-1.61677 14.74017,-5.51312 20.48948,-11.61479 1.6784,-1.7813 2.88706,-3.24209 2.68591,-3.2462 -0.2012,-0.004 -0.11579,-0.16893 0.18977,-0.36626 0.93963,-0.60685 4.02247,-6.60539 5.35356,-10.41695 1.53878,-4.40635 2.11498,-13.05644 1.21422,-18.2289 -1.69017,-9.70578 -8.27733,-19.56257 -16.72574,-25.02782 -7.52392,-4.8672 -12.36119,-6.01124 -25.43649,-6.01587 l -9.64486,-0.003 v 37.8469 37.84691 h 9.05503 c 6.35291,0 10.17823,-0.23085 12.81912,-0.7736 z m 54.63359,3.37811 c -0.52717,-0.52717 -0.37344,-79.90897 0.15632,-80.74006 0.36162,-0.56724 0.66293,-0.61034 1.33548,-0.19099 0.81921,0.51079 0.87561,2.79548 0.9935,40.23513 0.0911,28.91967 -0.0244,39.87381 -0.42604,40.35754 -0.59129,0.71246 -1.53082,0.86684 -2.05926,0.33838 z"
       style="fill:#666666;stroke-width:0.48834717" />
    <rect
       y="296.58685"
       x="1.3607178"
       height="8.1527342e-06"
       width="1.493828e-05"
       id="rect3776"
       style="opacity:1;fill:#e6e6e6;stroke-width:0.26458332" />
    <rect
       y="296.58685"
       x="1.3607104"
       height="3.0517578e-05"
       width="1.4901161e-05"
       id="rect3778"
       style="opacity:1;fill:#e6e6e6;stroke-width:0.26458332" />
    <path
       transform="matrix(0.26458333,0,0,0.26458333,0,-63)"
       id="path3796"
       d="m 680.57143,1291.2139 c 0,-1.6474 54.10926,-48.0242 86.68451,-74.2969 36.97246,-29.8192 114.19629,-81.3763 167.6012,-111.896 21.21429,-12.1235 39.13006,-22.5664 39.8128,-23.2064 1.56803,-1.47 -5.03263,-28.0881 -9.9762,-40.2306 l -3.73283,-9.1685 -38.54462,21.1204 c -103.17123,56.5324 -198.2746,127.1682 -283.27343,210.3944 l -25.71429,25.1781 -35.71428,-7.2905 c -46.88386,-9.5706 -48.43175,-9.9564 -49.97778,-12.4579 -2.01045,-3.253 101.27943,-103.6584 138.5492,-134.68 81.89846,-68.1685 162.89549,-122.3722 242.72269,-162.43134 15.16951,-7.61243 29.30437,-15.9174 31.41083,-18.45554 3.07406,-3.70398 3.21048,-8.35306 0.69126,-23.556 -1.72626,-10.41769 -4.32298,-20.12558 -5.77046,-21.57306 -6.20494,-6.20494 -93.45406,38.79057 -160.48289,82.76317 -103.42223,67.84757 -177.97825,131.68747 -262.25317,224.55887 -30.01737,33.0794 -34.02763,36.5103 -41.03634,35.1086 -6.97974,-1.396 -61.65057,-25.7584 -64.74297,-28.8508 -0.6944,-0.6944 4.04311,-7.5996 10.52783,-15.3449 6.48468,-7.7453 11.79037,-15.8461 11.79037,-18.0018 0,-7.5939 -88.13239,-56.0022 -152.47231,-83.7482 -19.99027,-8.6206 -39.03656,-17.5584 -42.32508,-19.8618 -7.83192,-5.4857 -54.15413,-66.6524 -65.51722,-86.51303 -4.87859,-8.52691 -8.06783,-16.3058 -7.08719,-17.28643 2.06181,-2.06182 59.17752,16.52815 98.83037,32.16726 48.31076,19.0537 121.90706,54.6708 172.25554,83.3634 27.04237,15.411 50.26494,28.4923 51.60572,29.0697 2.51585,1.0835 36.13874,-30.7782 36.13874,-34.2458 0,-2.9408 -42.02132,-29.0144 -82.88037,-51.4262 -74.88035,-41.07287 -160.20509,-76.49084 -246.78539,-102.4397 -31.24474,-9.36431 -59.08757,-19.08846 -61.87297,-21.6092 -4.47555,-4.05031 -28.46127,-69.89857 -28.46127,-78.13503 0,-1.75663 2.27694,-3.19385 5.05988,-3.19385 8.43869,0 119.60364,30.87388 159.26055,44.23148 93.79376,31.59249 214.83774,90.12203 289.84105,140.1496 l 27.0186,18.0216 10.12426,-8.2807 c 23.6808,-19.3688 30.00766,-25.1809 28.6774,-26.3444 C 614.801,997.78497 553.17009,958.16612 527.00983,942.68246 411.37657,874.24177 266.78935,820.52974 121.3555,791.98783 97.993234,787.40289 88.919321,784.44043 87.945487,781.08012 85.488614,772.60243 79.87,709.07309 81.438385,707.50469 c 0.850695,-0.85069 10.82191,-0.10772 22.158255,1.65128 11.33634,1.75889 21.12698,2.68255 21.75697,2.05255 2.46991,-2.46992 -4.9514,-153.97952 -9.23478,-188.53223 l -4.54309,-36.64775 9.96539,-24.78082 c 12.75398,-31.7152 30.92541,-70.26506 39.75834,-84.34549 l 6.89626,-10.99323 4.72512,22.4218 c 18.08888,85.83609 24.86123,145.08826 28.65894,250.74083 l 3.27735,91.17617 20.92485,5.61326 c 13.15299,3.5284 21.9287,4.60943 23.6276,2.91051 4.60225,-4.60223 6.34144,-91.03688 2.83464,-140.87611 -6.25677,-88.92203 -19.07322,-169.50157 -40.37574,-253.8502 l -8.2636,-32.72024 28.84037,-32.6434 c 15.8622,-17.95386 29.84098,-31.58266 31.06394,-30.2862 3.34853,3.54974 15.86015,44.98532 26.85625,88.94168 14.51222,58.01182 23.8387,106.82113 32.31733,169.12979 6.98673,51.34485 7.59335,63.73025 7.73497,157.92505 l 0.15369,102.21078 22.46087,8.66168 c 12.35346,4.76394 22.84412,8.26909 23.31258,7.78923 2.47891,-2.53923 7.08368,-80.0156 7.08368,-119.1846 0,-129.89257 -23.55378,-273.64477 -65.6188,-400.48131 -9.07981,-27.37789 -15.8827,-50.8579 -15.11754,-52.1778 3.03955,-5.24319 58.80631,-44.91018 61.75583,-43.92701 1.73423,0.57807 6.18391,8.98809 9.8882,18.68894 3.70428,9.70084 7.97603,17.63789 9.49277,17.63789 9.1158,0 97.32728,-55.42117 149.73106,-94.07243 37.58945,-27.724719 38.33611,-28.111361 60.3928,-31.273273 25.93868,-3.718406 83.16322,-8.880076 98.84194,-8.915569 l 10.7948,-0.02444 L 676.31,94.103455 C 608.986,155.25715 511.82994,224.18678 432.5394,267.05218 c -14.63189,7.91018 -26.05814,15.8359 -25.39166,17.61271 0.66649,1.77681 3.60137,12.552 6.522,23.94485 2.9206,11.39286 6.4974,20.71429 7.94843,20.71429 4.44214,0 61.49794,-31.23931 93.23897,-51.05041 76.90649,-48.00103 139.84675,-96.70745 208.57143,-161.40336 24.35714,-22.929283 46.05274,-41.721629 48.21246,-41.760773 7.1008,-0.1287 75.42908,14.369215 80.08848,16.993192 3.67969,2.072262 -5.75908,12.769001 -49.06405,55.603071 -111.16283,109.954 -210.4872,182.90335 -338.5226,248.62979 -14.53572,7.46186 -26.38132,15.04398 -26.32355,16.84918 0.21343,6.67517 7.63706,41.97665 9.14412,43.48368 5.29494,5.29494 115.55831,-53.18328 172.17943,-91.31543 33.91448,-22.84011 80.92754,-58.54764 111.60268,-84.76487 38.28686,-32.72278 128.50109,-121.19613 153.146,-150.19073 15.00212,-17.64991 19.21877,-21.02839 24.58097,-19.69489 9.83498,2.44581 66.38463,28.05258 66.38463,30.06023 0,0.968 -5.78571,8.53814 -12.85714,16.82253 -7.07143,8.28439 -12.8318,15.92183 -12.8008,16.97209 0.14743,4.99635 85.7076,51.33571 145.6971,78.90943 27.5215,12.65007 52.6494,24.9287 55.8397,27.28584 13.0619,9.6507 78.4856,100.87366 74.9097,104.4496 -1.7315,1.7314 -85.9648,-27.98794 -126.5028,-44.63294 -46.5205,-19.1014 -129.83981,-61.04834 -172.39799,-86.79343 l -32.39794,-19.59877 -17.25391,17.2539 c -9.78849,9.7885 -16.40303,18.63063 -15.2874,20.43576 3.80571,6.15776 89.28668,55.42294 134.48005,77.50479 74.52249,36.41229 137.18839,60.40326 216.59889,82.92255 21.7008,6.15394 40.4656,11.81291 41.6995,12.57551 3.2798,2.02703 29.8422,81.55197 27.8911,83.50303 -3.677,3.67703 -151.5499,-37.0112 -177.2507,-48.77171 -8.0592,-3.68783 -21.7245,-8.91269 -30.3674,-11.6108 -57.9022,-18.07583 -174.8237,-76.748 -246.61319,-123.75257 L 800.20209,325.877 783.9582,338.67012 c -8.93417,7.03622 -16.634,15.36762 -17.11077,18.51422 -0.67923,4.48283 6.43217,10.65972 32.85714,28.5392 127.14152,86.02578 291.49783,153.03038 453.59753,184.92212 20.3591,4.00546 38.0295,8.29566 39.2676,9.53374 2.231,2.231 6.6904,33.7256 8.8964,62.82986 l 1.1455,15.11383 -13.1629,-2.12423 c -7.2396,-1.16832 -17.0201,-2.18383 -21.7344,-2.25666 l -8.5714,-0.13257 0.3264,61.42857 c 0.18,33.85589 2.5354,84.17223 5.2477,112.09869 l 4.9211,50.67008 -6.1491,18.47826 c -7.3696,22.14577 -44.8388,98.75309 -48.3008,98.75309 -1.3423,0 -3.1642,-4.17858 -4.0486,-9.28572 -0.8845,-5.10714 -6.1355,-34.51786 -11.6689,-65.35711 -13.7627,-76.70343 -16.3388,-104.9084 -18.4795,-202.32255 l -1.8483,-84.10825 -20,-5.11223 c -33.1637,-8.477 -30.0043,-15.07754 -29.9706,62.61443 0.05,114.20137 10.335,201.57565 36.15,307.09343 l 13.0942,53.52198 -20.1168,23.6209 c -11.0643,12.9915 -24.627,27.9593 -30.1394,33.2618 l -10.0225,9.6409 -8.6301,-27.6091 c -12.0331,-38.4956 -30.4533,-113.98183 -37.3599,-153.10134 -15.5613,-88.13994 -17.9389,-116.6156 -19.3483,-231.72623 l -1.3504,-110.29766 -21.2052,-6.65025 c -16.7956,-5.26738 -21.937,-5.91852 -24.7246,-3.13138 -5.92253,5.92186 -4.6535,202.36032 1.649,255.23223 10.9234,91.63895 27.7135,167.58893 57.8879,261.85693 8.7566,27.3565 14.8655,50.6509 13.5753,51.7654 -13.3248,11.5102 -58.6664,42.951 -61.9406,42.951 -0.6254,0 -4.0659,-7.8317 -7.6456,-17.4037 -3.5796,-9.572 -7.975,-17.9663 -9.76733,-18.6541 -4.40548,-1.6906 -48.69254,22.6434 -88.77774,48.7798 -18.03612,11.7599 -34.4354,20.7514 -36.44286,19.981 -2.00746,-0.7703 -6.18446,0.5155 -9.2822,2.8573 -5.4336,4.1077 -5.44117,4.2611 -0.21457,4.3488 3.256,0.055 -6.33234,8.5984 -24.02986,21.412 -31.89903,23.0961 -36.49688,24.7364 -84.24505,30.0539 -24.32943,2.7096 -75.71429,4.0284 -75.71429,1.9434 z m -142.85714,-24.747 c 0,-1.5714 -1.28572,-2.8572 -2.85715,-2.8572 -1.57143,0 -2.85714,1.2858 -2.85714,2.8572 0,1.5714 1.28571,2.8571 2.85714,2.8571 1.57143,0 2.85715,-1.2857 2.85715,-2.8571 z m 585.71431,-159.8314 c 0,-1.4787 -1.2857,-3.4831 -2.8572,-4.4543 -1.5714,-0.9712 -2.8571,0.2385 -2.8571,2.6885 0,2.4499 1.2857,4.4543 2.8571,4.4543 1.5715,0 2.8572,-1.2098 2.8572,-2.6885 z M 972,1092.1812 c 0,-1.5715 -1.28571,-2.8572 -2.85714,-2.8572 -1.57143,0 -2.85715,1.2857 -2.85715,2.8572 0,1.5714 1.28572,2.8571 2.85715,2.8571 1.57143,0 2.85714,-1.2857 2.85714,-2.8571 z M 734.85714,923.61029 C 804.09897,880.3464 840.24889,861.0286 911.34926,829.29634 l 15.06354,-6.72291 -2.2064,-25.9104 c -5.33286,-62.62529 -1.56809,-198.00606 6.65634,-239.36223 1.48037,-7.44394 0.0409,-8.48897 -37.94771,-27.54566 -62.89589,-31.5514 -111.24843,-60.61782 -166.00997,-99.79448 -16.15937,-11.56049 -30.94509,-20.61157 -32.85715,-20.11354 -1.91205,0.498 -18.2622,10.7406 -36.33362,22.76131 -43.45769,28.90706 -93.69975,57.29777 -151.71346,85.73 l -47.42777,23.24411 1.3728,81.72789 c 1.22285,72.80097 -1.58275,146.09491 -6.90369,180.35449 l -1.56171,10.05517 45.46905,23.60125 c 61.71052,32.0316 115.6694,64.5194 154.95318,93.29489 18.01791,13.19817 34.08934,23.247 35.71428,22.33074 1.62497,-0.91625 22.88303,-14.11777 47.24017,-29.33668 z M 663.42857,268.06408 c 0,-0.69298 -1.28571,-2.05457 -2.85714,-3.02576 -1.57143,-0.9712 -2.85714,-0.40422 -2.85714,1.25995 0,1.66417 1.28571,3.02576 2.85714,3.02576 1.57143,0 2.85714,-0.56698 2.85714,-1.25995 z m 42.85714,-35.88291 c 0,-1.57143 -0.56697,-2.85714 -1.25994,-2.85714 -0.69297,0 -2.05457,1.28571 -3.02577,2.85714 -0.9712,1.57143 -0.40423,2.85715 1.25994,2.85715 1.66417,0 3.02577,-1.28572 3.02577,-2.85715 z M 842.11749,186.2768 c 3.07505,-4.97555 -0.4272,-6.02926 -4.34589,-1.30753 -2.25357,2.71538 -2.47034,4.35476 -0.57577,4.35476 1.67108,0 3.88583,-1.37125 4.92166,-3.04723 z"
       style="opacity:1;fill:#666666;stroke-width:2.85714293" />
    <path
       id="path3798"
       transform="matrix(0.26458333,0,0,0.26458333,0,-63)"
       d="M 704.67578 68.470703 L 670.48047 70.505859 C 631.62878 72.819079 576.47832 79.488405 571.22852 82.507812 C 569.29618 83.619196 554.14903 94.466479 537.57031 106.61328 C 486.77585 143.82913 391.92849 203.60938 383.67578 203.60938 C 382.35155 203.60937 378.37252 195.86821 374.83398 186.40625 C 371.29546 176.94429 367.18004 168.44784 365.6875 167.52539 C 362.56699 165.59681 327.85915 188.80256 311.71875 203.60938 L 300.81836 213.60938 L 316.5918 260.75195 C 368.32136 415.34715 391.89304 593.43036 380.29297 742.01953 C 378.56854 764.10842 376.83853 782.52027 376.44727 782.93359 C 375.26887 784.17839 336.49402 769.11191 333.5957 766.2832 C 332.02976 764.75485 330.74421 721.57154 330.51758 662.91992 C 330.10558 556.2946 328.13393 531.42042 313.13672 443.60938 C 303.00076 384.2617 278.95731 286.939 266.03516 252.95117 C 263.32234 245.81592 263.19756 245.78979 257.32812 251.08984 C 254.05303 254.04723 240.56855 268.86723 227.36328 284.02344 L 203.35547 311.58008 L 214.48633 356.88086 C 226.83376 407.12918 238.26847 467.92819 244.76953 517.89453 C 251.77188 571.71361 256.0052 666.4882 253.12891 705.03906 L 250.57227 739.32422 L 242.54297 738.76172 C 238.12731 738.45295 227.51932 736.16873 218.9707 733.68359 L 203.42773 729.16406 L 203.35352 697.10156 C 203.09187 585.26728 193.94452 489.908 174.43945 395.66406 L 168.36133 366.29102 L 161.30859 376.66992 C 153.1861 388.62323 134.22322 428.82218 120.80859 462.52344 L 111.57422 485.72266 L 116.01758 524.06055 C 120.30343 561.02915 127.67479 708.88773 125.34766 711.21484 C 124.72132 711.84119 114.93204 710.91514 103.5957 709.15625 C 92.259361 707.39725 82.288195 706.65322 81.4375 707.50391 C 79.869115 709.07231 85.488441 772.60239 87.945312 781.08008 C 88.918531 784.43828 98.007949 787.41249 121.35547 792.01172 C 255.92645 818.52095 391.84705 867.21023 500.99219 928.00586 C 539.67959 949.55537 620.78639 1001.5574 619.86328 1004.2207 C 619.46677 1005.3647 610.87782 1013.1814 600.77539 1021.5898 L 582.40625 1036.877 L 547.91406 1014.832 C 444.65857 948.83655 322.64472 894.42322 199.25781 859.3457 C 126.6724 838.7105 104.16631 833.34737 101.4707 836.04297 C 99.401713 838.11197 104.83336 856.90104 118.27148 894.16992 C 128.07902 921.36987 120.6524 917.09535 199.14258 940.7168 C 290.90055 968.3312 396.88232 1015.103 477.71484 1063.6562 C 498.92912 1076.3989 517.53236 1088.0561 519.05664 1089.5605 C 520.83659 1091.3172 515.56668 1098.5584 504.32422 1109.8008 L 486.81836 1127.3047 L 445.83789 1103.7773 C 394.96454 1074.5705 312.94784 1034.3693 268.11328 1016.6641 C 220.04929 997.68364 164.14677 979.08175 161.90625 981.32227 C 160.86013 982.36841 163.39387 989.41791 167.53711 996.98828 C 177.69911 1015.5559 224.67497 1078.0845 233.16602 1084.3457 C 236.91147 1087.1076 258.84446 1097.6639 281.9043 1107.8047 C 344.3601 1135.2705 429.14258 1182.0752 429.14258 1189.0879 C 429.14258 1190.3785 424.00055 1197.8946 417.71484 1205.7891 C 411.42912 1213.6836 406.28516 1220.7287 406.28516 1221.4453 C 406.28516 1223.6639 462.36545 1249.2545 470.99219 1250.9727 C 478.54688 1252.4773 482.44175 1249.0361 524.21289 1203.959 C 608.79241 1112.6854 688.70637 1045.8284 788.99805 982.4375 C 846.90197 945.8385 928.62873 904.04689 934.81641 907.87109 C 936.12673 908.68089 938.79755 918.29041 940.75195 929.22656 C 943.65329 945.46087 943.61593 949.93991 940.55273 953.63086 C 938.48925 956.11723 920.61488 966.38518 900.83008 976.44727 C 830.80214 1012.0619 760.71773 1058.3693 685.51953 1118.7129 C 636.89065 1157.7356 524.6629 1265.9872 528.67578 1270 C 530.1205 1271.4448 549.73045 1276.351 572.25391 1280.9023 L 613.20703 1289.1777 L 637.60352 1265.6035 C 711.84985 1193.8603 789.23305 1133.4067 870.57422 1083.6035 C 911.04574 1058.8238 960.58907 1032.7562 962.21484 1035.3867 C 964.40307 1038.9274 974.85742 1075.513 974.85742 1079.6309 C 974.85742 1081.3813 966.82143 1087.088 957 1092.3125 C 874.1864 1136.3647 766.65465 1212.3911 694.85742 1277.6504 L 679.14258 1291.9336 L 706.85352 1292.0566 C 739.2908 1292.2014 797.20346 1285.1693 810.13281 1279.5156 C 825.04821 1272.9935 870.94189 1237.907 864.69141 1237.8047 C 859.23303 1237.7153 859.23528 1237.6433 864.77539 1233.4551 C 867.87313 1231.1133 872.01122 1229.8125 873.9707 1230.5645 C 875.93016 1231.3164 893.7265 1221.5823 913.51953 1208.9316 C 956.23668 1181.629 996.59667 1159.7233 1000.1445 1161.916 C 1001.543 1162.7803 1005.6063 1171.2971 1009.1758 1180.8418 C 1013.8622 1193.3732 1016.819 1197.7542 1019.8125 1196.6055 C 1024.6659 1194.7431 1061.2303 1169.3432 1072.8984 1159.7285 L 1080.9395 1153.1016 L 1065.2695 1103.3555 C 1026.8731 981.46996 1009.7516 893.52106 1003.5391 786.26172 C 998.97655 707.48838 1001.0658 590.71507 1007.1465 584.64844 C 1008.4056 583.39224 1018.6916 585.53787 1030.0039 589.41602 L 1050.5723 596.4668 L 1052.3223 705.03906 C 1053.9976 808.91248 1055.2072 826.89986 1065.0898 895.03906 C 1074.0833 957.04751 1092.1412 1036.224 1110.6211 1094.6738 L 1118.1836 1118.5957 L 1129.6309 1107.5312 C 1135.9267 1101.4458 1149.5159 1086.4021 1159.8281 1074.1016 L 1178.5781 1051.7383 L 1166.8457 1004.1016 C 1141.2774 900.28311 1132.2219 829.10088 1130.2539 716.4668 C 1129.3309 663.64265 1129.8099 629.23125 1131.5039 626.78711 C 1133.8246 623.43877 1137.7478 623.683 1156.6973 628.35352 L 1179.1426 633.88477 L 1180.9902 718.0332 C 1183.0698 812.71131 1185.591 841.82329 1197.6992 911.01172 C 1210.5356 984.36075 1212.7975 995.03906 1215.4902 995.03906 C 1218.9204 995.03906 1258.3459 913.91471 1264.6387 893.9082 C 1269.5211 878.38594 1269.5405 875.16651 1265.0703 827.18359 C 1262.487 799.45497 1259.5805 750.3392 1258.6113 718.03906 C 1256.5512 649.37606 1256.1899 650.41437 1280.5449 655.0332 C 1303.901 659.4626 1303.0496 660.072 1301.5508 640.03906 C 1299.595 613.8988 1294.8871 582.4965 1292.5781 580.1875 C 1291.4741 579.0835 1268.927 573.65434 1242.4727 568.12109 C 1120.2605 542.55894 997.24983 498.00791 892.37305 441.32617 C 829.17403 407.16957 766.28516 365.39439 766.28516 357.56836 C 766.28516 354.47651 776.9897 343.92014 791.22461 332.97461 L 800.44922 325.88086 L 821.72266 340.37891 C 886.26966 384.366 994.14517 439.0319 1074.8574 468.6543 C 1152.2081 497.0429 1277.6829 533.16474 1282.4355 528.41211 C 1283.4058 527.44185 1277.9093 508.28629 1270.2207 485.84375 L 1256.2422 445.03906 L 1240.5488 440.29688 C 1231.918 437.68911 1208.7854 430.77559 1189.1426 424.93359 C 1117.7829 403.71048 1059.3541 380.28005 983.52539 342.47852 C 942.58719 322.07035 865.02398 277.07217 861.80469 271.86328 C 860.89564 270.39237 867.74145 261.33578 877.01953 251.73633 L 893.89062 234.2832 L 930.80273 256.31641 C 973.64447 281.89053 1047.7221 319.29188 1094.8574 339.14648 C 1131.6635 354.65009 1223.7985 387.04922 1225.6934 385.1543 C 1227.2174 383.63036 1192.6342 330.59069 1176.25 309.32422 C 1157.5597 285.06444 1149.1269 277.76885 1130.5723 269.80469 C 1078.9865 247.66262 955.37718 182.81472 950.87695 175.5332 C 950.086 174.25342 955.15867 166.23587 962.14844 157.71484 C 969.13821 149.19381 974.85742 141.43324 974.85742 140.4707 C 974.85742 138.41024 909.14042 109.2137 904.65039 109.2793 C 902.96499 109.30392 892.287 120.15549 880.92188 133.39453 C 855.11379 163.45791 773.81811 243.08961 734.32031 276.99609 C 660.57288 340.30383 581.69132 393.00428 497.75195 435.04688 C 481.27315 443.30058 463.01449 451.74078 457.17578 453.80078 C 444.99749 458.09755 445.74863 459.14477 440.7168 430.86914 C 438.35688 417.60779 438.49426 413.03505 441.33398 410.19531 C 443.33935 408.18997 461.7937 397.67323 482.34375 386.82617 C 559.22021 346.24803 614.31705 309.93914 686.15625 252.51367 C 760.19514 193.32984 859.68784 96.539957 851.30664 91.849609 C 849.01641 90.567922 829.72854 85.979133 808.44531 81.652344 L 769.74805 73.785156 L 745.13477 96.554688 C 653.5272 181.29873 621.99824 206.81516 547.71484 256.31836 C 492.79269 292.91903 424.24163 331.35297 420.66211 327.55273 C 419.35905 326.16933 415.71497 315.80378 412.56445 304.51758 C 405.76548 280.16135 403.67966 283.11707 443.34766 260.88672 C 501.38751 228.36058 564.48489 186.09682 617.71484 144.0918 C 644.62249 122.85832 654.68096 114.22273 687.62305 84.076172 L 704.67578 68.470703 z M 840.9082 183.60938 C 842.47963 183.60938 842.9712 184.89537 842 186.4668 C 841.0288 188.03823 838.94838 189.32422 837.37695 189.32422 C 835.80552 189.32422 835.31396 188.03823 836.28516 186.4668 C 837.25636 184.89537 839.33677 183.60937 840.9082 183.60938 z M 705.02539 229.32422 C 705.71836 229.32422 706.28516 230.61021 706.28516 232.18164 C 706.28516 233.75307 704.92394 235.03906 703.25977 235.03906 C 701.5956 235.03906 701.0288 233.75307 702 232.18164 C 702.9712 230.61021 704.33242 229.32422 705.02539 229.32422 z M 658.97656 264.57227 C 659.43276 264.52711 659.98298 264.67486 660.57227 265.03906 C 662.1437 266.01025 663.42773 267.37147 663.42773 268.06445 C 663.42773 268.75742 662.1437 269.32422 660.57227 269.32422 C 659.00084 269.32422 657.71484 267.963 657.71484 266.29883 C 657.71484 265.25872 658.21624 264.64753 658.97656 264.57227 z M 697.69531 410.80078 C 697.92685 410.82129 698.11586 410.8729 698.26367 410.95898 C 700.31821 412.15555 718.07198 424.3371 737.71484 438.0293 C 784.33278 470.52467 835.55839 501.09315 883.42773 524.97852 C 904.64202 535.5638 923.97883 545.96669 926.39648 548.09766 C 930.3194 551.55546 930.35455 555.44225 926.72852 584.2207 C 922.20595 620.11479 920.53575 765.0134 924.22852 801.0918 L 926.45508 822.85938 L 901.37109 833.60156 C 848.11357 856.4101 796.3992 884.50055 727.0332 928.29883 C 706.23 941.43418 687.58799 952.12735 685.60547 952.06055 C 683.62299 951.99372 666.57198 940.93554 647.71484 927.48828 C 605.88578 897.65942 559.75754 870.00387 498.27539 837.89453 C 452.21174 813.83759 451.78691 813.52974 453.19531 805.03906 C 458.10136 775.4622 461.17157 693.07028 460.00586 622.25391 L 458.67773 541.60742 L 506.05273 518.48828 C 563.27996 490.56231 618.89572 459.15473 662.30078 430.24805 C 681.4294 417.50884 694.22223 410.49315 697.69531 410.80078 z M 970.74023 1089.3242 C 971.4332 1089.3242 972 1090.6101 972 1092.1816 C 972 1093.753 970.63878 1095.0391 968.97461 1095.0391 C 967.31044 1095.0391 966.74364 1093.753 967.71484 1092.1816 C 968.68604 1090.6101 970.04726 1089.3242 970.74023 1089.3242 z M 1118.8379 1100.752 C 1119.4555 1100.752 1120.7009 1102.682 1121.6055 1105.0391 C 1122.51 1107.3963 1122.0045 1109.3242 1120.4824 1109.3242 C 1118.9603 1109.3242 1117.7148 1107.3963 1117.7148 1105.0391 C 1117.7148 1102.682 1118.2203 1100.752 1118.8379 1100.752 z M 534.85742 1263.6094 C 536.42885 1263.6094 537.71484 1264.8954 537.71484 1266.4668 C 537.71484 1268.0382 536.42885 1269.3242 534.85742 1269.3242 C 533.28599 1269.3242 532 1268.0382 532 1266.4668 C 532 1264.8954 533.28599 1263.6094 534.85742 1263.6094 z "
       style="opacity:1;fill:#666666;stroke-width:2.85714293" />
  </g>
</svg>
