<?xml version="1.0" encoding="UTF-8" standalone="no"?>
<!-- Created with Inkscape (http://www.inkscape.org/) -->

<svg
   xmlns:osb="http://www.openswatchbook.org/uri/2009/osb"
   xmlns:dc="http://purl.org/dc/elements/1.1/"
   xmlns:cc="http://creativecommons.org/ns#"
   xmlns:rdf="http://www.w3.org/1999/02/22-rdf-syntax-ns#"
   xmlns:svg="http://www.w3.org/2000/svg"
   xmlns="http://www.w3.org/2000/svg"
   xmlns:sodipodi="http://sodipodi.sourceforge.net/DTD/sodipodi-0.dtd"
   xmlns:inkscape="http://www.inkscape.org/namespaces/inkscape"
   width="100mm"
   height="100mm"
   viewBox="0 0 100 100"
   version="1.1"
   id="svg8"
   inkscape:version="0.92.4 (5da689c313, 2019-01-14)"
   sodipodi:docname="Grande orion.svg">
  <defs
     id="defs2">
    <linearGradient
       id="linearGradient2281"
       osb:paint="solid">
      <stop
         style="stop-color:#000000;stop-opacity:1;"
         offset="0"
         id="stop2279" />
    </linearGradient>
    <clipPath
       clipPathUnits="userSpaceOnUse"
       id="clipPath3750">
      <rect
         style="opacity:1;fill:#e6e6e6;stroke-width:0.26458332"
         id="rect3752"
         width="160"
         height="160"
         x="-85.800598"
         y="77.622612" />
    </clipPath>
    <clipPath
       clipPathUnits="userSpaceOnUse"
       id="clipPath3788">
      <rect
         style="opacity:1;fill:#e6e6e6;stroke-width:0.26458332"
         id="rect3790"
         width="256.84698"
         height="256.84698"
         x="-257.32581"
         y="43.302383" />
    </clipPath>
  </defs>
  <sodipodi:namedview
     id="base"
     pagecolor="#ffffff"
     bordercolor="#666666"
     borderopacity="1.0"
     inkscape:pageopacity="0"
     inkscape:pageshadow="2"
     inkscape:zoom="0.7"
     inkscape:cx="303.68088"
     inkscape:cy="325.84921"
     inkscape:document-units="mm"
     inkscape:current-layer="layer1"
     showgrid="false"
     inkscape:window-width="1366"
     inkscape:window-height="705"
     inkscape:window-x="-8"
     inkscape:window-y="-8"
     inkscape:window-maximized="1"
     inkscape:snap-intersection-paths="true"
     units="pt" />
  <metadata
     id="metadata5">
    <rdf:RDF>
      <cc:Work
         rdf:about="">
        <dc:format>image/svg+xml</dc:format>
        <dc:type
           rdf:resource="http://purl.org/dc/dcmitype/StillImage" />
        <dc:title />
      </cc:Work>
    </rdf:RDF>
  </metadata>
  <g
     inkscape:label="Layer 1"
     inkscape:groupmode="layer"
     id="layer1"
     transform="translate(0,-197)">
    <rect
       style="opacity:1;fill:#e6e6e6;stroke-width:0.26458332"
       id="rect3776"
       width="1.493828e-05"
       height="8.1527342e-06"
       x="1.3607178"
       y="1.3607178" />
    <rect
       style="opacity:1;fill:#e6e6e6;stroke-width:0.26458332"
       id="rect3778"
       width="1.4901161e-05"
       height="3.0517578e-05"
       x="1.3607104"
       y="296.58685" />
    <path
       style="opacity:1;fill:#666666;stroke-width:0.11699784"
       d="m 50.53219,221.94753 -1.40028,0.0833 c -1.59095,0.0947 -3.84931,0.36783 -4.06429,0.49147 -0.0791,0.0455 -0.69939,0.4897 -1.37828,0.9871 -2.07999,1.52396 -5.96392,3.97191 -6.30186,3.97191 -0.0542,0 -0.21717,-0.31699 -0.36207,-0.70445 -0.1449,-0.38746 -0.31342,-0.73538 -0.37454,-0.77316 -0.12778,-0.079 -1.54904,0.87129 -2.20998,1.47761 l -0.44636,0.4095 0.64591,1.93045 c 2.11829,6.33055 3.08353,13.62293 2.60852,19.70754 -0.0706,0.90452 -0.14146,1.65848 -0.15748,1.6754 -0.0483,0.051 -1.63606,-0.56599 -1.75474,-0.68182 -0.0641,-0.0626 -0.11677,-1.83091 -0.12605,-4.23265 -0.0169,-4.36622 -0.0976,-5.3848 -0.71173,-8.9806 -0.41506,-2.43024 -1.39962,-6.41553 -1.92877,-7.80731 -0.1111,-0.29218 -0.1162,-0.29325 -0.35655,-0.0762 -0.13411,0.12111 -0.68629,0.72797 -1.22704,1.34861 l -0.9831,1.12842 0.4558,1.85503 c 0.50562,2.05763 0.97386,4.54731 1.24007,6.59339 0.28674,2.20385 0.46009,6.0848 0.34231,7.66343 l -0.10469,1.40395 -0.32879,-0.023 c -0.18082,-0.0127 -0.61521,-0.10618 -0.96527,-0.20794 l -0.63647,-0.18507 -0.003,-1.31294 c -0.0107,-4.57953 -0.38529,-8.48442 -1.18401,-12.34363 l -0.24889,-1.20281 -0.28881,0.42501 c -0.33261,0.48948 -1.10912,2.1356 -1.65844,3.51564 l -0.37814,0.94999 0.18195,1.56991 c 0.1755,1.51383 0.47735,7.56853 0.38206,7.66382 -0.0256,0.0256 -0.42651,-0.0123 -0.89073,-0.0843 -0.46421,-0.072 -0.87252,-0.10249 -0.90736,-0.0677 -0.0642,0.0642 0.16588,2.66573 0.26649,3.01289 0.0399,0.13752 0.41206,0.25931 1.36812,0.44764 5.51058,1.08553 11.07643,3.07932 15.54584,5.56886 1.58422,0.88244 4.90548,3.01188 4.86768,3.12094 -0.0162,0.0468 -0.36795,0.36693 -0.78164,0.71125 l -0.7522,0.626 -1.41243,-0.90273 c -4.22823,-2.70246 -9.22461,-4.93064 -14.27721,-6.36704 -2.97231,-0.845 -3.89392,-1.06461 -4.00431,-0.95423 -0.0847,0.0847 0.1377,0.85412 0.68798,2.38025 0.40162,1.11382 0.0975,0.93878 3.31162,1.90606 3.75741,1.13079 8.09729,3.04606 11.40732,5.03428 0.86871,0.5218 1.6305,0.99915 1.69291,1.06076 0.0729,0.0719 -0.14291,0.36845 -0.60328,0.82882 l -0.71685,0.71677 -1.67812,-0.96342 c -2.08322,-1.196 -5.44174,-2.84221 -7.27769,-3.56722 -1.96818,-0.77724 -4.25735,-1.53897 -4.3491,-1.44723 -0.0428,0.0428 0.0609,0.33152 0.23058,0.64152 0.41613,0.76033 2.33976,3.32082 2.68746,3.57722 0.15337,0.1131 1.05151,0.54536 1.99579,0.96062 2.55752,1.12471 6.0293,3.04133 6.0293,3.32849 0,0.0529 -0.21056,0.36063 -0.46796,0.6839 -0.25739,0.32328 -0.46803,0.61177 -0.46803,0.64111 0,0.0909 2.29644,1.13877 2.6497,1.20913 0.30936,0.0616 0.46885,-0.0793 2.17935,-1.92518 3.46346,-3.73759 6.73588,-6.47533 10.84275,-9.07114 2.37112,-1.4987 5.71777,-3.21003 5.97115,-3.05344 0.0537,0.0332 0.16302,0.42667 0.24305,0.8745 0.11881,0.66478 0.11728,0.84819 -0.008,0.99933 -0.0845,0.10182 -0.81643,0.52228 -1.62661,0.93432 -2.86759,1.45839 -5.73749,3.35464 -8.8168,5.82567 -1.99131,1.59795 -6.58696,6.03077 -6.42263,6.19509 0.0592,0.0592 0.86217,0.26007 1.78449,0.44644 l 1.677,0.33887 0.99902,-0.96534 c 3.04033,-2.93783 6.20911,-5.41336 9.53997,-7.45277 1.65727,-1.01471 3.68604,-2.08215 3.75261,-1.97444 0.0896,0.14499 0.5177,1.64314 0.5177,1.81177 0,0.0717 -0.32906,0.30536 -0.73124,0.5193 -3.39116,1.8039 -7.7945,4.91713 -10.73454,7.58945 l -0.64351,0.58488 1.13474,0.005 c 1.32828,0.006 3.69976,-0.28203 4.22921,-0.51355 0.61077,-0.26707 2.49008,-1.70384 2.23413,-1.70803 -0.22351,-0.004 -0.22342,-0.007 0.003,-0.17811 0.12685,-0.0959 0.2963,-0.14916 0.37654,-0.11837 0.0802,0.0308 0.80898,-0.36781 1.61949,-0.88585 1.74924,-1.11802 3.40195,-2.01504 3.54723,-1.92525 0.0573,0.0354 0.22366,0.38414 0.36983,0.77499 0.1919,0.51315 0.31298,0.69255 0.43556,0.64551 0.19874,-0.0763 1.69603,-1.11636 2.17383,-1.51008 l 0.32927,-0.27136 -0.64167,-2.03707 c -1.5723,-4.99112 -2.27342,-8.59256 -2.52781,-12.98475 -0.18684,-3.22571 -0.10129,-8.00749 0.14772,-8.25591 0.0516,-0.0514 0.47276,0.0364 0.93599,0.19523 l 0.84226,0.28872 0.0717,4.44595 c 0.0686,4.25354 0.11814,4.99011 0.52282,7.78036 0.36828,2.5392 1.10773,5.78141 1.86447,8.17489 l 0.30968,0.97958 0.46876,-0.45308 c 0.25781,-0.24919 0.81427,-0.86522 1.23655,-1.36892 l 0.7678,-0.91575 -0.48043,-1.95069 c -1.04701,-4.25129 -1.41782,-7.16615 -1.49841,-11.77843 -0.0378,-2.16311 -0.0182,-3.57223 0.0512,-3.67231 0.095,-0.13712 0.25568,-0.12712 1.03165,0.0641 l 0.91911,0.2265 0.0757,3.44581 c 0.0852,3.877 0.1884,5.06911 0.68422,7.90233 0.52564,3.00359 0.61827,3.44085 0.72853,3.44085 0.14047,0 1.75491,-3.32198 2.01259,-4.14123 0.19994,-0.63562 0.20073,-0.76746 0.0177,-2.73232 -0.10579,-1.13547 -0.22481,-3.14672 -0.26449,-4.46939 -0.0844,-2.81169 -0.0992,-2.76918 0.89816,-2.58004 0.95642,0.18138 0.92155,0.20634 0.86018,-0.614 -0.0801,-1.07042 -0.27288,-2.35632 -0.36743,-2.45087 -0.0452,-0.0452 -0.96849,-0.26753 -2.05178,-0.49411 -5.00449,-1.04676 -10.04168,-2.87109 -14.33631,-5.19216 -2.58795,-1.39869 -5.1632,-3.10935 -5.1632,-3.42982 0,-0.12661 0.43834,-0.55889 1.02125,-1.0071 l 0.37774,-0.29048 0.87113,0.59368 c 2.64315,1.80124 7.06057,4.03977 10.36568,5.25278 3.16745,1.16249 8.30554,2.64166 8.50016,2.44704 0.0397,-0.0397 -0.18534,-0.82414 -0.50019,-1.74314 l -0.57241,-1.67092 -0.64263,-0.19419 c -0.35342,-0.10679 -1.30069,-0.38989 -2.10504,-0.62912 -2.92213,-0.86907 -5.31474,-1.82853 -8.41987,-3.37647 -1.67639,-0.8357 -4.85255,-2.67834 -4.98437,-2.89164 -0.0372,-0.0602 0.2431,-0.43109 0.62303,-0.82418 l 0.69086,-0.71469 1.51152,0.90224 c 1.75434,1.04724 4.78776,2.5788 6.71792,3.39183 1.50718,0.63486 5.28004,1.96158 5.35763,1.88398 0.0624,-0.0624 -1.35374,-2.23434 -2.02467,-3.10518 -0.76535,-0.99342 -1.11066,-1.29217 -1.87046,-1.6183 -2.1124,-0.9067 -7.17411,-3.56217 -7.35839,-3.86034 -0.0324,-0.0524 0.17533,-0.38072 0.46156,-0.72965 0.28622,-0.34893 0.52042,-0.66672 0.52042,-0.70613 0,-0.0844 -2.69106,-1.27996 -2.87492,-1.27727 -0.069,10e-4 -0.50627,0.44537 -0.97167,0.9875 -1.05682,1.23107 -4.38582,4.49193 -6.00322,5.88037 -3.0199,2.59241 -6.25004,4.75045 -9.6873,6.47206 -0.67479,0.33799 -1.42247,0.68361 -1.66156,0.76796 -0.49869,0.17595 -0.46793,0.21883 -0.67398,-0.93903 -0.0966,-0.54304 -0.091,-0.73029 0.0253,-0.84658 0.0821,-0.0821 0.83781,-0.51277 1.67932,-0.95695 3.14803,-1.66164 5.40421,-3.14846 8.34597,-5.49999 3.03184,-2.42353 7.10598,-6.38701 6.76278,-6.57907 -0.0938,-0.0525 -0.88361,-0.24039 -1.75514,-0.41757 l -1.58462,-0.32216 -1.0079,0.9324 c -3.75127,3.47021 -5.04236,4.51509 -8.08421,6.5422 -2.24902,1.49877 -5.05613,3.07261 -5.20271,2.917 -0.0534,-0.0566 -0.20258,-0.48111 -0.33159,-0.94328 -0.27841,-0.99736 -0.36382,-0.87633 1.26055,-1.78664 2.37669,-1.33192 4.96048,-3.06259 7.1402,-4.78267 1.10185,-0.86949 1.51374,-1.22311 2.86269,-2.45759 z m 5.57861,4.71484 c 0.0644,0 0.0845,0.0527 0.0447,0.11701 -0.0398,0.0643 -0.12496,0.11701 -0.18931,0.11701 -0.0643,0 -0.0845,-0.0527 -0.0447,-0.11701 0.0398,-0.0643 0.12496,-0.11701 0.18931,-0.11701 z m -5.5643,1.87199 c 0.0284,0 0.0516,0.0527 0.0516,0.11701 0,0.0643 -0.0557,0.117 -0.12389,0.117 -0.0682,0 -0.0914,-0.0527 -0.0516,-0.117 0.0398,-0.0644 0.0955,-0.11701 0.12389,-0.11701 z m -1.88566,1.44338 c 0.0187,-0.002 0.0412,0.004 0.0653,0.0191 0.0643,0.0398 0.11693,0.0955 0.11693,0.12389 0,0.0284 -0.0526,0.0516 -0.11693,0.0516 -0.0644,0 -0.11701,-0.0558 -0.11701,-0.12389 0,-0.0426 0.0206,-0.0676 0.0517,-0.0707 z m 1.5855,5.98794 c 0.009,8.5e-4 0.0172,0.003 0.0233,0.006 0.0841,0.049 0.81113,0.54782 1.6155,1.10851 1.90897,1.33066 4.00662,2.58242 5.96683,3.5605 0.86871,0.43346 1.66054,0.85945 1.75954,0.94672 0.16064,0.14159 0.16208,0.30075 0.0136,1.47921 -0.18519,1.46983 -0.25359,7.40332 -0.10237,8.88071 l 0.0912,0.89136 -1.02717,0.43989 c -2.18086,0.93399 -4.29852,2.08427 -7.13901,3.87778 -0.85187,0.53788 -1.61525,0.97575 -1.69643,0.97302 -0.0812,-0.003 -0.77941,-0.45556 -1.55159,-1.00621 -1.71287,-1.22147 -3.60179,-2.35395 -6.11943,-3.6688 -1.88628,-0.98511 -1.90368,-0.99772 -1.846,-1.34541 0.2009,-1.21115 0.32662,-4.58504 0.27888,-7.48491 l -0.0544,-3.30241 1.93997,-0.94672 c 2.34341,-1.14354 4.62084,-2.42966 6.39824,-3.61337 0.7833,-0.52166 1.30716,-0.80894 1.44938,-0.79635 z m 11.18098,27.78502 c 0.0284,0 0.0516,0.0527 0.0516,0.11701 0,0.0644 -0.0557,0.11701 -0.12389,0.11701 -0.0682,0 -0.0914,-0.0527 -0.0516,-0.11701 0.0398,-0.0643 0.0955,-0.11701 0.12389,-0.11701 z m 6.06449,0.46796 c 0.0253,0 0.0763,0.079 0.11333,0.17555 0.037,0.0965 0.0164,0.17548 -0.046,0.17548 -0.0623,0 -0.11333,-0.079 -0.11333,-0.17548 0,-0.0965 0.0207,-0.17555 0.046,-0.17555 z m -23.91356,6.66889 c 0.0643,0 0.11701,0.0527 0.11701,0.11701 0,0.0643 -0.0527,0.11701 -0.11701,0.11701 -0.0644,0 -0.11701,-0.0527 -0.11701,-0.11701 0,-0.0643 0.0527,-0.11701 0.11701,-0.11701 z"
       id="path3798"
       inkscape:connector-curvature="0" />
    <g
       id="g3741"
       transform="translate(-129.76715,129.71848)">
      <animateTransform
         attributeName="transform"
         attributeType="XML"
         type="rotate"
         from="0 37.5 37.5"
         to="360 37.5 37.5"
         dur="10s"
         repeatCount="indefinite" />
      <path
         inkscape:connector-curvature="0"
         id="path16"
         d="m 177.83935,79.79116 h -0.003 -0.002 l -0.95088,0.06044 h -0.002 l -0.003,4.11e-4 -0.94378,0.08379 -0.003,4.35e-4 h -0.002 l -0.93754,0.107134 -0.002,4.36e-4 -0.002,4.35e-4 -0.32182,0.04502 0.0588,0.422703 0.31682,-0.04419 0.005,-8.25e-4 0.92628,-0.105885 0.005,-4.35e-4 0.93336,-0.08296 h 0.002 l 0.003,-4.12e-4 0.93961,-0.05961 0.005,-4.36e-4 0.24095,-0.0088 -0.0163,-0.42687 z m 3.65966,0.419784 0.17467,0.0062 0.005,4.12e-4 0.94004,0.05961 0.003,4.35e-4 h 0.002 l 0.93294,0.08296 0.005,4.35e-4 0.9267,0.105884 0.005,8.25e-4 0.38185,0.05336 0.0592,-0.422703 -0.38728,-0.0542 -0.003,-4.36e-4 -0.002,-4.35e-4 -0.93711,-0.107134 h -0.003 l -0.002,-4.11e-4 -0.94419,-0.08379 -0.002,-4.11e-4 h -0.003 l -0.95046,-0.06044 h -0.003 -0.002 l -0.18009,-0.007 z m -11.10657,0.712009 -0.002,8.25e-4 -0.003,4.35e-4 -0.8896,0.240947 -0.002,8.25e-4 -0.002,4.35e-4 -0.88084,0.262208 -0.002,8.25e-4 -0.002,8.25e-4 -0.62404,0.202596 0.13173,0.40603 0.62404,-0.202598 v -4.35e-4 l 0.87083,-0.258874 0.005,-0.0013 0.87959,-0.238031 0.004,-8.25e-4 0.001,-4.11e-4 0.88709,-0.216354 -0.1013,-0.41478 z m 17.82063,0.2126 0.82248,0.200929 0.005,0.0013 0.87959,0.238032 0.005,0.0013 0.8704,0.258874 v 4.36e-4 l 0.687,0.223023 0.13173,-0.406028 -0.687,-0.223024 -0.002,-8.25e-4 -0.002,-8.25e-4 -0.88083,-0.262209 -0.002,-4.36e-4 -0.002,-8.25e-4 -0.88959,-0.240947 -0.002,-4.35e-4 -0.002,-8.25e-4 -0.8279,-0.201764 z m -23.88563,1.920505 -0.002,0.0013 -0.002,8.25e-4 -0.82082,0.383517 -0.002,8.25e-4 -0.002,0.0013 -0.80997,0.402694 -0.002,8.25e-4 -0.002,0.0013 -0.79871,0.421451 -0.002,0.0013 -0.002,0.0013 -0.18593,0.1038 0.20802,0.37268 0.18134,-0.101299 0.002,-8.25e-4 0.002,-0.0016 0.78954,-0.416449 0.005,-0.0025 0.8008,-0.39769 0.81624,-0.381434 0.005,-0.0021 0.44271,-0.193425 -0.17133,-0.391438 z m 30.32163,0.221773 0.38227,0.167163 0.002,0.0013 0.002,8.25e-4 0.81624,0.381435 0.8008,0.397689 0.005,0.0025 0.78954,0.41645 0.002,0.0013 0.002,0.0013 0.23887,0.133813 0.20843,-0.372678 -0.24345,-0.136315 -0.002,-0.0013 -0.002,-0.0013 -0.79871,-0.421452 -0.002,-0.0013 -0.002,-8.25e-4 -0.80998,-0.402694 -0.002,-0.0013 -0.002,-8.25e-4 -0.82083,-0.383517 -0.002,-8.25e-4 -0.002,-0.0013 -0.38685,-0.169249 z m -36.60172,3.385791 -0.002,0.0016 -0.002,0.0016 -0.72452,0.528588 -0.002,0.0013 -0.002,0.0016 -0.71159,0.545678 -0.002,0.0013 -0.002,0.0016 -0.58444,0.47106 0.26762,0.332241 0.58486,-0.470642 0.70326,-0.539425 0.004,-0.0029 0.71659,-0.52275 0.003,-0.0025 7.5e-4,-4.14e-4 0.71118,-0.493154 -0.24303,-0.350584 z m 42.53541,-0.107135 0.65698,0.455219 7.2e-4,4.11e-4 0.003,0.0025 0.7166,0.522752 0.004,0.0029 0.70368,0.539426 0.001,8.25e-4 0.002,0.0021 0.63238,0.509411 0.26763,-0.332659 -0.63614,-0.51233 -0.002,-0.0017 -0.001,-0.0013 -0.71161,-0.545678 -0.002,-0.0017 -0.002,-0.0013 -0.72492,-0.528587 -0.002,-0.0016 -0.002,-0.0016 -0.66116,-0.458136 z m -47.34648,4.174504 -0.002,0.0016 -0.001,0.0017 -0.62529,0.640724 -0.001,0.0016 -0.002,0.0016 -0.60987,0.655313 -10e-4,0.0021 -0.002,0.0016 -0.59445,0.669904 -0.001,0.0021 -0.001,0.0016 -0.2693,0.318486 0.32599,0.275549 0.26596,-0.314318 0.003,-0.0037 0.58778,-0.662401 0.003,-0.0037 0.6032,-0.647811 0.003,-0.0037 0.62197,-0.636552 0.21969,-0.214687 -0.29848,-0.305147 z m 52.58775,0.133397 0.17258,0.168415 0.001,0.0016 0.002,0.0017 0.61821,0.633218 0.004,0.0037 0.60278,0.647811 0.59112,0.666153 0.003,0.0037 0.30849,0.364759 0.32598,-0.275548 -0.31182,-0.368929 -0.001,-0.0017 -10e-4,-0.0021 -0.59445,-0.669903 -0.002,-0.0016 -0.001,-0.0021 -0.60987,-0.655313 -0.001,-0.0016 -0.002,-0.0017 -0.6253,-0.640724 -0.001,-0.0016 -0.001,-0.0016 -0.17634,-0.172166 z m -57.16994,5.419266 -0.001,0.0021 -0.002,0.0021 -0.49399,0.750776 -0.001,0.0021 -0.001,0.0021 -0.47647,0.763283 -0.001,0.0021 -0.002,0.0021 -0.45855,0.775373 -0.001,0.0025 -0.001,0.0021 -0.0313,0.05628 0.37268,0.208433 0.0287,-0.05211 0.002,-0.0042 0.45314,-0.766618 7.5e-4,-0.0013 0.002,-0.0029 0.47106,-0.754529 0.003,-0.0042 0.48815,-0.742439 0.003,-0.0042 0.36851,-0.531089 -0.351,-0.243033 z m 61.54203,-0.238032 0.33057,0.476896 0.003,0.0042 0.48858,0.74244 0.002,0.0042 0.47106,0.754528 0.002,0.0029 7.2e-4,0.0013 0.45313,0.766618 0.002,0.0042 0.0613,0.109637 0.37268,-0.208016 -0.0637,-0.114222 -0.001,-0.0021 -10e-4,-0.0025 -0.45857,-0.775372 -0.001,-0.0021 -0.001,-0.0021 -0.47646,-0.763283 -10e-4,-0.0021 -0.002,-0.0021 -0.49441,-0.750775 -10e-4,-0.0021 -0.002,-0.0021 -0.33391,-0.481084 z m -64.63602,5.775268 -0.001,0.002 -0.001,0.002 -0.3635,0.83165 -0.002,0.002 -7.5e-4,0.002 -0.34433,0.84207 -7.5e-4,0.002 -7.5e-4,0.002 -0.32391,0.85208 -0.001,0.002 -7.5e-4,0.002 -0.18259,0.51858 0.40269,0.14174 0.18092,-0.51358 0.001,-0.005 0.32224,-0.84708 0.34016,-0.83248 4.4e-4,-0.001 0.001,-0.004 0.35975,-0.82206 0.001,-0.003 7.5e-4,-0.002 0.055,-0.11839 -0.38643,-0.18051 z m 67.99805,0.11714 0.0275,0.0588 7.3e-4,0.002 0.002,0.002 0.35976,0.82206 0.001,0.004 4.8e-4,10e-4 0.33974,0.83248 0.32224,0.84708 0.20468,0.58111 0.4027,-0.14174 -0.20468,-0.58111 -7.3e-4,-0.002 -7.3e-4,-0.002 -0.32391,-0.85208 -0.001,-0.002 -7.3e-4,-0.002 -0.34392,-0.84207 -0.001,-0.002 -7.2e-4,-0.002 -0.36392,-0.83165 -0.001,-0.002 -7.2e-4,-0.002 -0.0296,-0.0634 z m -70.35252,6.85078 -7.5e-4,0.003 -4.3e-4,0.002 -0.1976,0.90669 -4.3e-4,0.002 -4.4e-4,0.002 -0.1755,0.91502 -4.1e-4,0.002 -4.3e-4,0.002 -0.15091,0.91251 0.42103,0.07 0.15008,-0.9071 7.5e-4,-0.005 0.17342,-0.90418 10e-4,-0.005 0.1951,-0.89627 10e-4,-0.005 0.148,-0.60778 -0.41438,-0.1013 z m 72.57483,-0.4473 0.13258,0.5436 0.001,0.005 0.19592,0.90168 0.17342,0.90419 7.3e-4,0.005 0.15132,0.91168 4.9e-4,0.002 2.4e-4,0.003 0.007,0.05 0.42269,-0.0592 -0.007,-0.0554 -4.9e-4,-0.002 -2.4e-4,-0.002 -0.15299,-0.92294 -4.9e-4,-0.002 -4.8e-4,-0.002 -0.17507,-0.91502 -7.3e-4,-0.002 -4.9e-4,-0.002 -0.19759,-0.90669 -2.4e-4,-0.002 -4.9e-4,-0.003 -0.13423,-0.54817 z m -73.48734,6.99044 -4.2e-4,0.003 v 0.002 l -0.0363,0.95713 v 0.002 0.003 l -0.0125,0.96296 v 0.002 0.003 l 0.0125,0.96295 v 0.002 0.003 l 0.006,0.15299 0.42646,-0.0163 -0.005,-0.14757 -0.0125,-0.95754 v -0.002 -0.003 l 0.0125,-0.95754 0.0359,-0.94628 4.4e-4,-0.005 0.0233,-0.37184 -0.42604,-0.0271 z m 74.50242,-0.28429 0.0196,0.30598 4.9e-4,0.005 0.0358,0.9463 v 0.005 l 0.0121,0.95213 v 0.003 0.002 l -0.0121,0.95212 v 0.005 l -0.0363,0.95129 -0.0596,0.94003 -2.4e-4,0.003 v 0.002 l -0.0476,0.53401 0.42519,0.0379 0.0479,-0.53943 4.8e-4,-0.003 v -0.002 l 0.06,-0.95088 2.5e-4,-0.002 v -0.003 l 0.0363,-0.95671 4.8e-4,-0.003 v -0.002 l 0.0121,-0.96296 -0.21343,-0.002 0.21343,-0.003 -0.0121,-0.96297 v -0.003 l -4.8e-4,-0.002 -0.0363,-0.95712 v -0.002 l -2.5e-4,-0.003 -0.0196,-0.31098 z m -74.2769,6.7624 0.0267,0.23136 4.4e-4,0.003 v 0.002 l 0.13047,0.93004 v 0.003 l 7.5e-4,0.002 0.15258,0.92253 4.1e-4,0.002 4.3e-4,0.003 0.1755,0.9146 4.4e-4,0.002 4.1e-4,0.003 0.08,0.36726 0.41728,-0.0905 -0.0788,-0.36268 -0.17467,-0.90918 -7.5e-4,-0.005 -0.1509,-0.91211 -7.5e-4,-0.005 -0.12923,-0.92503 -0.0259,-0.22593 z m 73.59157,2.92934 -7.3e-4,0.005 -0.19509,0.89625 -7.2e-4,0.002 -2.4e-4,0.003 -0.21678,0.88794 -2.5e-4,10e-4 -7.2e-4,0.004 -0.21343,0.78872 0.41188,0.11172 0.21468,-0.79413 7.3e-4,-0.002 7.2e-4,-0.002 0.21927,-0.89835 2.4e-4,-0.002 4.8e-4,-0.002 0.1976,-0.90668 2.4e-4,-0.003 7.3e-4,-0.002 0.13923,-0.72701 -0.41937,-0.08 z m -72.14795,3.77972 0.25262,0.7787 7.5e-4,0.002 7.5e-4,0.002 0.30348,0.86208 7.5e-4,0.002 0.002,0.002 0.3239,0.85249 7.5e-4,0.002 7.5e-4,0.002 0.2918,0.71368 0.39519,-0.16132 -0.28972,-0.70867 -0.002,-0.005 -0.32015,-0.84249 -0.002,-0.005 -0.30014,-0.85207 -0.001,-0.003 -4.3e-4,-0.001 -0.25096,-0.77329 z m 70.32915,2.34612 -0.002,0.005 -0.33975,0.83248 -0.002,0.005 -0.35975,0.82206 -0.002,0.005 -0.37893,0.81123 -0.002,0.005 -0.15172,0.30515 0.38226,0.19009 0.15423,-0.31015 0.001,-0.002 7.3e-4,-0.002 0.38351,-0.82123 7.3e-4,-0.002 0.001,-0.002 0.36392,-0.83165 7.2e-4,-0.002 0.001,-0.002 0.34391,-0.84208 7.3e-4,-0.002 0.002,-0.002 0.12255,-0.32308 -0.39893,-0.15172 z m -67.6808,3.97858 0.16133,0.30515 0.001,0.002 0.001,0.002 0.43979,0.78703 0.001,0.002 0.001,0.002 0.45855,0.77538 10e-4,0.002 0.001,0.002 0.47647,0.76328 0.001,0.002 0.002,0.002 0.20219,0.30723 0.35642,-0.23469 -0.19927,-0.30265 -0.002,-0.003 -0.001,-0.002 -0.47355,-0.75869 -0.45313,-0.76621 -0.002,-0.004 -0.43521,-0.7783 -0.002,-0.005 -0.15883,-0.30098 z m 64.41049,2.41366 h -4.9e-4 l -0.49107,0.74661 -0.003,0.004 -0.50566,0.72951 -2.4e-4,7.3e-4 -0.002,0.003 -0.50983,0.69866 0.34517,0.25179 0.51231,-0.70283 0.002,-0.002 0.001,-0.002 0.51192,-0.73785 10e-4,-0.002 0.001,-0.002 0.4944,-0.75078 0.001,-0.002 0.001,-0.002 0.39645,-0.63488 -0.36226,-0.22594 z m -60.65161,3.32617 0.44146,0.54819 0.001,0.002 0.001,0.001 0.57819,0.68408 0.001,0.002 0.002,0.001 0.59445,0.66989 0.001,0.002 0.001,0.001 0.60988,0.65532 0.002,0.001 10e-4,0.002 0.0175,0.0175 0.30515,-0.29807 -0.0137,-0.0142 -0.003,-0.004 -0.60321,-0.64782 -0.003,-0.004 -0.58778,-0.66198 -0.003,-0.004 -0.57153,-0.67616 -0.003,-0.004 -0.43812,-0.54401 z m 56.8552,1.62621 -0.60278,0.6478 -0.004,0.004 -0.61821,0.63323 -0.63657,0.62196 -0.004,0.003 -0.38685,0.36017 0.29097,0.31223 0.3902,-0.3635 0.002,-0.001 0.001,-0.002 0.64072,-0.6253 0.001,-0.002 0.001,-0.002 0.6253,-0.6403 0.002,-0.002 0.001,-0.002 0.60987,-0.65532 0.001,-10e-4 0.001,-0.002 0.13049,-0.14674 -0.31932,-0.28346 z m -52.12126,3.33327 0.10589,0.0938 0.001,0.001 0.002,0.002 0.68407,0.57819 0.001,0.002 0.002,0.001 0.69784,0.56193 0.002,0.002 0.002,10e-4 0.71159,0.54526 0.002,0.002 0.002,10e-4 0.47273,0.34475 0.25179,-0.34475 -0.46898,-0.34183 -0.005,-0.003 -0.70326,-0.53901 -0.004,-0.003 -2.8e-4,-2.4e-4 -0.68992,-0.55568 -0.005,-0.003 -0.67615,-0.57152 -0.004,-0.003 -0.10172,-0.0905 z m 46.86123,1.44778 -4.8e-4,-4.9e-4 -0.72034,0.52567 -0.003,0.002 -7.3e-4,2.4e-4 -0.73409,0.50858 2.4e-4,2.4e-4 -0.74244,0.48815 -0.005,0.003 -0.15716,0.098 0.22593,0.36225 0.16175,-0.10087 0.002,-0.001 0.002,-0.001 0.75077,-0.49399 0.002,-0.001 0.002,-10e-4 0.73786,-0.51149 0.002,-0.001 0.002,-0.001 0.72493,-0.52858 0.002,-10e-4 0.002,-0.002 0.42103,-0.32307 -0.25971,-0.3385 z m -41.3019,2.57372 0.42479,0.25095 0.002,10e-4 0.002,0.001 0.78746,0.43979 0.002,0.001 0.002,10e-4 0.79871,0.42145 0.002,10e-4 0.002,0.001 0.80997,0.40227 0.002,0.001 0.002,10e-4 0.19217,0.0896 0.18051,-0.38686 -0.18759,-0.0875 -0.005,-0.002 -0.80079,-0.39811 -0.79413,-0.41894 -0.002,-0.001 -0.002,-7.3e-4 -0.77787,-0.43479 -0.005,-0.002 -0.4202,-0.24887 z m 35.1894,1.13805 -0.004,0.002 -0.81165,0.37893 -0.002,7.2e-4 -0.002,0.001 -0.82206,0.35976 -0.004,0.001 -10e-4,7.2e-4 -0.6403,0.26138 0.16132,0.39518 0.64531,-0.26346 0.002,-7.2e-4 0.002,-0.001 0.83207,-0.36392 0.002,-7.3e-4 0.002,-0.001 0.82083,-0.3831 0.002,-0.002 0.002,-10e-4 0.80955,-0.40228 -0.19008,-0.38226 z m -28.99683,1.80503 0.008,0.003 0.002,7.3e-4 0.002,0.001 0.86208,0.30348 0.002,7.2e-4 0.002,7.3e-4 0.87168,0.28305 0.002,7.3e-4 0.002,2.4e-4 0.88085,0.26221 0.002,7.2e-4 0.002,4.9e-4 0.63489,0.17218 0.1113,-0.4123 -0.62947,-0.1705 -0.005,-0.001 -0.87083,-0.25887 -0.005,-0.001 -0.86167,-0.27972 -10e-4,-4.8e-4 -0.003,-0.001 -0.85207,-0.30015 -0.001,-2.4e-4 -0.003,-0.002 -0.003,-0.001 z m 23.07024,0.44605 -0.005,0.001 -0.8796,0.23803 -0.89334,0.21803 -0.005,0.001 -0.89626,0.19509 -0.005,0.002 -0.17342,0.0329 0.0805,0.41937 0.17841,-0.0342 0.003,-4.8e-4 0.002,-7.2e-4 0.90668,-0.19718 0.002,-2.5e-4 0.003,-7.2e-4 0.89835,-0.21927 0.002,-4.9e-4 0.002,-7.3e-4 0.88959,-0.24096 0.002,-4.8e-4 0.002,-7.3e-4 0.43979,-0.13089 -0.12172,-0.40895 z m -16.43582,1.30939 0.56068,0.0925 0.002,4.9e-4 0.003,4.8e-4 0.93004,0.13006 0.002,2.5e-4 0.002,4.8e-4 0.93754,0.10714 0.002,4.8e-4 h 0.003 l 0.94379,0.0842 h 0.003 0.002 l 0.0166,0.002 0.0267,-0.42605 -0.0109,-2.4e-4 -0.004,-4.8e-4 h -0.001 l -0.93878,-0.0838 -0.92628,-0.10589 -0.92504,-0.12922 -0.005,-7.3e-4 -0.55569,-0.0921 z m 10.07316,-0.0934 -0.93836,0.0838 h -0.002 l -0.003,4.8e-4 -0.94003,0.0592 -0.005,4.9e-4 -0.94629,0.0359 -0.40478,0.005 0.005,0.42687 0.40479,-0.005 h 0.003 0.002 l 0.95712,-0.0362 0.002,-4.9e-4 h 0.003 l 0.95046,-0.0604 h 0.003 0.002 l 0.9442,-0.0842 h 0.002 l 0.003,-2.5e-4 0.15091,-0.0171 -0.0484,-0.42437 z"
         style="color:#000000;font-style:normal;font-variant:normal;font-weight:normal;font-stretch:normal;font-size:medium;line-height:normal;font-family:sans-serif;font-variant-ligatures:normal;font-variant-position:normal;font-variant-caps:normal;font-variant-numeric:normal;font-variant-alternates:normal;font-feature-settings:normal;text-indent:0;text-align:start;text-decoration:none;text-decoration-line:none;text-decoration-style:solid;text-decoration-color:#000000;letter-spacing:normal;word-spacing:normal;text-transform:none;writing-mode:lr-tb;direction:ltr;text-orientation:mixed;dominant-baseline:auto;baseline-shift:baseline;text-anchor:start;white-space:normal;shape-padding:0;clip-rule:nonzero;display:inline;overflow:visible;visibility:visible;opacity:1;isolation:auto;mix-blend-mode:normal;color-interpolation:sRGB;color-interpolation-filters:linearRGB;solid-color:#000000;solid-opacity:1;vector-effect:none;fill:#000000;fill-opacity:1;fill-rule:nonzero;stroke:none;stroke-width:0.42687109;stroke-linecap:butt;stroke-linejoin:miter;stroke-miterlimit:4;stroke-dasharray:3.41496885, 3.41496885;stroke-dashoffset:0;stroke-opacity:1;color-rendering:auto;image-rendering:auto;shape-rendering:auto;text-rendering:auto;enable-background:accumulate" />
    </g>
    <g
       id="g17">
      <!-- <animateTransform attributeName="transform"
attributeType="XML"
type="rotate"
from="0 50 50"
to="-360 50 50"
dur="10s"
repeatCount="indefinite" 
/>  -->
      <path
         style="color:#000000;font-style:normal;font-variant:normal;font-weight:normal;font-stretch:normal;font-size:medium;line-height:normal;font-family:sans-serif;font-variant-ligatures:normal;font-variant-position:normal;font-variant-caps:normal;font-variant-numeric:normal;font-variant-alternates:normal;font-feature-settings:normal;text-indent:0;text-align:start;text-decoration:none;text-decoration-line:none;text-decoration-style:solid;text-decoration-color:#000000;letter-spacing:normal;word-spacing:normal;text-transform:none;writing-mode:lr-tb;direction:ltr;text-orientation:mixed;dominant-baseline:auto;baseline-shift:baseline;text-anchor:start;white-space:normal;shape-padding:0;clip-rule:nonzero;display:inline;overflow:visible;visibility:visible;opacity:1;isolation:auto;mix-blend-mode:normal;color-interpolation:sRGB;color-interpolation-filters:linearRGB;solid-color:#000000;solid-opacity:1;vector-effect:none;fill:#000000;fill-opacity:1;fill-rule:nonzero;stroke:none;stroke-width:0.56880707;stroke-linecap:butt;stroke-linejoin:miter;stroke-miterlimit:4;stroke-dasharray:4.55045583, 4.55045583;stroke-dashoffset:0;stroke-opacity:1;color-rendering:auto;image-rendering:auto;shape-rendering:auto;text-rendering:auto;enable-background:accumulate"
         d="m 47.430992,197.0436 h -0.004 -0.003 l -1.26704,0.0805 h -0.003 l -0.004,6.7e-4 -1.25758,0.11165 -0.004,6.3e-4 h -0.003 l -1.24927,0.14276 -0.003,6.3e-4 -0.003,6.3e-4 -0.42883,0.06 0.0784,0.56325 0.42216,-0.0589 0.007,-0.001 1.23427,-0.14109 0.007,-6.3e-4 1.24372,-0.11054 h 0.003 l 0.004,-6.3e-4 1.25204,-0.0794 0.007,-6.3e-4 0.32107,-0.0117 -0.0216,-0.5688 z m 4.87652,0.55937 0.23275,0.008 0.007,6.3e-4 1.2526,0.0794 0.004,6.3e-4 h 0.003 l 1.24316,0.11054 0.007,6.3e-4 1.23482,0.14109 0.007,10e-4 0.50882,0.0711 0.0788,-0.56326 -0.51604,-0.0722 -0.004,-6.3e-4 -0.003,-6.6e-4 -1.24872,-0.14276 h -0.004 l -0.003,-6.3e-4 -1.25813,-0.11165 -0.003,-6.3e-4 h -0.004 l -1.26649,-0.0805 h -0.004 -0.003 l -0.23996,-0.009 z m -14.79953,0.94875 -0.003,0.001 -0.004,6.3e-4 -1.18538,0.32107 -0.003,9.9e-4 -0.003,6.3e-4 -1.17371,0.3494 -0.003,0.001 -0.003,0.001 -0.83154,0.26996 0.17553,0.54103 0.83155,-0.26996 v -6.7e-4 l 1.16039,-0.34495 0.007,-0.002 1.17205,-0.31717 0.005,-0.001 0.002,-6.7e-4 1.18205,-0.28829 -0.13498,-0.5527 z m 23.74602,0.28329 1.09595,0.26774 0.007,0.002 1.17205,0.31718 0.007,0.002 1.15982,0.34495 v 6.7e-4 l 0.91543,0.29718 0.17554,-0.54104 -0.91544,-0.29718 -0.003,-0.001 -0.003,-0.001 -1.17372,-0.34939 -0.003,-6.3e-4 -0.003,-10e-4 -1.18538,-0.32107 -0.003,-6.3e-4 -0.003,-9.9e-4 -1.10318,-0.26885 z m -31.82765,2.55908 -0.003,0.002 -0.003,0.001 -1.09373,0.51104 -0.003,0.001 -0.003,0.002 -1.07928,0.53659 -0.003,0.001 -0.003,0.002 -1.06429,0.56158 -0.003,0.002 -0.003,0.002 -0.24774,0.13831 0.27718,0.4966 0.24163,-0.13498 0.003,-0.001 0.003,-0.002 1.05206,-0.55492 0.006,-0.003 1.06707,-0.52992 1.08762,-0.50826 0.007,-0.003 0.58991,-0.25774 -0.2283,-0.5216 z m 40.40363,0.29551 0.50938,0.22275 0.003,0.002 0.003,10e-4 1.08762,0.50826 1.06706,0.52992 0.006,0.003 1.05206,0.55492 0.003,0.002 0.003,0.002 0.31829,0.17831 0.27774,-0.49659 -0.3244,-0.18164 -0.003,-0.002 -0.003,-0.002 -1.06429,-0.56159 -0.003,-0.002 -0.003,-10e-4 -1.07929,-0.53659 -0.003,-0.002 -0.003,-0.001 -1.09373,-0.51103 -0.003,-0.001 -0.003,-0.002 -0.51549,-0.22553 z m -48.77186,4.51157 -0.003,0.002 -0.003,0.002 -0.96542,0.70435 -0.003,0.002 -0.003,0.002 -0.9482,0.72712 -0.003,0.002 -0.003,0.002 -0.77879,0.62768 0.35662,0.44272 0.77934,-0.62714 0.93709,-0.71878 0.006,-0.004 0.95485,-0.69657 0.004,-0.003 7.4e-4,-6.4e-4 0.94765,-0.65712 -0.32383,-0.46716 z m 56.67851,-0.14275 0.87542,0.60658 7.4e-4,6.4e-4 0.004,0.003 0.95488,0.69657 0.005,0.004 0.93764,0.71878 0.002,0.001 0.003,0.003 0.84266,0.67879 0.35662,-0.44327 -0.84766,-0.68268 -0.003,-0.002 -0.002,-0.002 -0.94822,-0.72711 -0.003,-0.002 -0.003,-0.002 -0.96596,-0.70435 -0.003,-0.002 -0.003,-0.002 -0.88099,-0.61046 z m -63.08925,5.56253 -0.003,0.002 -0.002,0.002 -0.8332,0.85377 -0.002,0.002 -0.003,0.002 -0.81265,0.8732 -0.002,0.003 -0.002,0.002 -0.7921,0.89265 -0.002,0.003 -0.002,0.002 -0.35883,0.42439 0.43437,0.36717 0.35439,-0.41883 0.004,-0.005 0.78322,-0.88265 0.004,-0.005 0.80376,-0.86321 0.004,-0.005 0.82877,-0.84821 0.29275,-0.28607 -0.39773,-0.40661 z m 70.07324,0.17775 0.22996,0.22441 0.002,0.002 0.002,0.002 0.82377,0.84377 0.005,0.005 0.80322,0.86321 0.78766,0.88765 0.004,0.005 0.41105,0.48604 0.43437,-0.36717 -0.41549,-0.49159 -0.002,-0.002 -0.002,-0.003 -0.7921,-0.89265 -0.002,-0.002 -0.002,-0.003 -0.81267,-0.87321 -0.002,-0.002 -0.003,-0.002 -0.83321,-0.85377 -0.002,-0.002 -0.002,-0.002 -0.23497,-0.22941 z m -76.1790295,7.22119 -0.002,0.003 -0.002,0.003 -0.65824,1.00041 -0.002,0.003 -0.002,0.003 -0.6349,1.01707 -0.002,0.003 -0.002,0.003 -0.61102,1.03319 -0.002,0.003 -0.002,0.003 -0.0417,0.075 0.4966,0.27773 0.0383,-0.0694 0.003,-0.006 0.6038,-1.02152 0.001,-0.002 0.002,-0.004 0.62768,-1.00541 0.004,-0.006 0.65046,-0.9893 0.004,-0.006 0.49103,-0.70767 -0.4677,-0.32385 z m 82.0048495,-0.31718 0.44048,0.63546 0.004,0.006 0.65102,0.9893 0.003,0.006 0.627701,1.00541 0.002,0.004 7.4e-4,0.002 0.60379,1.02152 0.003,0.006 0.0816,0.1461 0.4966,-0.27719 -0.0849,-0.1522 -0.002,-0.003 -0.002,-0.003 -0.61104,-1.03318 -0.002,-0.003 -0.002,-0.003 -0.634901,-1.01708 -0.002,-0.003 -0.002,-0.003 -0.6588,-1.00041 -0.002,-0.003 -0.002,-0.003 -0.44494,-0.64104 z m -86.1275895,7.69556 -0.002,0.003 -0.002,0.003 -0.48437,1.10817 -0.002,0.003 -10e-4,0.003 -0.45882,1.12206 -0.001,0.003 -10e-4,0.003 -0.43161,1.1354 -0.002,0.003 -0.001,0.003 -0.2433,0.69101 0.53659,0.18886 0.24108,-0.68434 0.002,-0.007 0.42939,-1.12873 0.45326,-1.10929 6.3e-4,-0.002 0.002,-0.005 0.47938,-1.0954 0.002,-0.004 0.001,-0.002 0.0733,-0.15775 -0.51492,-0.24052 z m 90.6075105,0.15609 0.0367,0.0783 7.4e-4,0.003 0.002,0.003 0.47937,1.09539 0.002,0.005 7.4e-4,0.002 0.45271,1.10929 0.42938,1.12872 0.27273,0.77433 0.5366,-0.18886 -0.27273,-0.77433 -0.001,-0.003 -7.4e-4,-0.003 -0.43161,-1.1354 -0.002,-0.003 -7.4e-4,-0.003 -0.45827,-1.12206 -0.002,-0.003 -7.4e-4,-0.003 -0.48493,-1.10818 -0.002,-0.003 -7.4e-4,-0.003 -0.0395,-0.0844 z m -93.7448405,9.12867 -10e-4,0.004 -6.3e-4,0.003 -0.26329,1.20815 -6.3e-4,0.003 -6.3e-4,0.003 -0.23385,1.21926 -6.3e-4,0.003 -6.3e-4,0.003 -0.20109,1.21593 0.56103,0.0933 0.19998,-1.20871 10e-4,-0.007 0.23108,-1.20483 0.002,-0.007 0.25997,-1.19428 0.002,-0.007 0.19719,-0.80989 -0.55214,-0.13497 z m 96.7060705,-0.59602 0.17664,0.72434 0.002,0.007 0.26107,1.20149 0.231085,1.20483 7.39e-4,0.007 0.20164,1.21483 7.4e-4,0.003 v 0.004 l 0.009,0.0667 0.56325,-0.0789 -0.01,-0.0739 -7.4e-4,-0.003 v -0.003 l -0.20387,-1.22982 -7.4e-4,-0.003 -7.39e-4,-0.003 -0.23329,-1.21927 -7.5e-4,-0.003 -7.4e-4,-0.003 -0.26329,-1.20817 v -0.003 l -7.4e-4,-0.004 -0.17888,-0.73044 z m -97.9220005,9.31476 -6.3e-4,0.004 v 0.003 l -0.0484,1.27537 v 0.003 0.004 l -0.0167,1.28314 v 0.003 0.004 l 0.0167,1.28314 v 0.003 0.004 l 0.008,0.20384 0.56825,-0.0217 -0.007,-0.19664 -0.0167,-1.27592 v -0.003 -0.004 l 0.0167,-1.27592 0.0478,-1.26094 6.3e-4,-0.007 0.0311,-0.49548 -0.56769,-0.0361 z m 99.2745855,-0.37882 0.0261,0.40772 7.4e-4,0.007 0.0478,1.26094 v 0.007 l 0.0161,1.26871 v 0.004 0.003 l -0.0161,1.2687 v 0.007 l -0.0483,1.26759 -0.0795,1.2526 v 0.004 0.003 l -0.0634,0.71157 0.56658,0.0506 0.0639,-0.71878 7.4e-4,-0.004 v -0.003 l 0.0799,-1.26704 v -0.003 -0.004 l 0.0483,-1.27481 0.001,-0.004 v -0.003 l 0.0161,-1.28315 -0.284395,-0.003 0.284395,-0.004 -0.0161,-1.28315 v -0.004 l -0.001,-0.003 -0.0483,-1.27538 v -0.003 -0.004 l -0.0264,-0.41437 z m -98.9740755,9.01092 0.0356,0.30828 6.3e-4,0.004 v 0.003 l 0.17387,1.23927 v 0.004 l 0.001,0.003 0.2033,1.22926 6.3e-4,0.003 6.2e-4,0.004 0.23386,1.21872 6.3e-4,0.003 6.3e-4,0.004 0.10665,0.48938 0.55602,-0.12054 -0.10498,-0.48327 -0.23275,-1.21149 -0.001,-0.007 -0.20108,-1.21537 -0.001,-0.007 -0.17219,-1.2326 -0.0345,-0.30106 z m 98.0608805,3.90333 -7.4e-4,0.007 -0.25997,1.19428 -7.4e-4,0.003 v 0.004 l -0.28885,1.18318 v 0.002 l -7.4e-4,0.005 -0.2844,1.05097 0.54882,0.14886 0.28606,-1.05818 7.4e-4,-0.003 7.4e-4,-0.003 0.292165,-1.19705 v -0.003 l 7.4e-4,-0.003 0.26329,-1.20816 v -0.004 l 7.4e-4,-0.003 0.18552,-0.96876 -0.5588,-0.10665 z m -96.1372705,5.03649 0.33662,1.03762 10e-4,0.003 10e-4,0.003 0.40439,1.14873 10e-4,0.003 0.002,0.003 0.4316,1.13595 0.001,0.003 10e-4,0.003 0.38883,0.95099 0.52659,-0.21498 -0.38605,-0.94429 -0.003,-0.007 -0.4266,-1.12262 -0.002,-0.007 -0.39994,-1.13539 -0.002,-0.004 -6.3e-4,-0.002 -0.3344,-1.03041 z m 93.7137205,3.12622 -0.003,0.007 -0.45271,1.10929 -0.003,0.006 -0.47937,1.09539 -0.003,0.007 -0.50493,1.08095 -0.003,0.007 -0.20219,0.4066 0.50938,0.2533 0.20551,-0.41327 0.002,-0.003 7.4e-4,-0.003 0.51104,-1.09428 7.4e-4,-0.003 0.002,-0.003 0.48493,-1.10817 7.4e-4,-0.003 0.002,-0.003 0.45827,-1.12206 7.4e-4,-0.003 0.002,-0.003 0.1633,-0.4305 -0.53159,-0.20218 z m -90.1847805,5.30146 0.21497,0.4066 0.002,0.003 0.002,0.003 0.58602,1.04875 0.002,0.003 0.002,0.003 0.61101,1.03318 0.002,0.003 0.002,0.003 0.6349,1.01707 0.002,0.003 0.002,0.003 0.26941,0.4094 0.47494,-0.31274 -0.26553,-0.40328 -0.002,-0.004 -0.002,-0.002 -0.63101,-1.01096 -0.6038,-1.02097 -0.003,-0.006 -0.57992,-1.03708 -0.003,-0.006 -0.21163,-0.40106 z m 85.8270795,3.2162 h -7.4e-4 l -0.654349,0.99485 -0.004,0.006 -0.67379,0.97208 v 7.4e-4 l -0.003,0.004 -0.67935,0.93097 0.45993,0.33551 0.68268,-0.93653 0.002,-0.003 0.002,-0.003 0.68211,-0.98319 0.002,-0.003 0.002,-0.003 0.6588,-1.0004 0.002,-0.003 0.002,-0.003 0.52826,-0.84598 -0.4827,-0.30107 z m -80.81835,4.43214 0.58823,0.73045 0.002,0.003 0.002,0.002 0.77044,0.91153 0.002,0.003 0.002,0.002 0.79211,0.89263 0.002,0.003 0.002,0.002 0.81266,0.87321 0.003,0.002 0.002,0.003 0.0233,0.0233 0.40662,-0.39716 -0.0183,-0.0189 -0.004,-0.005 -0.80377,-0.86321 -0.004,-0.005 -0.78322,-0.88207 -0.004,-0.005 -0.76155,-0.90098 -0.004,-0.006 -0.5838,-0.7249 z m 75.75963,2.16692 -0.803219,0.8632 -0.005,0.005 -0.82376,0.84376 -0.84822,0.82877 -0.005,0.004 -0.51549,0.47992 0.38773,0.41604 0.51992,-0.48436 0.003,-0.002 0.002,-0.002 0.85377,-0.83321 0.002,-0.002 0.002,-0.003 0.8332,-0.85322 0.003,-0.003 0.002,-0.002 0.81267,-0.8732 0.002,-0.002 0.002,-0.003 0.173861,-0.19553 -0.42549,-0.37772 z m -69.45166,4.44157 0.14109,0.12498 0.002,0.002 0.003,0.002 0.91153,0.77044 0.002,0.002 0.003,0.002 0.92987,0.74878 0.003,0.002 0.003,0.002 0.94819,0.72654 0.003,0.002 0.003,0.002 0.62992,0.45936 0.33551,-0.45936 -0.62492,-0.45549 -0.006,-0.004 -0.93708,-0.71823 -0.005,-0.004 h -3.3e-4 l -0.91931,-0.74045 -0.006,-0.004 -0.90097,-0.76155 -0.005,-0.004 -0.13553,-0.12053 z m 62.442671,1.92916 -3.71e-4,-7.4e-4 -0.95985,0.70045 -0.004,0.003 h -7.4e-4 l -0.97819,0.67768 h 3.4e-4 l -0.98931,0.65046 -0.006,0.004 -0.20942,0.13052 0.301061,0.48271 0.21553,-0.13441 0.003,-0.002 0.003,-0.002 1.0004,-0.65824 0.003,-0.002 0.003,-0.002 0.983189,-0.68156 0.003,-0.002 0.003,-0.002 0.96598,-0.70434 0.003,-0.002 0.003,-0.002 0.561031,-0.43049 -0.34607,-0.45105 z m -55.03485,3.42951 0.56603,0.33439 0.003,0.002 0.003,0.002 1.04928,0.58602 0.003,0.002 0.003,0.002 1.06429,0.5616 0.003,0.002 0.003,0.002 1.07929,0.53603 0.003,0.002 0.003,0.002 0.25607,0.11943 0.24053,-0.51549 -0.24997,-0.11665 -0.006,-0.003 -1.06708,-0.53048 -1.05818,-0.55824 -0.003,-0.002 -0.003,-7.4e-4 -1.0365,-0.57936 -0.006,-0.003 -0.55992,-0.33162 z m 46.88991,1.51646 -0.006,0.003 -1.08151,0.50492 -0.003,7.4e-4 -0.003,0.002 -1.09539,0.47938 -0.005,0.002 -0.002,7.4e-4 -0.85321,0.34828 0.21496,0.52659 0.85987,-0.35105 0.003,-7.4e-4 0.003,-0.002 1.10874,-0.48493 0.003,-7.4e-4 0.003,-0.002 1.09374,-0.51049 0.003,-0.002 0.003,-0.002 1.07874,-0.53604 -0.25329,-0.50937 z m -38.63832,2.4052 0.0106,0.004 0.003,7.4e-4 0.003,0.002 1.14874,0.40439 0.003,7.4e-4 0.003,7.4e-4 1.16151,0.37717 0.003,7.4e-4 h 0.003 l 1.17373,0.3494 0.003,7.4e-4 0.003,7.4e-4 0.845999,0.22941 0.1483,-0.54936 -0.838769,-0.22719 -0.007,-0.002 -1.16039,-0.34495 -0.007,-0.002 -1.14817,-0.37273 -0.002,-7.4e-4 -0.004,-0.002 -1.1354,-0.39994 h -0.002 l -0.004,-0.002 -0.004,-0.002 z m 30.74113,0.59436 -0.007,0.002 -1.17206,0.31717 -1.19038,0.29051 -0.007,0.002 -1.19428,0.25996 -0.007,0.002 -0.23109,0.0438 0.10722,0.55881 0.23773,-0.0455 0.004,-10e-4 0.003,-7.4e-4 1.20815,-0.26275 h 0.003 l 0.004,-7.4e-4 1.19705,-0.29218 0.003,-7.4e-4 0.003,-7.4e-4 1.18539,-0.32109 0.003,-7.4e-4 0.003,-7.4e-4 0.58602,-0.17441 -0.1622,-0.54494 z m -21.90074,1.74475 0.74712,0.12331 0.003,7.4e-4 0.004,7.4e-4 1.23926,0.17331 h 0.003 l 0.003,7.4e-4 1.24926,0.14277 0.003,7.4e-4 h 0.004 l 1.25761,0.11222 h 0.004 0.003 l 0.0222,0.002 0.0356,-0.5677 h -0.0145 l -0.005,-7.4e-4 h -0.002 l -1.25092,-0.11164 -1.23428,-0.1411 -1.2326,-0.1722 -0.007,-7.4e-4 -0.74046,-0.12276 z m 13.42251,-0.12442 -1.25037,0.11163 h -0.003 l -0.004,10e-4 -1.25259,0.0788 -0.007,7.4e-4 -1.26093,0.0478 -0.53936,0.007 0.007,0.5688 0.53937,-0.007 h 0.004 0.003 l 1.27538,-0.0482 0.003,-7.4e-4 h 0.004 l 1.2665,-0.0806 h 0.004 0.003 l 1.25816,-0.11221 h 0.003 0.004 l 0.20109,-0.0228 -0.0645,-0.56548 z"
         id="path16-1"
         inkscape:connector-curvature="0" />
    </g>
  </g>
</svg>
