<?xml version="1.0" encoding="UTF-8" standalone="no"?>
<!-- Created with Inkscape (http://www.inkscape.org/) -->

<svg
   xmlns:dc="http://purl.org/dc/elements/1.1/"
   xmlns:cc="http://creativecommons.org/ns#"
   xmlns:rdf="http://www.w3.org/1999/02/22-rdf-syntax-ns#"
   xmlns:svg="http://www.w3.org/2000/svg"
   xmlns="http://www.w3.org/2000/svg"
   xmlns:sodipodi="http://sodipodi.sourceforge.net/DTD/sodipodi-0.dtd"
   xmlns:inkscape="http://www.inkscape.org/namespaces/inkscape"
   version="1.1"
   id="svg3721"
   width="2048"
   height="1448"
   viewBox="0 0 2048 1448"
   sodipodi:docname="Orion logo.svg"
   inkscape:version="0.92.4 (5da689c313, 2019-01-14)">
  <metadata
     id="metadata3727">
    <rdf:RDF>
      <cc:Work
         rdf:about="">
        <dc:format>image/svg+xml</dc:format>
        <dc:type
           rdf:resource="http://purl.org/dc/dcmitype/StillImage" />
        <dc:title></dc:title>
      </cc:Work>
    </rdf:RDF>
  </metadata>
  <defs
     id="defs3725" />
  <sodipodi:namedview
     pagecolor="#ffffff"
     bordercolor="#666666"
     borderopacity="1"
     objecttolerance="10"
     gridtolerance="10"
     guidetolerance="10"
     inkscape:pageopacity="0"
     inkscape:pageshadow="2"
     inkscape:window-width="1366"
     inkscape:window-height="705"
     id="namedview3723"
     showgrid="false"
     inkscape:zoom="1.480663"
     inkscape:cx="771.42685"
     inkscape:cy="643.57843"
     inkscape:window-x="-8"
     inkscape:window-y="-8"
     inkscape:window-maximized="1"
     inkscape:current-layer="svg3721" />
  <g
     id="g3757">
    <g
       transform="translate(-6.0783579)"
       id="g3752">
      <path
         inkscape:connector-curvature="0"
         id="path3733"
         d="m 672.76087,977.59336 c 0,-0.38183 0.71828,-1.23677 1.59618,-1.89986 0.87791,-0.66309 3.9608,-3.25399 6.85088,-5.75757 9.37299,-8.11949 20.97854,-16.89396 35.66333,-26.96354 7.25898,-4.97759 28.17328,-17.22716 35.21079,-20.62306 2.27077,-1.09574 4.32235,-2.29318 4.55907,-2.66096 0.23672,-0.36779 0.13082,-1.60167 -0.23532,-2.74198 -0.36615,-1.1403 -1.14775,-3.73353 -1.73689,-5.76273 l -1.07115,-3.68946 -4.82733,2.32757 c -12.16575,5.86594 -31.50498,17.3643 -45.93256,27.30973 -11.44854,7.89188 -26.53203,20.26583 -39.1047,32.08005 l -8.02514,7.54102 -4.00566,-0.58418 c -13.64786,-1.99038 -21.31074,-3.81776 -21.54793,-5.13856 -0.17988,-1.00169 16.0233,-17.23027 25.89698,-25.93758 15.31823,-13.50867 29.87385,-24.38954 48.12321,-35.9739 15.23852,-9.67313 23.50621,-14.31655 36.30668,-20.39105 7.54077,-3.57851 7.88533,-3.82848 7.56503,-5.48829 -0.18458,-0.95646 -0.69103,-3.68846 -1.12543,-6.07111 -0.43441,-2.38265 -1.13175,-4.32744 -1.54963,-4.32175 -1.39318,0.019 -20.69135,9.33105 -29.83423,14.39612 -17.32498,9.59787 -34.03383,20.88131 -50.79672,34.30289 -9.99158,7.99999 -31.61658,28.43414 -40.59249,38.35716 -4.93435,5.455 -7.38274,7.70414 -8.131,7.46931 -4.37829,-1.37407 -18.26383,-7.42768 -19.93905,-8.69273 -0.79803,-0.60264 0.97384,-3.16493 5.61384,-8.1181 l 1.44976,-1.54762 -3.97873,-2.46928 c -2.1883,-1.35811 -4.06631,-2.46929 -4.17336,-2.46929 -0.10705,0 -3.48056,-1.75835 -7.4967,-3.90745 -10.55963,-5.65062 -31.73006,-15.26966 -37.93349,-17.23554 -2.01101,-0.63729 -3.69906,-2.18829 -7.96854,-7.3216 -4.79321,-5.76298 -13.58427,-18.05168 -15.80249,-22.08972 -0.4403,-0.80151 -0.63527,-1.71406 -0.43328,-2.02789 0.47284,-0.73463 18.68969,5.14497 34.05575,10.99171 14.25758,5.42496 37.2011,16.34228 50.18861,23.88147 l 9.35729,5.43187 4.51155,-4.27332 c 2.48135,-2.35032 4.51155,-4.44902 4.51155,-4.66378 0,-0.21476 -1.57904,-1.34521 -3.50898,-2.51212 -1.92995,-1.1669 -4.56168,-2.78451 -5.84831,-3.59469 -4.78031,-3.01014 -16.0529,-8.9028 -27.49115,-14.37079 -20.94429,-10.0123 -51.17688,-20.60464 -72.17812,-25.28843 -1.29526,-0.28887 -2.10556,-1.18756 -3.10865,-3.44776 -1.82371,-4.1092 -6.83605,-19.30037 -6.83605,-20.71835 0,-1.07322 0.30429,-1.06747 5.8483,0.11053 45.10957,9.58501 89.53366,27.3941 124.98876,50.10651 2.66631,1.70803 5.26014,3.25743 5.76408,3.44312 0.50595,0.18643 2.97423,-1.31343 5.51202,-3.34939 2.52768,-2.02786 4.74168,-3.79738 4.91998,-3.93227 0.97993,-0.74134 -20.69346,-14.26133 -34.60092,-21.58428 -31.61631,-16.64751 -73.14982,-30.58768 -109.33357,-36.69635 -2.94381,-0.49699 -5.58429,-1.1263 -5.86774,-1.39848 -0.63483,-0.60957 -2.57794,-15.35285 -2.57794,-19.55995 0,-3.47744 -0.38369,-3.3549 6.68378,-2.13463 2.75706,0.47603 5.16322,0.72188 5.34703,0.54632 0.57553,-0.54969 0.0587,-29.67482 -0.66396,-37.41966 -0.37879,-4.05933 -1.15596,-10.91845 -1.72704,-15.2425 l -1.03832,-7.8619 2.14126,-5.61571 c 3.58343,-9.39788 13.21432,-27.7575 14.56076,-27.7575 0.60301,0 4.88531,20.37424 6.40741,30.48507 2.99646,19.90456 3.853,30.94671 3.95641,51.00432 l 0.0909,17.6312 5.92405,1.45502 c 3.25822,0.80026 6.19073,1.29676 6.51668,1.10332 0.98389,-0.58389 0.67837,-36.14965 -0.40483,-47.12669 -1.0828,-10.973 -2.06488,-19.29095 -2.71052,-22.95732 -1.85882,-10.55572 -5.44974,-27.17767 -7.64094,-35.3691 -2.85486,-10.6724 -2.8575,-10.60409 0.55443,-14.3919 5.73953,-6.37185 13.66729,-14.56527 14.093,-14.56527 1.07458,0 3.54836,7.33589 8.11584,24.06717 8.96548,32.84174 13.56487,72.14477 11.97921,102.36567 -0.34263,6.53022 -0.63326,12.6421 -0.64583,13.58195 -0.0204,1.52496 0.46254,1.88604 4.48868,3.35596 2.48135,0.90593 5.25408,1.72539 6.16161,1.82103 1.53364,0.16162 1.69386,-0.0978 2.27074,-3.67685 0.98944,-6.13861 0.89822,-48.83289 -0.12341,-57.7612 -3.52491,-30.80509 -9.00354,-55.035 -18.57477,-82.14925 l -3.6248,-10.26865 2.8515,-2.43463 c 5.0678,-4.3269 15.83588,-11.02584 16.57793,-10.31332 0.37314,0.3583 1.42595,2.63035 2.33957,5.049 0.91362,2.41865 1.81471,4.54501 2.00242,4.72526 1.26589,1.21552 28.2858,-14.82981 42.98281,-25.52463 4.16956,-3.03414 8.53394,-6.01279 9.69864,-6.61923 3.10793,-1.61825 15.2183,-3.10903 28.17005,-3.46771 l 11.36243,-0.31467 -4.34446,3.93114 c -19.78544,17.90311 -48.68681,37.88673 -73.67962,50.94517 -3.2116,1.67802 -5.98858,3.28292 -6.17108,3.56646 -0.44074,0.68477 2.22594,10.44301 3.07792,11.26312 0.44417,0.42756 3.15112,-0.62057 8.10935,-3.13993 28.85193,-14.66015 56.47875,-34.288 81.15229,-57.65571 l 8.1444,-7.71337 3.88641,0.43712 c 9.22958,1.03809 22.26678,4.05735 22.26678,5.15673 0,1.38197 -26.70297,26.79872 -36.99271,35.21086 -24.35063,19.90728 -48.25804,35.29298 -74.12511,47.70351 -3.95178,1.89599 -7.18506,3.61772 -7.18506,3.82606 0,0.20835 0.48869,2.94372 1.08599,6.0786 1.07564,5.64548 1.1027,5.69598 2.8406,5.30098 2.98726,-0.67897 25.32592,-11.93601 35.18669,-17.73149 27.68763,-16.27288 54.53607,-37.50363 76.73003,-60.67527 4.96501,-5.18372 10.28207,-10.94118 11.81569,-12.79435 1.53362,-1.85317 3.22303,-3.36941 3.75425,-3.36941 2.19403,0 20.97691,8.23533 20.97691,9.19731 0,0.56571 -1.95693,3.03963 -6.50349,8.2216 -0.81784,0.93213 -0.5701,1.28262 2.15483,3.0485 1.6934,1.09741 3.17106,1.99528 3.28369,1.99528 0.11262,0 2.87967,1.48788 6.14898,3.30641 8.33332,4.63532 22.27637,11.23658 33.6819,15.94653 5.33032,2.20117 10.54157,4.76246 11.58057,5.69176 5.5701,4.982 22.07655,28.3589 20.62525,29.21006 -0.25183,0.14769 -4.51826,-1.01438 -9.48097,-2.58238 -26.93529,-8.51038 -52.00629,-19.44354 -75.10646,-32.75302 -5.09918,-2.93796 -9.46903,-5.34175 -9.71079,-5.34175 -0.60444,0 -8.75565,7.94216 -8.75565,8.53111 0,0.77782 13.00883,8.63794 23.39322,14.13451 24.87192,13.16497 51.51399,23.4023 79.79387,30.66111 4.00117,1.02702 7.39552,1.8673 7.543,1.8673 0.70097,0 7.29609,17.91437 8.47527,23.02143 0.34016,1.47321 0.252,1.50863 -2.78201,1.11763 -5.26059,-0.67795 -24.01762,-5.34178 -35.39653,-8.80115 -14.2058,-4.31878 -21.88566,-7.08912 -40.92415,-14.76244 -7.90069,-3.18432 -24.63958,-11.39326 -36.15438,-17.73052 -3.63108,-1.99839 -13.15911,-7.75313 -17.44627,-10.5372 -2.09357,-1.35956 -4.214,-2.47193 -4.71204,-2.47193 -0.49805,0 -2.90764,1.64616 -5.35466,3.65814 -3.42847,2.81895 -4.28258,3.85082 -3.72317,4.49805 0.39927,0.46196 4.67217,3.3913 9.49534,6.50966 26.2873,16.99574 52.94495,29.13427 88.97475,40.51455 10.75204,3.39611 29.72781,7.92147 43.28417,10.32243 9.00843,1.59549 8.03915,0.44061 9.12342,10.87031 1.18126,11.36251 1.25536,12.84402 0.6601,13.19728 -0.50374,0.29895 -6.05175,-0.41773 -10.4586,-1.35102 l -1.50385,-0.31848 0.008,15.25477 c 0.007,14.14273 0.93126,28.13893 2.70003,40.90168 l 0.72631,5.24081 -3.40787,8.26039 c -3.05648,7.40863 -10.40509,21.78985 -12.23048,23.93505 -0.38818,0.45619 -0.94512,0.59962 -1.23764,0.31874 -1.36729,-1.3129 -6.43417,-29.39535 -8.27694,-45.87376 -1.10497,-9.88073 -2.26822,-35.07693 -2.11188,-45.74353 l 0.10313,-7.03626 -5.92844,-1.49748 c -3.26065,-0.82361 -6.11796,-1.31495 -6.34959,-1.09187 -0.23163,0.22308 -0.40799,10.1282 -0.39191,22.01135 0.0221,16.32615 0.31792,24.03661 1.21064,31.55352 2.28738,19.26038 5.38201,35.48393 10.19076,53.42489 l 2.36415,8.82041 -4.22388,4.97012 c -8.97646,10.56237 -14.58371,15.49926 -14.58371,12.84023 0,-0.44551 -0.76588,-3.11697 -1.70195,-5.93656 -7.73807,-23.30823 -13.40385,-51.63098 -16.04672,-80.21611 -0.97807,-10.57879 -1.2125,-39.08269 -0.40486,-49.22648 l 0.44465,-5.58471 -5.90769,-2.02918 c -3.24924,-1.11605 -6.13639,-1.77979 -6.41591,-1.47499 -0.88164,0.96137 -2.06796,18.69848 -2.05863,30.77919 0.023,29.71451 4.49694,62.14326 12.43198,90.1108 1.48248,5.2251 9.3495,29.04442 10.63074,32.18713 0.31829,0.78073 -0.7694,1.97016 -4.12568,4.51158 -6.84345,5.18193 -14.04701,9.70612 -14.77065,9.27668 -0.35305,-0.20953 -1.3308,-2.19213 -2.17278,-4.40578 -2.61704,-6.88053 -1.77081,-6.65944 -9.50307,-2.48289 -14.42152,7.78971 -23.90558,13.67026 -36.26032,22.48301 -4.7789,3.40883 -9.0845,6.42998 -9.56801,6.71367 -3.21024,1.88349 -38.88938,4.72853 -38.88938,3.10102 z m 11.11457,-97.93692 c 16.24516,-10.57907 32.97867,-19.33811 54.58603,-28.57265 l 4.54402,-1.94203 -0.53375,-6.60447 c -0.9662,-11.95533 -0.5097,-48.71528 0.71132,-57.2793 0.60183,-4.22116 1.09424,-8.18286 1.09424,-8.80377 0,-0.8066 -2.3377,-2.22719 -8.18763,-4.97551 -17.95737,-8.43645 -36.69886,-19.2674 -51.66054,-29.85529 -3.22783,-2.28423 -6.19616,-3.96366 -6.59629,-3.73208 -0.40013,0.23158 -4.18637,2.62881 -8.41386,5.32716 -17.53179,11.19032 -37.29062,21.54998 -52.6857,27.62337 l -5.56506,2.19543 0.39299,3.52985 c 0.21615,1.94142 0.56809,12.33843 0.78207,23.10448 0.36438,18.33177 -0.4282,35.15125 -2.117,44.92537 l -0.38811,2.24627 12.24548,5.89865 c 15.38253,7.40977 30.96323,16.36786 43.38599,24.94468 5.2968,3.65699 9.97017,6.66085 10.38526,6.67525 0.41509,0.0144 4.02433,-2.10302 8.02054,-4.70541 z m 765.15516,64.71644 c -19.1483,-4.03764 -35.2258,-18.90857 -40.9134,-37.84304 -7.2627,-24.17774 2.1067,-50.06557 22.9184,-63.32401 9.7559,-6.21511 18.0246,-8.55 29.7428,-8.39863 12.7876,0.16519 23.0077,3.77756 33.2906,11.76694 14.3359,11.13826 22.9488,32.58722 20.2099,50.32883 -3.7034,23.98835 -19.4502,41.74691 -41.8038,47.14442 -6.2835,1.51721 -17.0819,1.66713 -23.4445,0.32549 z m 25.7838,-5.75592 c 15.3258,-5.28169 26.4379,-16.19268 32.0554,-31.47531 12.0734,-32.8456 -12.5323,-68.37762 -47.3047,-68.31092 -13.729,0.0263 -28.5538,7.17411 -37.4192,18.04165 -20.3844,24.98795 -13.7795,61.70971 13.9642,77.63874 8.6076,4.94202 14.7205,6.38684 25.6709,6.06739 6.6149,-0.19298 8.8991,-0.53676 13.0334,-1.96155 z m -528.53108,4.4819 c -8.40654,-1.83715 -19.57113,-6.85194 -26.60068,-11.94818 -3.78667,-2.74524 -4.54838,-4.53024 -2.40353,-5.63247 0.98177,-0.50453 2.02276,-0.0579 5.17993,2.22252 4.79793,3.46551 12.35208,7.29309 18.65555,9.45251 17.43034,5.97123 37.15305,2.60831 48.21609,-8.22134 4.95126,-4.84681 6.93915,-9.2409 6.89728,-15.24599 -0.0869,-12.47069 -7.82935,-18.24084 -32.05434,-23.88896 -16.55294,-3.85936 -20.63904,-5.07368 -26.33506,-7.82632 -9.43307,-4.55861 -13.76761,-11.11344 -13.76761,-20.81983 0,-4.43858 0.28879,-5.75999 2.02015,-9.24341 6.1936,-12.4613 25.34289,-19.18441 43.63179,-15.31864 9.72142,2.05484 23.54797,10.05487 23.05957,13.34224 -0.3361,2.26217 -2.75837,2.02268 -5.63996,-0.5576 -3.19187,-2.85812 -11.82534,-6.97496 -17.62185,-8.40291 -5.30208,-1.30615 -15.07883,-1.45618 -20.05134,-0.30769 -13.31804,3.07602 -22.16328,12.24877 -21.14129,21.92408 0.96878,9.17173 6.46822,14.48917 19.15058,18.51681 2.38152,0.75633 9.14235,2.49583 15.02408,3.86557 14.42293,3.35883 20.62866,5.32018 25.39836,8.02728 12.22046,6.93586 16.22746,19.98971 9.85366,32.10131 -3.87566,7.36464 -14.05267,14.5699 -24.55797,17.38692 -5.50261,1.47553 -21.2514,1.81148 -26.91341,0.5741 z m 621.71068,-0.26061 c -7.2957,-1.69842 -15.2788,-5.04115 -21.6839,-9.07967 -5.9775,-3.76891 -8.1522,-5.88427 -7.5635,-7.35728 0.7117,-1.78111 2.1901,-1.31085 8.1525,2.59319 10.7121,7.01396 20.7815,10.50101 31.848,11.0289 14.4884,0.69112 29.1521,-4.861 35.5967,-13.47803 3.0457,-4.07234 5.0587,-10.28991 4.6338,-14.31259 -1.2293,-11.63879 -8.4684,-16.73404 -31.5283,-22.19109 -23.1475,-5.47781 -28.1281,-7.34633 -34.1439,-12.8095 -5.0062,-4.54633 -6.617,-8.34309 -6.63,-15.62772 -0.01,-4.91505 0.2503,-6.30232 1.7383,-9.30597 3.6428,-7.35281 12.7329,-13.59498 22.9328,-15.74778 6.0698,-1.28109 17.5538,-0.98622 23.5313,0.6042 9.0793,2.41574 21.7255,10.62535 20.6085,13.37866 -0.7245,1.786 -2.8358,1.31849 -6.2081,-1.37464 -7.6101,-6.07759 -16.6972,-9.10915 -27.5581,-9.19375 -7.5937,-0.0592 -12.2958,0.88734 -17.5398,3.53066 -8.8923,4.48224 -13.1708,10.28421 -13.1708,17.86053 0,7.37182 3.3144,12.37653 10.9877,16.59107 3.6621,2.01139 14.1592,5.11144 28.4465,8.4009 16.732,3.8523 24.4333,7.73156 29.2354,14.72627 2.3723,3.45533 3.5178,7.58228 3.5079,12.63868 -0.026,13.54 -11.3335,24.84791 -29.0672,29.06891 -6.8707,1.63537 -19.2278,1.66188 -26.1258,0.056 z m -510.5101,-0.42061 c -0.2232,-0.55834 -0.4057,-23.8028 -0.4057,-51.65433 v -50.63916 l -19.2159,-0.17029 -19.2159,-0.17029 v -1.60448 -1.60448 l 40.3982,-0.1655 c 23.5427,-0.0965 40.6512,0.0774 41.0046,0.41673 0.3335,0.32024 0.4058,1.18893 0.1607,1.93044 -0.4389,1.32808 -0.7291,1.34818 -19.4493,1.34818 h -19.0038 v 50.89403 c 0,38.72852 -0.1916,51.07812 -0.802,51.66418 -1.1323,1.08727 -2.9909,0.95606 -3.4709,-0.24503 z m 108.8673,0.40685 c -9.005,-1.86718 -16.1028,-5.59754 -22.6956,-11.92814 -8.4447,-8.10876 -12.1857,-16.23733 -13.1342,-28.53816 -0.6192,-8.03061 -0.7171,-62.61122 -0.1163,-64.81743 0.2774,-1.01845 0.8053,-1.30756 2.1201,-1.16113 l 1.7506,0.19498 0.3708,35.9403 c 0.3151,30.54096 0.5301,36.37418 1.4313,38.82836 5.7869,15.75893 17.8381,25.42323 34.4925,27.66074 19.761,2.65489 39.6662,-11.24335 44.2118,-30.8697 0.398,-1.71861 0.6755,-16.44535 0.6852,-36.36915 0.01,-18.4146 0.1989,-33.93792 0.4221,-34.49626 0.6474,-1.62021 3.5106,-1.27736 3.9686,0.47523 0.2143,0.81973 0.2726,16.92066 0.1295,35.77985 -0.231,30.46389 -0.3921,34.71905 -1.4438,38.14018 -4.336,14.10544 -15.5425,25.3288 -29.7952,29.84004 -4.8522,1.53584 -17.7041,2.29343 -22.3974,1.32029 z m 89.3372,-0.49224 c -0.7707,-1.38299 -1.1233,-100.38479 -0.3703,-103.99271 l 0.4354,-2.08582 h 15.216 c 14.0877,0 15.695,0.1195 21.6755,1.61157 21.1316,5.27205 36.7102,21.15761 41.0916,41.90136 1.041,4.92832 0.881,15.98932 -0.3099,21.42541 -3.5003,15.97788 -15.6448,30.49486 -31.3229,37.44184 -8.7506,3.87742 -11.5774,4.32634 -29.2436,4.64417 -15.7811,0.2839 -16.5087,0.24383 -17.1718,-0.94582 z m 33.9853,-4.00861 c 25.0372,-5.93449 41.9824,-27.38695 40.5759,-51.36843 -1.3346,-22.75371 -18.6992,-41.58198 -42.3581,-45.92863 -3.1668,-0.58179 -9.3143,-0.92212 -16.657,-0.92212 h -11.6378 v 49.31095 c 0,27.12102 0.2256,49.53502 0.5013,49.80889 0.7217,0.71694 25.9987,-0.0528 29.5757,-0.90066 z m 73.8472,4.35196 c -0.1852,-0.46599 -0.2591,-24.52935 -0.1641,-53.47412 l 0.1727,-52.62687 h 1.6709 1.6709 v 53.26866 53.26865 l -1.5068,0.20547 c -0.8287,0.113 -1.6584,-0.17581 -1.8436,-0.64179 z"
         style="fill:#8b7333;stroke-width:0.65494955" />
      <path
         style="fill:#666666;stroke-width:0.67537314"
         d="m 680.63999,644.9696 -5,0.0195 c -7.067,0.0278 -20.97223,1.10772 -26.95119,2.09375 -4.60478,0.7594 -5.74048,1.29905 -12.49414,5.91993 -11.96989,8.18982 -20.46972,13.74428 -27.76172,18.14648 -7.74719,4.67701 -17.11443,9.61128 -18.25196,9.61328 -0.41995,7.8e-4 -1.6353,-2.12367 -2.70117,-4.72265 -1.20608,-2.94085 -2.32809,-4.72752 -2.9707,-4.72852 -1.3112,-0.003 -12.33992,7.17394 -15.67578,10.20117 l -2.52344,2.29102 4.0918,11.81836 c 9.91498,28.63593 16.41203,59.21669 18.29297,86.11133 0.73911,10.56819 0.38908,51.524 -0.46289,54.19726 -0.31104,0.97595 -1.02239,1.51953 -1.98829,1.51953 -1.79109,0 -8.97753,-2.39715 -10.18164,-3.39648 -0.65861,-0.54659 -0.76663,-5.01296 -0.48437,-20.09571 0.47567,-25.41729 -1.08487,-44.87523 -5.5625,-69.37109 -3.02776,-16.56406 -10.43262,-44.86605 -13.13477,-50.19922 l -1.14062,-2.25 -7.81836,8.40625 c -4.30054,4.6234 -8.01579,9.02484 -8.25586,9.78125 -0.24379,0.76811 0.75335,6.24983 2.25976,12.41602 8.04094,32.91385 10.14163,48.80229 10.67188,80.75781 0.34511,20.79766 0.28669,22.47586 -0.78906,22.88867 -0.63844,0.24499 -3.67235,-0.0823 -6.74219,-0.72656 l -5.58203,-1.17188 -0.42383,-20.70312 c -0.43532,-21.28051 -0.87981,-27.34907 -3.20703,-43.66602 -1.47508,-10.34233 -5.81043,-32.48274 -6.65625,-33.99414 -0.90156,-1.61099 -9.66552,14.761 -14.88672,27.81055 l -1.57812,3.94531 1.15429,9.38281 c 1.58505,12.86815 2.39686,26.45046 2.41406,40.38868 l 0.0156,11.74023 -2.5332,-0.42578 c -1.39295,-0.23407 -4.17441,-0.6253 -6.18164,-0.86914 l -3.6504,-0.44336 0.48438,6.68945 c 0.26557,3.67954 0.84516,8.66287 1.28906,11.07422 l 0.80664,4.38477 13.8418,2.78515 c 42.96168,8.64375 83.72208,24.09956 118.18555,44.81446 12.35876,7.42847 16.90782,10.56333 17.3789,11.97656 0.29366,0.881 -8.51194,7.61991 -9.96875,7.62891 -0.5674,0.004 -1.63058,-0.41375 -2.36328,-0.92579 -3.52954,-2.46658 -17.7944,-10.86042 -25.64648,-15.09179 -28.26254,-15.23025 -64.14309,-28.54097 -97.11914,-36.02735 -9.42823,-2.14045 -11.27735,-2.35134 -11.27735,-1.29101 0,1.19283 4.83046,15.70148 6.44532,19.35937 1.33578,3.02574 1.89734,3.5975 4.13476,4.19727 32.22575,8.63858 51.84749,15.82993 77.55664,28.42773 12.78817,6.26637 28.25137,14.8982 30.36328,16.94922 0.71316,0.69259 -6.56068,8.47166 -8.49609,9.08594 -0.66955,0.2125 -4.54586,-1.60556 -9.47461,-4.44141 -10.24568,-5.89503 -28.13307,-14.70934 -40.75781,-20.08398 -16.24772,-6.91702 -42.34152,-15.78153 -43.38477,-14.73828 -0.86678,0.86678 15.08147,22.95176 19.86719,27.51172 1.67344,1.59451 4.82154,3.34568 8.95703,4.98242 13.4556,5.32547 42.36728,19.5564 47.31836,23.29101 l 1.60742,1.21289 -3.53906,3.87305 c -1.94644,2.12973 -3.44516,4.36146 -3.33008,4.95899 0.19771,1.02663 13.99654,7.50345 18.17969,8.5332 1.61788,0.39826 3.20359,-0.98678 17.56055,-15.34375 8.67971,-8.67972 19.00642,-18.59791 22.94921,-22.04102 15.03182,-13.12679 32.44822,-25.73687 50.53712,-36.59179 10.7977,-6.47962 36.6571,-19.56769 38.6641,-19.56836 1.5243,-7.6e-4 1.7168,0.39833 2.914,6.08984 0.8114,3.85717 0.8544,5.10088 0.207,5.88086 -0.4514,0.54397 -5.8939,3.52983 -12.0957,6.63477 -24.159,12.09528 -50.4294,29.4177 -72.1992,47.60937 -10.89429,9.10362 -32.52813,30.30431 -32.27341,31.62695 0.23402,1.21516 3.94822,2.22743 15.51563,4.23047 l 8.57031,1.48438 4.59957,-4.1875 c 27.1738,-24.73465 40.0668,-34.55844 65.0469,-49.55664 12.0259,-7.22044 28.2397,-15.72131 28.8399,-15.1211 0.182,0.18199 1.0626,2.84758 1.957,5.92383 1.3003,4.47261 1.4563,5.75865 0.7793,6.41406 -0.4656,0.45078 -4.4937,2.77917 -8.9512,5.17578 -23.0105,12.37198 -42.9673,25.89388 -64.7187,43.84961 -4.5215,3.73254 -8.6651,7.20101 -9.209,7.70704 h -0.004 c -0.8398,0.78126 -0.0233,0.91714 5.4043,0.90234 6.7106,-0.0183 15.8929,-0.75942 25.8008,-2.08399 l 5.9042,-0.78906 11.6563,-8.07617 c 17.0045,-11.78065 40.1146,-25.32565 41.9863,-24.60742 0.5027,0.19292 1.7596,2.50212 2.791,5.13086 1.0313,2.62874 2.0924,4.77929 2.3575,4.77929 1.3845,10e-6 16.7911,-10.8575 17.7011,-12.4746 0.2819,-0.50105 -1.6835,-7.47157 -4.5078,-15.98829 -5.6696,-17.09644 -8.237,-26.54611 -11.1152,-40.91601 -3.9724,-19.83322 -5.9951,-37.71216 -6.5938,-58.26758 -0.3857,-13.23973 0.5266,-35.49527 1.5664,-38.20508 0.5155,-1.34316 1.8244,-1.21894 7.6543,0.72266 l 5.0664,1.6875 0.0196,27.52148 c 0.0173,24.55864 0.1823,28.75885 1.5312,39.00391 2.9282,22.23849 6.882,41.88019 11.7461,58.33984 1.4951,5.05897 3.2241,10.94479 3.8418,13.08008 l 1.1231,3.88281 2.3515,-1.59961 c 1.2926,-0.87897 5.3511,-4.99252 9.0196,-9.14257 l 6.6699,-7.54688 -2.7481,-10.60937 c -3.5424,-13.67238 -5.6928,-24.11281 -7.8183,-37.96289 -2.5203,-16.42302 -3.0935,-25.1659 -3.1035,-47.12696 -0.008,-22.27971 -0.3104,-21.14419 5.2382,-19.77539 9.014,2.22367 8.4116,1.87284 7.9493,4.64063 -0.488,2.92185 0.7056,35.61512 1.6933,46.39062 1.2223,13.3347 7.1192,48.23441 8.3594,49.47461 0.2225,0.22248 0.8437,-0.18068 1.3809,-0.89648 1.7363,-2.31384 8.9322,-16.63313 12.0898,-24.0586 l 3.0723,-7.22461 -0.9512,-7.29687 c -1.5822,-12.15091 -2.3672,-25.46454 -2.3672,-40.30469 v -14.09961 l 2.1953,0.44531 c 1.2072,0.24454 3.9423,0.62921 6.0781,0.85547 l 3.8829,0.41211 -0.0293,-2.6289 c -0.0619,-5.5721 -1.8863,-18.00407 -2.7696,-18.86719 -0.5026,-0.49116 -6.3194,-1.97686 -12.9258,-3.30078 -34.5709,-6.92798 -64.5853,-16.96297 -94.0234,-31.43555 -19.4076,-9.54135 -42.4522,-23.58315 -42.0586,-25.62695 0.2583,-1.34081 7.9148,-7.48242 9.3281,-7.48242 0.6071,0 3.6613,1.56839 6.7871,3.48632 27.0003,16.56668 53.3158,28.80035 83.3516,38.7461 12.9675,4.29392 37.0016,10.65257 43.5371,11.51953 l 3.5508,0.47266 -0.4902,-2.29297 c -0.2696,-1.26055 -2.0688,-6.53934 -3.9981,-11.73047 l -3.5078,-9.4375 -11.7793,-3.24414 c -31.0703,-8.55656 -59.8295,-20.25996 -84.4668,-34.375 -10.6058,-6.07621 -14.7734,-8.81369 -14.7734,-9.70118 0,-1.04251 7.6492,-8.43164 8.7285,-8.43164 0.508,0 5.5148,2.56745 11.125,5.70704 21.0064,11.75547 44.1083,22.07726 65.5801,29.29882 12.8105,4.30854 17.2226,5.57395 17.2226,4.94141 0,-1.67175 -9.9788,-16.06691 -16.8691,-24.33594 -3.8715,-4.6463 -4.3361,-4.91019 -22.6406,-12.89843 -16.1262,-7.03761 -38.1582,-18.79141 -38.1582,-20.35547 0,-0.3591 1.5196,-2.47724 3.3769,-4.70899 1.8573,-2.23174 3.377,-4.21386 3.377,-4.4043 0,-0.41938 -9.3979,-4.77251 -15.7344,-7.2871 l -4.5918,-1.82032 -17.3574,17.50782 c -25.4137,25.63268 -47.2049,42.9497 -74.08988,58.87695 -10.94415,6.48354 -34.97302,18.30844 -36.76953,18.0957 -1.46713,-0.17373 -1.78447,-0.70814 -2.51757,-4.25 -1.63095,-7.87967 -2.17549,-7.11764 9.15234,-12.79101 32.9694,-16.51221 61.22804,-36.30102 88.55464,-62.00977 16.6307,-15.64615 19.4561,-18.65584 18.2344,-19.41797 -2.0571,-1.2833 -18.818,-4.70685 -23.1015,-4.71875 -1.3933,-0.004 -3.5638,1.63061 -9.1192,6.86719 -21.1458,19.9323 -43.386,36.57813 -67.11717,50.23828 -10.53869,6.06629 -20.62967,11.10156 -22.25,11.10156 -0.82221,0 -1.53037,-1.34171 -2.58398,-4.89648 -0.7982,-2.69305 -1.45022,-5.35737 -1.44922,-5.92188 10e-4,-0.61328 3.19586,-2.76919 7.9375,-5.35742 23.81931,-13.00182 45.59735,-27.76806 65.34177,-44.30273 4.086,-3.42176 8.0092,-6.86525 8.7168,-7.65235 z"
         id="path3747"
         inkscape:connector-curvature="0" />
    </g>
  </g>
</svg>
