<?xml version="1.0" encoding="UTF-8" standalone="no"?>
<!-- Created with Inkscape (http://www.inkscape.org/) -->

<svg
   xmlns:osb="http://www.openswatchbook.org/uri/2009/osb"
   xmlns:dc="http://purl.org/dc/elements/1.1/"
   xmlns:cc="http://creativecommons.org/ns#"
   xmlns:rdf="http://www.w3.org/1999/02/22-rdf-syntax-ns#"
   xmlns:svg="http://www.w3.org/2000/svg"
   xmlns="http://www.w3.org/2000/svg"
   xmlns:sodipodi="http://sodipodi.sourceforge.net/DTD/sodipodi-0.dtd"
   xmlns:inkscape="http://www.inkscape.org/namespaces/inkscape"
   width="22mm"
   height="22mm"
   viewBox="0 0 100 100"
   version="1.1"
   id="svg8"
   inkscape:version="0.92.4 (5da689c313, 2019-01-14)"
   sodipodi:docname="Orion Logo.svg">
  <defs
     id="defs2">
    <linearGradient
       id="linearGradient2281"
       osb:paint="solid">
      <stop
         style="stop-color:#000000;stop-opacity:1;"
         offset="0"
         id="stop2279" />
    </linearGradient>
    <clipPath
       clipPathUnits="userSpaceOnUse"
       id="clipPath3750">
      <rect
         style="opacity:1;fill:#e6e6e6;stroke-width:0.26458332"
         id="rect3752"
         width="160"
         height="160"
         x="-85.800598"
         y="77.622612" />
    </clipPath>
    <clipPath
       clipPathUnits="userSpaceOnUse"
       id="clipPath3788">
      <rect
         style="opacity:1;fill:#e6e6e6;stroke-width:0.26458332"
         id="rect3790"
         width="256.84698"
         height="256.84698"
         x="-257.32581"
         y="43.302383" />
    </clipPath>
  </defs>
  <sodipodi:namedview
     id="base"
     pagecolor="#ffffff"
     bordercolor="#666666"
     borderopacity="1.0"
     inkscape:pageopacity="0"
     inkscape:pageshadow="2"
     inkscape:zoom="7.9195959"
     inkscape:cx="35.035298"
     inkscape:cy="31.844629"
     inkscape:document-units="mm"
     inkscape:current-layer="layer1"
     showgrid="false"
     inkscape:window-width="1366"
     inkscape:window-height="705"
     inkscape:window-x="-8"
     inkscape:window-y="-8"
     inkscape:window-maximized="1"
     inkscape:snap-intersection-paths="true"
     units="pt" />
  <metadata
     id="metadata5">
    <rdf:RDF>
      <cc:Work
         rdf:about="">
        <dc:format>image/svg+xml</dc:format>
        <dc:type
           rdf:resource="http://purl.org/dc/dcmitype/StillImage" />
        <dc:title />
      </cc:Work>
    </rdf:RDF>
  </metadata>
  <g
     inkscape:label="Layer 1"
     inkscape:groupmode="layer"
     id="layer1"
     transform="translate(0,-197)">
    <rect
       style="opacity:1;fill:#e6e6e6;stroke-width:0.26458332"
       id="rect3776"
       width="1.493828e-05"
       height="8.1527342e-06"
       x="1.3607178"
       y="1.3607178" />
    <rect
       style="opacity:1;fill:#e6e6e6;stroke-width:0.26458332"
       id="rect3778"
       width="1.4901161e-05"
       height="3.0517578e-05"
       x="1.3607104"
       y="296.58685" />
    <path
       style="opacity:1;fill:#666666;stroke-width:0.11699784"
       d="m 50.53219,221.94753 -1.40028,0.0833 c -1.59095,0.0947 -3.84931,0.36783 -4.06429,0.49147 -0.0791,0.0455 -0.69939,0.4897 -1.37828,0.9871 -2.07999,1.52396 -5.96392,3.97191 -6.30186,3.97191 -0.0542,0 -0.21717,-0.31699 -0.36207,-0.70445 -0.1449,-0.38746 -0.31342,-0.73538 -0.37454,-0.77316 -0.12778,-0.079 -1.54904,0.87129 -2.20998,1.47761 l -0.44636,0.4095 0.64591,1.93045 c 2.11829,6.33055 3.08353,13.62293 2.60852,19.70754 -0.0706,0.90452 -0.14146,1.65848 -0.15748,1.6754 -0.0483,0.051 -1.63606,-0.56599 -1.75474,-0.68182 -0.0641,-0.0626 -0.11677,-1.83091 -0.12605,-4.23265 -0.0169,-4.36622 -0.0976,-5.3848 -0.71173,-8.9806 -0.41506,-2.43024 -1.39962,-6.41553 -1.92877,-7.80731 -0.1111,-0.29218 -0.1162,-0.29325 -0.35655,-0.0762 -0.13411,0.12111 -0.68629,0.72797 -1.22704,1.34861 l -0.9831,1.12842 0.4558,1.85503 c 0.50562,2.05763 0.97386,4.54731 1.24007,6.59339 0.28674,2.20385 0.46009,6.0848 0.34231,7.66343 l -0.10469,1.40395 -0.32879,-0.023 c -0.18082,-0.0127 -0.61521,-0.10618 -0.96527,-0.20794 l -0.63647,-0.18507 -0.003,-1.31294 c -0.0107,-4.57953 -0.38529,-8.48442 -1.18401,-12.34363 l -0.24889,-1.20281 -0.28881,0.42501 c -0.33261,0.48948 -1.10912,2.1356 -1.65844,3.51564 l -0.37814,0.94999 0.18195,1.56991 c 0.1755,1.51383 0.47735,7.56853 0.38206,7.66382 -0.0256,0.0256 -0.42651,-0.0123 -0.89073,-0.0843 -0.46421,-0.072 -0.87252,-0.10249 -0.90736,-0.0677 -0.0642,0.0642 0.16588,2.66573 0.26649,3.01289 0.0399,0.13752 0.41206,0.25931 1.36812,0.44764 5.51058,1.08553 11.07643,3.07932 15.54584,5.56886 1.58422,0.88244 4.90548,3.01188 4.86768,3.12094 -0.0162,0.0468 -0.36795,0.36693 -0.78164,0.71125 l -0.7522,0.626 -1.41243,-0.90273 c -4.22823,-2.70246 -9.22461,-4.93064 -14.27721,-6.36704 -2.97231,-0.845 -3.89392,-1.06461 -4.00431,-0.95423 -0.0847,0.0847 0.1377,0.85412 0.68798,2.38025 0.40162,1.11382 0.0975,0.93878 3.31162,1.90606 3.75741,1.13079 8.09729,3.04606 11.40732,5.03428 0.86871,0.5218 1.6305,0.99915 1.69291,1.06076 0.0729,0.0719 -0.14291,0.36845 -0.60328,0.82882 l -0.71685,0.71677 -1.67812,-0.96342 c -2.08322,-1.196 -5.44174,-2.84221 -7.27769,-3.56722 -1.96818,-0.77724 -4.25735,-1.53897 -4.3491,-1.44723 -0.0428,0.0428 0.0609,0.33152 0.23058,0.64152 0.41613,0.76033 2.33976,3.32082 2.68746,3.57722 0.15337,0.1131 1.05151,0.54536 1.99579,0.96062 2.55752,1.12471 6.0293,3.04133 6.0293,3.32849 0,0.0529 -0.21056,0.36063 -0.46796,0.6839 -0.25739,0.32328 -0.46803,0.61177 -0.46803,0.64111 0,0.0909 2.29644,1.13877 2.6497,1.20913 0.30936,0.0616 0.46885,-0.0793 2.17935,-1.92518 3.46346,-3.73759 6.73588,-6.47533 10.84275,-9.07114 2.37112,-1.4987 5.71777,-3.21003 5.97115,-3.05344 0.0537,0.0332 0.16302,0.42667 0.24305,0.8745 0.11881,0.66478 0.11728,0.84819 -0.008,0.99933 -0.0845,0.10182 -0.81643,0.52228 -1.62661,0.93432 -2.86759,1.45839 -5.73749,3.35464 -8.8168,5.82567 -1.99131,1.59795 -6.58696,6.03077 -6.42263,6.19509 0.0592,0.0592 0.86217,0.26007 1.78449,0.44644 l 1.677,0.33887 0.99902,-0.96534 c 3.04033,-2.93783 6.20911,-5.41336 9.53997,-7.45277 1.65727,-1.01471 3.68604,-2.08215 3.75261,-1.97444 0.0896,0.14499 0.5177,1.64314 0.5177,1.81177 0,0.0717 -0.32906,0.30536 -0.73124,0.5193 -3.39116,1.8039 -7.7945,4.91713 -10.73454,7.58945 l -0.64351,0.58488 1.13474,0.005 c 1.32828,0.006 3.69976,-0.28203 4.22921,-0.51355 0.61077,-0.26707 2.49008,-1.70384 2.23413,-1.70803 -0.22351,-0.004 -0.22342,-0.007 0.003,-0.17811 0.12685,-0.0959 0.2963,-0.14916 0.37654,-0.11837 0.0802,0.0308 0.80898,-0.36781 1.61949,-0.88585 1.74924,-1.11802 3.40195,-2.01504 3.54723,-1.92525 0.0573,0.0354 0.22366,0.38414 0.36983,0.77499 0.1919,0.51315 0.31298,0.69255 0.43556,0.64551 0.19874,-0.0763 1.69603,-1.11636 2.17383,-1.51008 l 0.32927,-0.27136 -0.64167,-2.03707 c -1.5723,-4.99112 -2.27342,-8.59256 -2.52781,-12.98475 -0.18684,-3.22571 -0.10129,-8.00749 0.14772,-8.25591 0.0516,-0.0514 0.47276,0.0364 0.93599,0.19523 l 0.84226,0.28872 0.0717,4.44595 c 0.0686,4.25354 0.11814,4.99011 0.52282,7.78036 0.36828,2.5392 1.10773,5.78141 1.86447,8.17489 l 0.30968,0.97958 0.46876,-0.45308 c 0.25781,-0.24919 0.81427,-0.86522 1.23655,-1.36892 l 0.7678,-0.91575 -0.48043,-1.95069 c -1.04701,-4.25129 -1.41782,-7.16615 -1.49841,-11.77843 -0.0378,-2.16311 -0.0182,-3.57223 0.0512,-3.67231 0.095,-0.13712 0.25568,-0.12712 1.03165,0.0641 l 0.91911,0.2265 0.0757,3.44581 c 0.0852,3.877 0.1884,5.06911 0.68422,7.90233 0.52564,3.00359 0.61827,3.44085 0.72853,3.44085 0.14047,0 1.75491,-3.32198 2.01259,-4.14123 0.19994,-0.63562 0.20073,-0.76746 0.0177,-2.73232 -0.10579,-1.13547 -0.22481,-3.14672 -0.26449,-4.46939 -0.0844,-2.81169 -0.0992,-2.76918 0.89816,-2.58004 0.95642,0.18138 0.92155,0.20634 0.86018,-0.614 -0.0801,-1.07042 -0.27288,-2.35632 -0.36743,-2.45087 -0.0452,-0.0452 -0.96849,-0.26753 -2.05178,-0.49411 -5.00449,-1.04676 -10.04168,-2.87109 -14.33631,-5.19216 -2.58795,-1.39869 -5.1632,-3.10935 -5.1632,-3.42982 0,-0.12661 0.43834,-0.55889 1.02125,-1.0071 l 0.37774,-0.29048 0.87113,0.59368 c 2.64315,1.80124 7.06057,4.03977 10.36568,5.25278 3.16745,1.16249 8.30554,2.64166 8.50016,2.44704 0.0397,-0.0397 -0.18534,-0.82414 -0.50019,-1.74314 l -0.57241,-1.67092 -0.64263,-0.19419 c -0.35342,-0.10679 -1.30069,-0.38989 -2.10504,-0.62912 -2.92213,-0.86907 -5.31474,-1.82853 -8.41987,-3.37647 -1.67639,-0.8357 -4.85255,-2.67834 -4.98437,-2.89164 -0.0372,-0.0602 0.2431,-0.43109 0.62303,-0.82418 l 0.69086,-0.71469 1.51152,0.90224 c 1.75434,1.04724 4.78776,2.5788 6.71792,3.39183 1.50718,0.63486 5.28004,1.96158 5.35763,1.88398 0.0624,-0.0624 -1.35374,-2.23434 -2.02467,-3.10518 -0.76535,-0.99342 -1.11066,-1.29217 -1.87046,-1.6183 -2.1124,-0.9067 -7.17411,-3.56217 -7.35839,-3.86034 -0.0324,-0.0524 0.17533,-0.38072 0.46156,-0.72965 0.28622,-0.34893 0.52042,-0.66672 0.52042,-0.70613 0,-0.0844 -2.69106,-1.27996 -2.87492,-1.27727 -0.069,10e-4 -0.50627,0.44537 -0.97167,0.9875 -1.05682,1.23107 -4.38582,4.49193 -6.00322,5.88037 -3.0199,2.59241 -6.25004,4.75045 -9.6873,6.47206 -0.67479,0.33799 -1.42247,0.68361 -1.66156,0.76796 -0.49869,0.17595 -0.46793,0.21883 -0.67398,-0.93903 -0.0966,-0.54304 -0.091,-0.73029 0.0253,-0.84658 0.0821,-0.0821 0.83781,-0.51277 1.67932,-0.95695 3.14803,-1.66164 5.40421,-3.14846 8.34597,-5.49999 3.03184,-2.42353 7.10598,-6.38701 6.76278,-6.57907 -0.0938,-0.0525 -0.88361,-0.24039 -1.75514,-0.41757 l -1.58462,-0.32216 -1.0079,0.9324 c -3.75127,3.47021 -5.04236,4.51509 -8.08421,6.5422 -2.24902,1.49877 -5.05613,3.07261 -5.20271,2.917 -0.0534,-0.0566 -0.20258,-0.48111 -0.33159,-0.94328 -0.27841,-0.99736 -0.36382,-0.87633 1.26055,-1.78664 2.37669,-1.33192 4.96048,-3.06259 7.1402,-4.78267 1.10185,-0.86949 1.51374,-1.22311 2.86269,-2.45759 z m 5.57861,4.71484 c 0.0644,0 0.0845,0.0527 0.0447,0.11701 -0.0398,0.0643 -0.12496,0.11701 -0.18931,0.11701 -0.0643,0 -0.0845,-0.0527 -0.0447,-0.11701 0.0398,-0.0643 0.12496,-0.11701 0.18931,-0.11701 z m -5.5643,1.87199 c 0.0284,0 0.0516,0.0527 0.0516,0.11701 0,0.0643 -0.0557,0.117 -0.12389,0.117 -0.0682,0 -0.0914,-0.0527 -0.0516,-0.117 0.0398,-0.0644 0.0955,-0.11701 0.12389,-0.11701 z m -1.88566,1.44338 c 0.0187,-0.002 0.0412,0.004 0.0653,0.0191 0.0643,0.0398 0.11693,0.0955 0.11693,0.12389 0,0.0284 -0.0526,0.0516 -0.11693,0.0516 -0.0644,0 -0.11701,-0.0558 -0.11701,-0.12389 0,-0.0426 0.0206,-0.0676 0.0517,-0.0707 z m 1.5855,5.98794 c 0.009,8.5e-4 0.0172,0.003 0.0233,0.006 0.0841,0.049 0.81113,0.54782 1.6155,1.10851 1.90897,1.33066 4.00662,2.58242 5.96683,3.5605 0.86871,0.43346 1.66054,0.85945 1.75954,0.94672 0.16064,0.14159 0.16208,0.30075 0.0136,1.47921 -0.18519,1.46983 -0.25359,7.40332 -0.10237,8.88071 l 0.0912,0.89136 -1.02717,0.43989 c -2.18086,0.93399 -4.29852,2.08427 -7.13901,3.87778 -0.85187,0.53788 -1.61525,0.97575 -1.69643,0.97302 -0.0812,-0.003 -0.77941,-0.45556 -1.55159,-1.00621 -1.71287,-1.22147 -3.60179,-2.35395 -6.11943,-3.6688 -1.88628,-0.98511 -1.90368,-0.99772 -1.846,-1.34541 0.2009,-1.21115 0.32662,-4.58504 0.27888,-7.48491 l -0.0544,-3.30241 1.93997,-0.94672 c 2.34341,-1.14354 4.62084,-2.42966 6.39824,-3.61337 0.7833,-0.52166 1.30716,-0.80894 1.44938,-0.79635 z m 11.18098,27.78502 c 0.0284,0 0.0516,0.0527 0.0516,0.11701 0,0.0644 -0.0557,0.11701 -0.12389,0.11701 -0.0682,0 -0.0914,-0.0527 -0.0516,-0.11701 0.0398,-0.0643 0.0955,-0.11701 0.12389,-0.11701 z m 6.06449,0.46796 c 0.0253,0 0.0763,0.079 0.11333,0.17555 0.037,0.0965 0.0164,0.17548 -0.046,0.17548 -0.0623,0 -0.11333,-0.079 -0.11333,-0.17548 0,-0.0965 0.0207,-0.17555 0.046,-0.17555 z m -23.91356,6.66889 c 0.0643,0 0.11701,0.0527 0.11701,0.11701 0,0.0643 -0.0527,0.11701 -0.11701,0.11701 -0.0644,0 -0.11701,-0.0527 -0.11701,-0.11701 0,-0.0643 0.0527,-0.11701 0.11701,-0.11701 z"
       id="path3798"
       inkscape:connector-curvature="0" />
    <g
       id="g17">
      <!-- <animateTransform attributeName="transform"
attributeType="XML"
type="rotate"
from="0 50 50"
to="-360 50 50"
dur="10s"
repeatCount="indefinite" 
/>  -->
    </g>
  </g>
</svg>
