<?xml version="1.0" encoding="UTF-8" standalone="no"?>
<!-- Created with Inkscape (http://www.inkscape.org/) -->

<svg
   xmlns:dc="http://purl.org/dc/elements/1.1/"
   xmlns:cc="http://creativecommons.org/ns#"
   xmlns:rdf="http://www.w3.org/1999/02/22-rdf-syntax-ns#"
   xmlns:svg="http://www.w3.org/2000/svg"
   xmlns="http://www.w3.org/2000/svg"
   xmlns:sodipodi="http://sodipodi.sourceforge.net/DTD/sodipodi-0.dtd"
   xmlns:inkscape="http://www.inkscape.org/namespaces/inkscape"
   width="210mm"
   height="297mm"
   viewBox="0 0 210 297"
   version="1.1"
   id="svg8"
   sodipodi:docname="sample 2.svg"
   inkscape:version="0.92.4 (5da689c313, 2019-01-14)">
  <defs
     id="defs2">
    <clipPath
       clipPathUnits="userSpaceOnUse"
       id="clipPath4633">
      <rect
         style="opacity:1;fill:#666666;stroke-width:0.26458332"
         id="rect4635"
         width="178.80331"
         height="150.74001"
         x="-126.68576"
         y="86.391609" />
    </clipPath>
  </defs>
  <sodipodi:namedview
     id="base"
     pagecolor="#ffffff"
     bordercolor="#666666"
     borderopacity="1.0"
     inkscape:pageopacity="0"
     inkscape:pageshadow="2"
     inkscape:zoom="0.7"
     inkscape:cx="111.13557"
     inkscape:cy="540.89435"
     inkscape:document-units="mm"
     inkscape:current-layer="layer1"
     showgrid="false"
     inkscape:window-width="1366"
     inkscape:window-height="705"
     inkscape:window-x="-8"
     inkscape:window-y="-8"
     inkscape:window-maximized="1"
     inkscape:pagecheckerboard="false" />
  <metadata
     id="metadata5">
    <rdf:RDF>
      <cc:Work
         rdf:about="">
        <dc:format>image/svg+xml</dc:format>
        <dc:type
           rdf:resource="http://purl.org/dc/dcmitype/StillImage" />
        <dc:title></dc:title>
      </cc:Work>
    </rdf:RDF>
  </metadata>
  <g
     inkscape:label="Layer 1"
     inkscape:groupmode="layer"
     id="layer1">
    <path
       inkscape:connector-curvature="0"
       id="path34"
       d="m -32.808329,224.94218 c 0,-0.15742 0.28434,-0.50987 0.63187,-0.78324 0.34752,-0.27336 1.56791,-1.34148 2.71197,-2.3736 3.71039,-3.34732 8.30455,-6.96467 14.117652,-11.11593 2.873531,-2.05205 11.152642,-7.10203 13.938503,-8.50202 0.898906,-0.45172 1.711042,-0.94538 1.80475,-1.097 0.09371,-0.15162 0.05179,-0.6603 -0.09316,-1.1304 -0.144944,-0.4701 -0.454348,-1.53917 -0.687562,-2.37573 l -0.424026,-1.52101 -1.91094,0.95956 c -4.815922,2.41828 -12.471527,7.15857 -18.182807,11.25865 -4.53201,3.25349 -10.50294,8.35474 -15.47994,13.22525 l -3.17682,3.10884 -1.58568,-0.24083 c -5.40263,-0.82055 -8.43605,-1.5739 -8.52994,-2.11841 -0.0712,-0.41296 6.34296,-7.10332 10.25154,-10.69297 6.06387,-5.56905 11.82583,-10.05478 19.050002,-14.83052 6.032304,-3.98782 9.305144,-5.90211 14.372322,-8.40637 2.985082,-1.47527 3.12148,-1.57832 2.994684,-2.26259 -0.07307,-0.39431 -0.273548,-1.5206 -0.445511,-2.50286 -0.171966,-0.98227 -0.448011,-1.78402 -0.613434,-1.78167 -0.551503,0.008 -8.190856,3.84679 -11.810145,5.93491 -6.858238,3.95679 -13.472588,8.60848 -20.108328,14.14163 -3.95526,3.29806 -12.5157,11.72219 -16.0689,15.81304 -1.9533,2.24886 -2.92252,3.17609 -3.21873,3.07928 -1.73318,-0.56647 -7.2299,-3.06212 -7.89305,-3.58365 -0.3159,-0.24844 0.38551,-1.30477 2.22229,-3.34675 l 0.5739,-0.63802 -1.57501,-1.01798 c -0.86626,-0.55989 -1.60969,-1.01798 -1.65206,-1.01798 -0.0424,0 -1.37782,-0.72489 -2.96764,-1.61088 -4.18012,-2.32951 -12.56063,-6.29503 -15.01631,-7.10548 -0.79608,-0.26273 -1.4643,-0.90214 -3.15442,-3.01839 -1.89743,-2.37583 -5.37745,-7.44195 -6.25555,-9.10666 -0.1743,-0.33042 -0.25148,-0.70663 -0.17152,-0.83601 0.18718,-0.30286 7.39848,2.12106 13.48127,4.53142 5.64399,2.23648 14.72639,6.73723 19.86761,9.84532 l 3.70416,2.23933 1.78594,-1.76171 c 0.98227,-0.96894 1.78594,-1.83414 1.78594,-1.92268 0,-0.0885 -0.62508,-0.55457 -1.38906,-1.03564 -0.76399,-0.48106 -1.80579,-1.14794 -2.31511,-1.48194 -1.89233,-1.24095 -6.35468,-3.67025 -10.88261,-5.92447 -8.29099,-4.12765 -20.25883,-8.49442 -28.57235,-10.42535 -0.51274,-0.11909 -0.83351,-0.48958 -1.23059,-1.42136 -0.72193,-1.69406 -2.70611,-7.95673 -2.70611,-8.54131 0,-0.44244 0.12045,-0.44007 2.3151,0.0456 17.85702,3.9515 35.44269,11.29343 49.47791,20.6568 1.05548,0.70415 2.08227,1.3429 2.28176,1.41945 0.20029,0.0769 1.17738,-0.54147 2.18199,-1.38081 1.0006,-0.836 1.87703,-1.5655 1.94762,-1.62111 0.38791,-0.30562 -8.1917,-5.87935 -13.69709,-8.89829 -12.51559,-6.86306 -28.957,-12.61001 -43.28066,-15.12835 -1.16534,-0.20489 -2.21059,-0.46433 -2.3228,-0.57654 -0.2513,-0.2513 -1.0205,-6.32933 -1.0205,-8.06374 0,-1.4336 -0.15189,-1.38308 2.64583,-0.88002 1.09141,0.19625 2.04391,0.2976 2.11667,0.22523 0.22783,-0.22662 0.0233,-12.23367 -0.26283,-15.42655 -0.14995,-1.67349 -0.4576,-4.50121 -0.68367,-6.28384 l -0.41103,-3.24112 0.84764,-2.31513 c 1.41853,-3.87434 5.23101,-11.44324 5.76401,-11.44324 0.2387,0 1.93389,8.39944 2.53643,12.56771 1.18618,8.20581 1.52524,12.75802 1.56618,21.02693 l 0.036,7.26859 2.34509,0.59985 c 1.28979,0.32991 2.45065,0.5346 2.57968,0.45485 0.38948,-0.24071 0.26854,-14.90297 -0.16025,-19.42835 -0.42864,-4.5237 -0.8174,-7.95284 -1.07299,-9.46433 -0.73583,-4.35167 -2.15733,-11.2042 -3.02473,-14.58118 -1.13012,-4.39979 -1.13117,-4.37162 0.21948,-5.93318 2.27204,-2.62684 5.41031,-6.00464 5.57884,-6.00464 0.42538,0 1.40464,3.02428 3.21272,9.92187 3.54907,13.53927 5.36978,29.74225 4.74208,42.20105 -0.13563,2.69213 -0.25068,5.2118 -0.25566,5.59926 -0.008,0.62868 0.1831,0.77754 1.77688,1.38352 0.98227,0.37348 2.07988,0.71131 2.43913,0.75074 0.60711,0.0666 0.67053,-0.0403 0.8989,-1.51581 0.39168,-2.53069 0.35556,-20.13174 -0.0489,-23.81251 -1.39537,-12.69963 -3.56413,-22.6886 -7.35299,-33.86666 l -1.43491,-4.23334 1.1288,-1.00369 c 2.00613,-1.7838 6.26877,-4.54549 6.56252,-4.25174 0.14771,0.14771 0.56447,1.08438 0.92614,2.08148 0.36166,0.99711 0.71837,1.87372 0.79267,1.94803 0.50112,0.50111 11.19719,-6.1137 17.01513,-10.52273 1.65056,-1.25084 3.37824,-2.47882 3.83929,-2.72883 1.2303,-0.66713 6.0243,-1.28172 11.15137,-1.42959 l 4.49792,-0.12972 -1.7198,1.62064 c -7.83224,7.3807 -19.2731,15.6191 -29.16673,21.00254 -1.27134,0.69178 -2.37063,1.35341 -2.44288,1.4703 -0.17447,0.2823 0.88116,4.30522 1.21843,4.64331 0.17582,0.17627 1.24739,-0.25583 3.21016,-1.29446 11.42129,-6.04376 22.35761,-14.13549 32.12485,-23.76901 l 3.22403,-3.1799 1.53847,0.18021 c 3.653608,0.42796 8.814502,1.67267 8.814502,2.1259 0,0.56973 -10.570602,11.04798 -14.643892,14.51595 -9.63941,8.20693 -19.10337,14.54981 -29.34308,19.66614 -1.56435,0.78164 -2.84427,1.49143 -2.84427,1.57733 0,0.0859 0.19345,1.21357 0.4299,2.50594 0.4258,2.3274 0.43651,2.34822 1.12448,2.18537 1.18253,-0.27991 10.02548,-4.92071 13.92896,-7.30994 10.96039,-6.70862 21.58858,-15.46116 30.374259,-25.01385 1.965441,-2.13703 4.070246,-4.51059 4.677343,-5.27457 0.607097,-0.76399 1.275866,-1.38906 1.486154,-1.38906 0.868527,0 8.303895,3.39507 8.303895,3.79166 0,0.23321 -0.774668,1.25311 -2.574462,3.38941 -0.323752,0.38428 -0.225682,0.52878 0.853009,1.25677 0.670348,0.45242 1.255292,0.82257 1.299876,0.82257 0.04458,0 1.139942,0.61339 2.43413,1.36309 3.29882,1.91095 8.818297,4.63237 13.33328,6.57409 2.110051,0.90745 4.172973,1.96336 4.584268,2.34647 2.204974,2.05387 8.7392,11.69118 8.164689,12.04207 -0.09969,0.0609 -1.788593,-0.41819 -3.753125,-1.0646 -10.662572,-3.50847 -20.587151,-8.01575 -29.731558,-13.50269 -2.018556,-1.2112 -3.748402,-2.20218 -3.844102,-2.20218 -0.239276,0 -3.466004,3.27422 -3.466004,3.51702 0,0.32066 5.149661,3.56106 9.260416,5.82706 9.845767,5.42736 20.392267,9.64778 31.58711,12.64028 1.583899,0.4234 2.927583,0.76981 2.985963,0.76981 0.277485,0 2.888223,7.38534 3.355012,9.49076 0.134654,0.60735 0.09976,0.62195 -1.101283,0.46075 -2.082453,-0.27949 -9.507588,-2.20219 -14.012031,-3.62834 -5.623494,-1.78045 -8.663633,-2.92254 -16.200188,-6.08593 -3.12756,-1.31276 -9.753798,-4.69696 -14.312034,-7.30954 -1.437394,-0.82386 -5.209151,-3.19629 -6.90626,-4.34405 -0.82876,-0.56049 -1.668148,-1.01907 -1.865304,-1.01907 -0.197157,0 -1.151015,0.67865 -2.119683,1.5081 -1.35719,1.16213 -1.6953,1.58753 -1.47385,1.85436 0.15805,0.19044 1.849516,1.39809 3.75881,2.68365 10.406062,7.00663 20.958727,12.01083 35.221445,16.70244 4.256289,1.40007 11.768018,3.26569 17.134421,4.2555 3.56607,0.65775 3.182369,0.18165 3.611589,4.48137 0.467611,4.68428 0.496946,5.29505 0.261305,5.44068 -0.199411,0.12325 -2.395638,-0.17221 -4.140128,-0.55696 l -0.595313,-0.1313 0.0031,6.28889 c 0.0029,5.83045 0.36865,11.6005 1.068832,16.86204 l 0.287518,2.16056 -1.349039,3.40542 c -1.209932,3.05426 -4.118946,8.98303 -4.841541,9.8674 -0.153668,0.18807 -0.374137,0.2472 -0.489932,0.13141 -0.541253,-0.54125 -2.547022,-12.11846 -3.276502,-18.91181 -0.437409,-4.07341 -0.897893,-14.46074 -0.836004,-18.85813 l 0.04082,-2.90076 -2.346827,-0.61734 c -1.290757,-0.33954 -2.421851,-0.5421 -2.513542,-0.45013 -0.09169,0.092 -0.161507,4.17542 -0.155141,9.07435 0.0088,6.73058 0.125852,9.90927 0.479242,13.00818 0.905481,7.94024 2.130518,14.62853 4.034102,22.02483 l 0.935871,3.63628 -1.67206,2.04897 c -3.55341,4.35442 -5.773089,6.38969 -5.773089,5.29348 0,-0.18366 -0.303181,-1.28499 -0.673735,-2.44739 -3.063182,-9.609 -5.306034,-21.28527 -6.352236,-33.06971 -0.387178,-4.36119 -0.479978,-16.11215 -0.160266,-20.294 l 0.176017,-2.30234 -2.338613,-0.83655 c -1.28624,-0.4601 -2.429144,-0.73373 -2.539793,-0.60807 -0.349007,0.39633 -0.818621,7.70859 -0.814927,12.68895 0.0091,12.25004 1.780153,25.61905 4.92131,37.14888 0.586854,2.15409 3.701084,11.97379 4.208272,13.2694 0.125997,0.32186 -0.304572,0.81221 -1.633188,1.85993 -2.709037,2.13629 -5.560634,4.00142 -5.84709,3.82438 -0.139761,-0.0864 -0.526812,-0.90372 -0.860116,-1.81631 -1.035978,-2.83656 -0.700992,-2.74541 -3.761874,-1.02359 -5.708886,3.21137 -9.463238,5.63567 -14.353968,9.26879 -1.891771,1.40532 -3.596182,2.65081 -3.787582,2.76776 -1.270804,0.77649 -15.394708,1.94938 -15.394708,1.27843 z m 4.3998,-40.37526 c 6.43079,-4.3613 13.054903,-7.97229 21.608368,-11.7793 l 1.798791,-0.80061 -0.211291,-2.72275 c -0.382479,-4.92868 -0.201768,-20.08325 0.281583,-23.61383 0.238241,-1.74021 0.433165,-3.37345 0.433165,-3.62943 0,-0.33252 -0.925401,-0.91817 -3.241145,-2.05119 -7.108584,-3.47799 -14.527571,-7.94313 -20.450281,-12.30807 -1.27777,-0.9417 -2.45281,-1.63406 -2.6112,-1.53858 -0.1584,0.0955 -1.65722,1.08374 -3.33071,2.19616 -6.94011,4.6133 -14.76182,8.88415 -20.8561,11.38795 l -2.20298,0.90508 0.15557,1.45521 c 0.0856,0.80036 0.22488,5.08661 0.30959,9.525 0.14424,7.55742 -0.1695,14.49137 -0.83803,18.52083 l -0.15364,0.92605 4.84749,2.43176 c 6.08931,3.05473 12.25706,6.74778 17.17472,10.28364 2.09679,1.50762 3.94679,2.74598 4.1111,2.75192 0.16432,0.006 1.59307,-0.86699 3.175,-1.93984 z M 274.4849,211.24677 c -7.57999,-1.66455 -13.94441,-7.7952 -16.19591,-15.60108 -2.87501,-9.96746 0.83397,-20.63992 9.07246,-26.10582 3.86194,-2.56223 7.1352,-3.5248 11.77396,-3.4624 5.06208,0.0681 9.10777,1.55733 13.17836,4.85101 5.675,4.59184 9.0845,13.43434 8.00026,20.74846 -1.466,9.88938 -7.69953,17.21048 -16.54842,19.43565 -2.48737,0.62548 -6.76201,0.68729 -9.28071,0.13418 z m 10.20676,-2.37292 c 6.06686,-2.17742 10.46569,-6.67556 12.68944,-12.97594 4.77933,-13.54085 -4.96105,-28.18921 -18.72602,-28.16171 -5.43473,0.0109 -11.30326,2.95759 -14.8127,7.43781 -8.06934,10.30148 -5.45475,25.44031 5.52784,32.00718 3.40738,2.03738 5.82726,2.63302 10.16206,2.50132 2.61856,-0.0796 3.52277,-0.22128 5.15938,-0.80866 z m -209.223696,1.8477 c -3.327802,-0.75738 -7.747407,-2.82476 -10.530117,-4.92573 -1.498986,-1.13175 -1.800516,-1.86763 -0.951458,-2.32203 0.388641,-0.208 0.80073,-0.0239 2.050521,0.91625 1.899306,1.42868 4.889682,3.00664 7.384965,3.89687 6.899955,2.46169 14.707367,1.0753 19.086768,-3.38931 1.960002,-1.99813 2.746925,-3.80963 2.730352,-6.28528 -0.03442,-5.14114 -3.099321,-7.51993 -12.688995,-9.8484 -6.552631,-1.59106 -8.170151,-2.09167 -10.424969,-3.22647 -3.734165,-1.87932 -5.450031,-4.5816 -5.450031,-8.58314 0,-1.82983 0.114322,-2.3746 0.799693,-3.81066 2.451793,-5.13727 10.032208,-7.90892 17.272033,-6.31523 3.848309,0.84712 9.321673,4.1452 9.128334,5.50044 -0.133046,0.9326 -1.091922,0.83387 -2.232628,-0.22987 -1.263528,-1.17828 -4.681164,-2.87548 -6.975766,-3.46417 -2.098873,-0.53847 -5.969087,-0.60032 -7.937499,-0.12685 -5.272066,1.26812 -8.77353,5.04966 -8.368969,9.03838 0.383503,3.78111 2.560505,5.97327 7.580928,7.6337 0.942745,0.3118 3.619082,1.02892 5.947415,1.59361 5.709446,1.3847 8.166039,2.19328 10.054166,3.3093 4.837592,2.85937 6.423777,8.24092 3.90066,13.23402 -1.534216,3.03613 -5.562875,6.00656 -9.721493,7.16789 -2.178256,0.6083 -8.412553,0.7468 -10.65391,0.23668 z m 246.109676,-0.10744 c -2.88809,-0.70019 -6.04827,-2.07825 -8.58377,-3.74316 -2.36625,-1.55377 -3.22712,-2.42584 -2.99408,-3.0331 0.28176,-0.73427 0.86699,-0.54041 3.22726,1.06906 4.24045,2.89156 8.22653,4.32912 12.60731,4.54675 5.73535,0.28492 11.54009,-2.00398 14.09126,-5.55642 1.20568,-1.67885 2.00252,-4.24209 1.83433,-5.90048 -0.48662,-4.79818 -3.3523,-6.89873 -12.48077,-9.14845 -9.16315,-2.25826 -11.13475,-3.02858 -13.51616,-5.28081 -1.98175,-1.87426 -2.6194,-3.4395 -2.62456,-6.44265 -0.003,-2.02627 0.0991,-2.59818 0.68816,-3.83646 1.442,-3.03125 5.04042,-5.60463 9.07814,-6.49214 2.40276,-0.52814 6.94883,-0.40658 9.31508,0.24908 3.59413,0.99591 8.6002,4.38039 8.15806,5.51546 -0.28681,0.73629 -1.1226,0.54356 -2.45753,-0.5667 -3.01255,-2.50554 -6.60974,-3.75533 -10.90912,-3.7902 -3.00606,-0.0244 -4.8674,0.36581 -6.9433,1.45554 -3.52009,1.84784 -5.2138,4.23975 -5.2138,7.36314 0,3.03909 1.31207,5.10232 4.34959,6.8398 1.44968,0.82921 5.60507,2.10723 11.26083,3.46334 6.62347,1.58814 9.67211,3.18739 11.57309,6.07102 0.93908,1.42448 1.39252,3.12585 1.38863,5.21039 -0.0103,5.58197 -4.48648,10.24374 -11.50651,11.98388 -2.71984,0.6742 -7.61151,0.68513 -10.34214,0.0231 z m -202.08996,-0.1734 c -0.0883,-0.23018 -0.1606,-9.81289 -0.1606,-21.2949 v -20.87639 l -7.60677,-0.0702 -7.60677,-0.0702 v -0.66146 -0.66146 l 15.99197,-0.0682 c 9.31958,-0.0398 16.09214,0.0319 16.23203,0.1718 0.132,0.13202 0.16063,0.49015 0.0636,0.79584 -0.17375,0.54751 -0.28861,0.5558 -7.69919,0.5558 h -7.52279 v 20.98146 c 0,15.96613 -0.0759,21.05735 -0.3175,21.29896 -0.44823,0.44823 -1.18398,0.39414 -1.37398,-0.10102 z m 43.0961,0.16773 c -3.56473,-0.76976 -6.37444,-2.30763 -8.98427,-4.91747 -3.3429,-3.3429 -4.82383,-6.69397 -5.19927,-11.76508 -0.24511,-3.31068 -0.28387,-25.81196 -0.046,-26.72149 0.1098,-0.41986 0.31877,-0.53905 0.83923,-0.47868 l 0.69302,0.0804 0.14677,14.81667 c 0.12472,12.59074 0.20984,14.99553 0.5666,16.00729 2.29079,6.49674 7.06136,10.48092 13.65414,11.40335 7.82257,1.09451 15.70223,-4.63515 17.50163,-12.72627 0.15759,-0.70851 0.26742,-6.77972 0.27128,-14.99346 0.003,-7.59156 0.0787,-13.99117 0.16706,-14.22135 0.2563,-0.66795 1.3897,-0.5266 1.57102,0.19591 0.0848,0.33794 0.10789,6.97568 0.0513,14.75052 -0.0915,12.55898 -0.15523,14.3132 -0.57155,15.72359 -1.71643,5.81508 -6.15262,10.442 -11.79468,12.30179 -1.92082,0.63316 -7.00833,0.94548 -8.86621,0.5443 z m 35.36492,-0.20293 c -0.30512,-0.57015 -0.44466,-41.38441 -0.14658,-42.8718 l 0.17235,-0.8599 h 6.02337 c 5.57676,0 6.213,0.0493 8.58047,0.66438 8.36512,2.17345 14.53202,8.72239 16.26647,17.27416 0.41209,2.03174 0.34875,6.59172 -0.12268,8.8328 -1.38563,6.587 -6.19316,12.57174 -12.39946,15.43569 -3.46401,1.59849 -4.58301,1.78356 -11.57634,1.91459 -6.24711,0.11704 -6.53513,0.10052 -6.7976,-0.38992 z m 13.45338,-1.65258 c 9.91118,-2.44654 16.61911,-11.29049 16.06232,-21.17704 -0.52832,-9.38039 -7.40222,-17.14249 -16.76784,-18.93443 -1.25359,-0.23985 -3.68712,-0.38015 -6.59381,-0.38015 h -4.60692 v 20.32882 c 0,11.18085 0.0893,20.4212 0.19843,20.5341 0.2857,0.29557 10.29185,-0.0218 11.70782,-0.3713 z m 29.23307,1.79413 c -0.0733,-0.19211 -0.10256,-10.11242 -0.065,-22.04512 l 0.0683,-21.69584 h 0.66146 0.66146 v 21.96042 21.96042 l -0.5965,0.0847 c -0.32806,0.0466 -0.65649,-0.0725 -0.7298,-0.26458 z"
       style="fill:#8b7333;stroke-width:0.26458332"
       clip-path="url(#clipPath4633)"
       transform="matrix(1.3845907,0,0,1.4123001,140.70892,-60.18872)" />
    <path
       style="opacity:1;fill:#666666;stroke-width:0.37797621"
       d="m 99.775286,63.664305 c -0.635828,-0.0064 -3.19877,0.07755 -6.200137,0.205155 -7.068545,0.300525 -12.041566,0.90265 -13.914395,1.685169 -0.702363,0.293468 -3.514709,2.184445 -6.249234,4.201811 -9.213654,6.797264 -22.897393,15.393291 -23.517425,14.773259 -0.08596,-0.08596 -0.634513,-1.323449 -1.219047,-2.749704 -0.584528,-1.426252 -1.245372,-2.653747 -1.468128,-2.728 -0.456821,-0.152273 -6.326526,3.725485 -8.61446,5.691127 l -1.499134,1.288293 2.154906,6.758244 c 4.877123,15.293881 7.243136,25.903191 9.389092,42.098721 0.727339,5.48924 0.831159,8.09363 0.865063,21.73356 0.0212,8.52336 -0.09955,16.30502 -0.2682,17.29248 -0.266145,1.55827 -0.426146,1.79524 -1.213879,1.79524 -1.077376,0 -5.088702,-1.41844 -5.73712,-2.02881 -0.345818,-0.32553 -0.378703,-2.32476 -0.136424,-8.36539 0.816028,-20.34574 -1.85189,-43.07316 -7.520987,-64.06689 -1.40607,-5.206938 -2.653763,-9.150029 -3.02514,-9.55962 -0.286229,-0.315679 -3.847442,3.305334 -7.128246,7.24762 -2.356934,2.83214 -2.382411,3.11736 -0.851628,9.56376 2.058354,8.66809 4.138378,20.15583 4.952154,27.35078 0.88678,7.84047 1.495832,32.40013 0.827339,33.36334 -0.280882,0.40472 -0.987663,0.34594 -3.803903,-0.31523 l -3.458704,-0.81183 -0.0031,-9.5126 c -0.0056,-15.96832 -1.360833,-29.0911 -4.543392,-43.99628 -0.409815,-1.91933 -0.745174,-3.57748 -0.745174,-3.68505 0,-0.10757 -0.164587,-0.19585 -0.365869,-0.19585 -0.484456,0 -6.03287,11.40159 -7.5654298,15.54634 l -1.2061279,3.26233 0.8263061,7.13238 c 0.5700541,4.92009 0.8902631,10.46211 1.0324952,17.86816 l 0.206189,10.73578 -1.0939902,-0.21807 C 8.0778937,164.9045 6.4966805,164.68338 5.1655591,164.53308 l -2.4205241,-0.27336 0.2495972,2.60655 c 0.4833067,5.05368 1.0833923,9.50025 1.3379029,9.91206 0.1415865,0.22909 2.8022648,0.94044 5.9128169,1.58078 25.76437,5.30393 49.908543,15.24056 69.911496,28.77189 5.959816,4.03162 6.351931,4.33659 6.18205,4.81779 -0.232355,0.65815 -4.880893,4.2044 -5.511292,4.2044 -0.331293,0 -2.91397,-1.50189 -5.739183,-3.33778 -18.816272,-12.22732 -41.353935,-21.81236 -63.708773,-27.09447 -5.2287844,-1.23549 -5.5764284,-1.22895 -5.2689289,0.0997 0.6590586,2.84774 3.6580241,11.47652 4.2271319,12.16257 0.439228,0.52948 2.178791,1.2018 5.374349,2.07739 10.031509,2.74866 23.661295,7.92793 33.402094,12.69225 10.124051,4.95177 21.782135,11.88082 21.782135,12.9465 0,0.27057 -1.088991,1.5716 -2.420525,2.89129 l -2.42104,2.39985 -5.800164,-3.4711 c -7.267223,-4.34905 -22.263952,-11.79258 -29.234389,-14.51023 -4.736362,-1.84662 -15.31468,-5.54953 -15.853814,-5.54953 -0.688662,0 0.204296,1.68542 3.535701,6.67453 2.060208,3.08536 4.741703,6.79383 5.95881,8.24084 2.044425,2.4306 2.485411,2.74485 5.797579,4.13153 7.907679,3.31065 26.830919,13.38154 26.830919,14.27923 0,0.17061 -0.850373,1.36521 -1.889807,2.65514 -1.039437,1.28992 -1.889805,2.47976 -1.889805,2.64376 0,0.34279 4.633034,2.69111 8.474932,4.29586 l 2.615861,1.09296 3.787368,-4.14755 c 6.933141,-7.59312 21.157022,-21.49151 25.943118,-25.34936 8.607605,-6.93819 17.367465,-13.07504 24.757665,-17.34416 5.06614,-2.92657 15.23183,-8.13387 15.87861,-8.13387 0.74279,0 0.90832,0.3932 1.52808,3.63234 0.4057,2.12045 0.44247,3.03032 0.13797,3.39721 -0.22872,0.27559 -2.55145,1.63109 -5.16196,3.01222 -19.98134,10.57144 -39.804765,25.77702 -54.596148,41.87806 -2.456635,2.67414 -4.46691,4.98571 -4.46691,5.13664 0,0.65586 4.668211,1.85518 11.528497,2.96158 l 1.889805,0.30437 6.047695,-5.74074 c 12.685701,-12.04208 20.560031,-18.2511 33.261531,-26.22682 5.31854,-3.3397 14.50288,-8.50402 14.71642,-8.27495 0.27549,0.29554 1.72599,5.89648 1.72599,6.66471 0,0.62494 -0.82482,1.26797 -3.68556,2.87373 -5.95586,3.34307 -15.82203,9.66202 -20.53002,13.14907 -8.88062,6.57758 -21.697298,17.49377 -21.29792,18.13997 0.110294,0.17846 0.541557,0.32453 0.95808,0.32453 2.240802,0 12.36545,-0.86972 15.58561,-1.33893 l 3.72536,-0.54312 5.53506,-4.10983 c 8.953,-6.64819 21.87591,-14.79651 23.46678,-14.79651 0.48854,0 0.94163,0.63479 1.55081,2.17299 1.46872,3.70855 1.35875,3.58637 2.63292,2.92747 1.70683,-0.88263 8.57651,-6.1502 8.80824,-6.75411 0.11314,-0.29482 -0.38528,-2.35825 -1.10742,-4.58525 -7.19464,-22.18741 -10.22245,-38.45414 -11.08201,-59.53848 -0.30261,-7.4228 -0.003,-20.22671 0.56224,-23.99337 0.2654,-1.76981 0.27701,-1.78114 1.52445,-1.57871 0.69118,0.11216 2.24261,0.56358 3.44785,1.00304 l 2.19108,0.79891 -0.13849,12.55118 c -0.18812,17.03504 0.7571,28.21813 3.71606,43.96785 1.65481,8.80816 5.79665,24.95414 6.60993,25.76742 0.40715,0.40715 5.38824,-4.90099 9.18652,-9.78958 0.38719,-0.49834 0.20373,-1.72745 -1.01441,-6.8032 -4.59428,-19.14346 -6.31828,-34.233 -6.02237,-52.71048 0.0741,-4.62989 0.23096,-8.51418 0.34829,-8.63151 0.11733,-0.11733 1.66528,0.14527 3.44011,0.58342 l 3.22719,0.79685 0.25683,8.92918 c 0.32436,11.26317 0.84679,19.75568 1.57251,25.56019 0.83686,6.69342 2.38405,16.1599 3.27009,20.0086 0.72188,3.13564 0.8183,3.32529 1.3441,2.64583 0.80796,-1.04407 4.99573,-9.86229 6.8492,-14.42237 l 1.57044,-3.86385 -0.56017,-4.64106 c -0.84528,-7.00445 -1.34049,-15.8898 -1.34049,-24.0497 v -7.32668 l 1.03973,0.22789 c 0.57169,0.12529 2.10206,0.34008 3.40135,0.47698 l 2.36264,0.24856 -0.0202,-1.09399 c -0.0686,-3.73163 -1.06279,-10.84358 -1.58957,-11.37036 -0.33003,-0.33004 -2.90231,-1.05261 -5.91127,-1.66089 -26.4045,-5.33781 -51.11115,-15.68565 -71.68606,-30.024 -4.79394,-3.34083 -4.69871,-3.12224 -2.33164,-5.36092 3.36503,-3.1825 2.83627,-3.23199 9.11469,0.84853 18.06401,11.74034 38.90987,20.83789 60.22165,26.28212 4.00355,1.02273 7.72005,1.85983 8.25893,1.85983 0.90851,0 0.96014,-0.0898 0.71106,-1.22886 -0.43035,-1.96805 -3.57295,-10.9805 -4.12843,-11.83959 -0.35302,-0.54597 -1.52195,-1.04875 -3.84938,-1.65623 -14.54262,-3.79572 -32.27128,-11.08624 -45.4334,-18.6831 -5.19331,-2.997458 -11.77034,-7.26964 -11.77034,-7.645523 0,-0.373822 4.64233,-5.060156 5.01262,-5.060156 0.1962,0 2.59306,1.339445 5.32629,2.976562 12.37849,7.414327 23.28298,12.642457 35.96318,17.241837 6.09996,2.21259 9.65674,3.32387 9.89035,3.09025 0.50277,-0.50276 -5.48356,-9.9166 -9.07438,-14.269927 -2.19064,-2.6558 -1.59042,-2.30178 -13.96711,-8.237738 -11.04771,-5.298565 -19.16576,-9.972165 -19.16576,-11.033953 0,-0.220605 0.7657,-1.34084 1.70119,-2.489253 0.9355,-1.148414 1.70067,-2.299827 1.70067,-2.559016 0,-0.467614 -8.00112,-4.497374 -10.15803,-5.115967 -1.0904,-0.312722 -1.25478,-0.171638 -5.40536,4.63641 -12.88494,14.925995 -27.632055,27.903084 -43.159119,37.979074 -7.114794,4.61701 -21.137367,12.17755 -22.585701,12.17755 -0.654698,0 -1.195695,-1.73312 -1.716175,-5.49579 l -0.211357,-1.52652 5.237408,-2.78277 c 13.173509,-6.99842 24.350353,-14.54986 36.421034,-24.607804 4.67512,-3.895566 23.05647,-21.929201 23.05647,-22.620324 0,-0.673294 -6.24648,-2.334834 -11.33936,-3.016354 l -2.4567,-0.329178 -5.4963,5.337659 C 91.86992,81.559677 80.154604,90.726058 67.495088,98.316453 c -4.814401,2.886617 -10.645897,5.955707 -11.316105,5.955707 -0.457811,0 -1.913062,-4.602302 -1.913062,-6.049758 0,-0.951394 0.441474,-1.310984 4.441071,-3.616833 9.304454,-5.364208 18.806369,-11.877987 27.308929,-18.721337 5.133152,-4.131458 14.162869,-12.058549 13.909744,-12.211143 -0.0078,-0.0047 -0.05954,-0.0079 -0.150379,-0.0088 z m -1.173054,54.222015 c 0.249412,0.004 1.899408,1.05074 3.666438,2.32699 8.50127,6.14007 16.80816,11.25949 27.02523,16.65479 l 5.29166,2.79415 -0.0222,1.67638 c -0.0122,0.92196 -0.23827,4.39737 -0.50281,7.72356 -0.31074,3.90717 -0.43691,10.97242 -0.35605,19.96209 l 0.12506,13.9144 -5.85856,2.74557 c -9.58308,4.49031 -17.06358,8.74365 -26.65625,15.15721 -2.023999,1.35323 -3.870254,2.45422 -4.103111,2.44636 -0.23286,-0.008 -1.869432,-1.04766 -3.63647,-2.31045 -9.068041,-6.48032 -16.996804,-11.34264 -27.25725,-16.71526 l -5.523178,-2.89181 0.302824,-1.60197 c 0.811631,-4.28972 1.199097,-14.73884 1.005107,-27.11514 -0.112416,-7.1721 -0.313751,-13.30997 -0.447003,-13.64 -0.190333,-0.4714 0.551799,-0.94846 3.460255,-2.22415 8.624123,-3.78265 17.45288,-8.67158 27.06088,-14.98513 3.284669,-2.1584 6.176041,-3.92137 6.425448,-3.91759 z"
       id="path4637"
       inkscape:connector-curvature="0" />
  </g>
</svg>
