<?xml version="1.0" encoding="UTF-8" standalone="no"?>
<svg
   xmlns:dc="http://purl.org/dc/elements/1.1/"
   xmlns:cc="http://creativecommons.org/ns#"
   xmlns:rdf="http://www.w3.org/1999/02/22-rdf-syntax-ns#"
   xmlns:svg="http://www.w3.org/2000/svg"
   xmlns="http://www.w3.org/2000/svg"
   id="svg8"
   version="1.1"
   viewBox="0 0 210 297"
   height="297mm"
   width="210mm">
  <defs
     id="defs2">
    <clipPath
       id="clipPath49"
       clipPathUnits="userSpaceOnUse">
      <rect
         y="75.16629"
         x="-3.7417734"
         height="156.61995"
         width="189.22682"
         id="rect51"
         style="fill:#666666;stroke-width:0.26458332" />
    </clipPath>
  </defs>
  <metadata
     id="metadata5">
    <rdf:RDF>
      <cc:Work
         rdf:about="">
        <dc:format>image/svg+xml</dc:format>
        <dc:type
           rdf:resource="http://purl.org/dc/dcmitype/StillImage" />
        <dc:title></dc:title>
      </cc:Work>
    </rdf:RDF>
  </metadata>
  <g
     id="layer1">
    <path
       id="path104"
       d="m 95.703573,215.34161 c 0,-0.15742 0.28434,-0.50987 0.63187,-0.78324 0.34752,-0.27336 1.56791,-1.34148 2.71197,-2.3736 3.710387,-3.34732 8.304547,-6.96467 14.117647,-11.11593 2.87353,-2.05205 11.15264,-7.10203 13.9385,-8.50202 0.89891,-0.45172 1.71105,-0.94538 1.80475,-1.097 0.0937,-0.15162 0.0518,-0.6603 -0.0932,-1.1304 -0.14494,-0.4701 -0.45434,-1.53917 -0.68756,-2.37573 l -0.42402,-1.52101 -1.91094,0.95956 c -4.81593,2.41828 -12.47153,7.15857 -18.18281,11.25865 -4.53201,3.25349 -10.502937,8.35474 -15.479937,13.22525 l -3.17682,3.10884 -1.58568,-0.24083 c -5.40263,-0.82055 -8.43605,-1.5739 -8.52994,-2.11841 -0.0712,-0.41296 6.34296,-7.10332 10.25154,-10.69297 6.06387,-5.56905 11.825827,-10.05478 19.049997,-14.83052 6.03231,-3.98782 9.30515,-5.90211 14.37232,-8.40637 2.98509,-1.47527 3.12148,-1.57832 2.99469,-2.26259 -0.0731,-0.39431 -0.27355,-1.5206 -0.44551,-2.50286 -0.17197,-0.98227 -0.44801,-1.78402 -0.61344,-1.78167 -0.5515,0.008 -8.19085,3.84679 -11.81014,5.93491 -6.85824,3.95679 -13.472587,8.60848 -20.108327,14.14163 -3.95526,3.29806 -12.5157,11.72219 -16.068897,15.81304 -1.9533,2.24886 -2.92252,3.17609 -3.21873,3.07928 -1.73318,-0.56647 -7.2299,-3.06212 -7.89305,-3.58365 -0.3159,-0.24844 0.38551,-1.30477 2.22229,-3.34675 l 0.5739,-0.63802 -1.57501,-1.01798 c -0.86626,-0.55989 -1.60969,-1.01798 -1.65206,-1.01798 -0.0424,0 -1.37782,-0.72489 -2.96764,-1.61088 -4.18012,-2.32951 -12.56063,-6.29503 -15.01631,-7.10548 -0.79608,-0.26273 -1.4643,-0.90214 -3.15442,-3.01839 -1.89743,-2.37583 -5.37745,-7.44195 -6.25555,-9.10666 -0.1743,-0.33042 -0.25148,-0.70663 -0.17152,-0.83601 0.18718,-0.30286 7.39848,2.12106 13.48127,4.53142 5.64399,2.23648 14.72639,6.73723 19.86761,9.84532 l 3.70416,2.23933 1.78594,-1.76171 c 0.98227,-0.96894 1.78594,-1.83414 1.78594,-1.92268 0,-0.0885 -0.62508,-0.55457 -1.38906,-1.03564 -0.76399,-0.48106 -1.80579,-1.14794 -2.31511,-1.48194 -1.89233,-1.24095 -6.35468,-3.67025 -10.88261,-5.92447 -8.29099,-4.12765 -20.25883,-8.49442 -28.57235,-10.42535 -0.51274,-0.11909 -0.83351,-0.48958 -1.23059,-1.42136 -0.72193,-1.69406 -2.70611,-7.95673 -2.70611,-8.54131 0,-0.44244 0.12045,-0.44007 2.3151,0.0456 17.85702,3.9515 35.44269,11.29343 49.477907,20.6568 1.05548,0.70415 2.08227,1.3429 2.28176,1.41945 0.20029,0.0769 1.17738,-0.54147 2.18199,-1.38081 1.0006,-0.836 1.87703,-1.5655 1.94762,-1.62111 0.38791,-0.30562 -8.1917,-5.87935 -13.697087,-8.89829 -12.51559,-6.86306 -28.957,-12.61001 -43.28066,-15.12835 -1.16534,-0.20489 -2.21059,-0.46433 -2.3228,-0.57654 -0.2513,-0.2513 -1.0205,-6.32933 -1.0205,-8.06374 0,-1.4336 -0.15189,-1.38308 2.64583,-0.88002 1.09141,0.19625 2.04391,0.2976 2.11667,0.22523 0.22783,-0.22662 0.0233,-12.23367 -0.26283,-15.42655 -0.14995,-1.67349 -0.4576,-4.50121 -0.68367,-6.28384 l -0.41103,-3.24112 0.84764,-2.31513 c 1.41853,-3.87434 5.23101,-11.44324 5.76401,-11.44324 0.2387,0 1.93389,8.39944 2.53643,12.56771 1.18618,8.20581 1.52524,12.75802 1.56618,21.02693 l 0.036,7.26859 2.34509,0.59985 c 1.28979,0.32991 2.45065,0.5346 2.57968,0.45485 0.38948,-0.24071 0.26854,-14.90297 -0.16025,-19.42835 -0.42864,-4.5237 -0.8174,-7.95284 -1.07299,-9.46433 -0.73583,-4.35167 -2.15733,-11.2042 -3.02473,-14.58118 -1.13012,-4.39978 -1.13117,-4.37161 0.21948,-5.93318 2.27204,-2.62686 5.41031,-6.004662 5.57884,-6.004662 0.42538,0 1.40464,3.024282 3.21272,9.921892 3.54907,13.53927 5.36978,29.74225 4.74208,42.20105 -0.13563,2.69213 -0.25068,5.2118 -0.25566,5.59926 -0.008,0.62868 0.1831,0.77754 1.77688,1.38352 0.98227,0.37348 2.07988,0.71131 2.43913,0.75074 0.60711,0.0666 0.67053,-0.0403 0.8989,-1.51581 0.39168,-2.53069 0.35556,-20.13174 -0.0489,-23.81251 -1.39537,-12.69963 -3.56413,-22.6886 -7.35299,-33.866682 l -1.43491,-4.23334 1.1288,-1.00369 c 2.00613,-1.7838 6.26877,-4.54549 6.56252,-4.25174 0.14771,0.14771 0.56447,1.08438 0.92614,2.08148 0.36166,0.99711 0.71837,1.87372 0.79267,1.94803 0.50112,0.50111 11.19719,-6.1137 17.015127,-10.52273 1.65056,-1.25084 3.37824,-2.47882 3.83929,-2.72883 1.2303,-0.66713 6.0243,-1.28172 11.15137,-1.42959 l 4.49792,-0.12972 -1.7198,1.62064 c -7.83224,7.3807 -19.273097,15.6191 -29.166727,21.002542 -1.27134,0.69178 -2.37063,1.35342 -2.44288,1.47031 -0.17447,0.2823 0.88116,4.30523 1.21843,4.64332 0.17582,0.17627 1.24739,-0.25583 3.21016,-1.29445 11.421287,-6.043792 22.357607,-14.135522 32.124844,-23.769042 l 3.22403,-3.1799 1.53847,0.18021 c 3.65361,0.42796 8.8145,1.67267 8.8145,2.1259 0,0.56973 -10.5706,11.04798 -14.64389,14.51595 -9.639407,8.206952 -19.103367,14.549832 -29.343074,19.666162 -1.56435,0.78164 -2.84427,1.49143 -2.84427,1.57733 0,0.0859 0.19345,1.21357 0.4299,2.50594 0.4258,2.3274 0.43651,2.34822 1.12448,2.18537 1.18253,-0.27991 10.025477,-4.92071 13.928957,-7.30994 10.96039,-6.70862 21.588577,-15.461182 30.374257,-25.013872 1.96544,-2.13703 4.07024,-4.51059 4.67734,-5.27457 0.6071,-0.76399 1.27587,-1.38906 1.48616,-1.38906 0.86852,0 8.30389,3.39507 8.30389,3.79166 0,0.23321 -0.77467,1.25311 -2.57446,3.38941 -0.32375,0.38428 -0.22568,0.52878 0.85301,1.25677 0.67035,0.45242 1.25529,0.82257 1.29987,0.82257 0.0446,0 1.13995,0.61339 2.43413,1.36309 3.29882,1.91095 8.8183,4.63237 13.33328,6.57409 2.11005,0.907452 4.17298,1.963362 4.58427,2.346482 2.20498,2.05388 8.7392,11.69119 8.16469,12.04208 -0.0997,0.0609 -1.78859,-0.41819 -3.75312,-1.0646 -10.66258,-3.50847 -20.58716,-8.01575 -29.73156,-13.502712 -2.01856,-1.2112 -3.7484,-2.20218 -3.8441,-2.20218 -0.23928,0 -3.46601,3.274222 -3.46601,3.517022 0,0.32066 5.14966,3.56108 9.26042,5.82708 9.84576,5.42736 20.39226,9.64778 31.58711,12.64028 1.5839,0.4234 2.92758,0.76981 2.98596,0.76981 0.27749,0 2.88822,7.38534 3.35501,9.49076 0.13466,0.60735 0.0998,0.62195 -1.10128,0.46075 -2.08245,-0.27949 -9.50759,-2.20219 -14.01203,-3.62834 -5.6235,-1.78045 -8.66363,-2.92254 -16.20019,-6.08593 -3.12756,-1.31276 -9.7538,-4.69696 -14.31203,-7.30954 -1.4374,-0.82386 -5.20915,-3.19629 -6.90626,-4.34405 -0.82876,-0.56049 -1.66815,-1.01907 -1.86531,-1.01907 -0.19715,0 -1.15101,0.67865 -2.11968,1.5081 -1.35719,1.16213 -1.6953,1.58753 -1.47385,1.85436 0.15805,0.19044 1.84952,1.39809 3.75881,2.68365 10.40606,7.00663 20.95873,12.01083 35.22144,16.70244 4.25629,1.40007 11.76802,3.26569 17.13443,4.2555 3.56607,0.65775 3.18236,0.18165 3.61158,4.48137 0.46762,4.68428 0.49695,5.29505 0.26131,5.44068 -0.19941,0.12325 -2.39564,-0.17221 -4.14013,-0.55696 l -0.59531,-0.1313 0.003,6.28889 c 0.003,5.83045 0.36865,11.6005 1.06883,16.86204 l 0.28752,2.16056 -1.34904,3.40542 c -1.20993,3.05426 -4.11895,8.98303 -4.84154,9.8674 -0.15367,0.18807 -0.37414,0.2472 -0.48993,0.13141 -0.54126,-0.54125 -2.54703,-12.11846 -3.27651,-18.91181 -0.4374,-4.07341 -0.89789,-14.46074 -0.836,-18.85813 l 0.0408,-2.90076 -2.34683,-0.61734 c -1.29075,-0.33954 -2.42185,-0.5421 -2.51354,-0.45013 -0.0917,0.092 -0.16151,4.17542 -0.15514,9.07435 0.009,6.73058 0.12585,9.90927 0.47924,13.00818 0.90548,7.94024 2.13052,14.62853 4.0341,22.02483 l 0.93588,3.63628 -1.67206,2.04897 c -3.55341,4.35442 -5.77309,6.38969 -5.77309,5.29348 0,-0.18366 -0.30318,-1.28499 -0.67374,-2.44739 -3.06318,-9.609 -5.30603,-21.28527 -6.35223,-33.06971 -0.38718,-4.36119 -0.47998,-16.11215 -0.16027,-20.294 l 0.17602,-2.30234 -2.33862,-0.83655 c -1.28624,-0.4601 -2.42914,-0.73373 -2.53979,-0.60807 -0.34901,0.39633 -0.81862,7.70859 -0.81493,12.68895 0.009,12.25004 1.78016,25.61905 4.92131,37.14888 0.58686,2.15409 3.70109,11.97379 4.20828,13.2694 0.12599,0.32186 -0.30458,0.81221 -1.63319,1.85993 -2.70904,2.13629 -5.56064,4.00142 -5.84709,3.82438 -0.13976,-0.0864 -0.52681,-0.90372 -0.86012,-1.81631 -1.03598,-2.83656 -0.70099,-2.74541 -3.76187,-1.02359 -5.70889,3.21137 -9.46324,5.63567 -14.35397,9.26879 -1.89177,1.40532 -3.59618,2.65081 -3.78758,2.76776 -1.27081,0.77649 -15.394707,1.94938 -15.394707,1.27843 z"
       style="fill:#8b7333;stroke-width:0.26458332" />
    <path
       id="path102"
       d="m 100.10337,174.96635 c 6.43079,-4.3613 13.0549,-7.97229 21.60837,-11.7793 l 1.79879,-0.80061 -0.21129,-2.72275 c -0.38248,-4.92868 -0.20177,-20.08325 0.28158,-23.61383 0.23824,-1.74021 0.43317,-3.37345 0.43317,-3.62943 0,-0.33252 -0.92541,-0.91817 -3.24115,-2.05119 -7.10858,-3.47799 -14.52757,-7.94313 -20.45028,-12.30807 -1.277767,-0.9417 -2.452807,-1.63406 -2.611197,-1.53858 -0.1584,0.0955 -1.65722,1.08374 -3.33071,2.19616 -6.94011,4.6133 -14.76182,8.88415 -20.856097,11.38795 l -2.20298,0.90508 0.15557,1.45521 c 0.0856,0.80036 0.22488,5.08661 0.30959,9.525 0.14424,7.55742 -0.1695,14.49137 -0.83803,18.52083 l -0.15364,0.92605 4.84749,2.43176 c 6.089307,3.05473 12.257057,6.74778 17.174717,10.28364 2.09679,1.50762 3.94679,2.74598 4.1111,2.75192 0.16432,0.006 1.59307,-0.86699 3.174997,-1.93984 z"
       style="fill:#8b7333;stroke-width:0.26458332" />
    <path
       id="path100"
       d="m 402.9968,201.6462 c -7.57999,-1.66455 -13.94441,-7.7952 -16.19591,-15.60108 -2.87501,-9.96746 0.83397,-20.63992 9.07246,-26.10582 3.86194,-2.56223 7.1352,-3.5248 11.77396,-3.4624 5.06208,0.0681 9.10777,1.55733 13.17836,4.85101 5.675,4.59184 9.0845,13.43434 8.00026,20.74846 -1.466,9.88938 -7.69953,17.21048 -16.54842,19.43565 -2.48737,0.62548 -6.76201,0.68729 -9.28071,0.13418 z"
       style="fill:#8b7333;stroke-width:0.26458332" />
    <path
       id="path98"
       d="m 413.20356,199.27328 c 6.06686,-2.17742 10.46569,-6.67556 12.68944,-12.97594 4.77933,-13.54085 -4.96105,-28.18921 -18.72602,-28.16171 -5.43473,0.0109 -11.30326,2.95759 -14.8127,7.43781 -8.06934,10.30148 -5.45475,25.44031 5.52784,32.00718 3.40738,2.03738 5.82726,2.63302 10.16206,2.50132 2.61856,-0.0796 3.52277,-0.22128 5.15938,-0.80866 z"
       style="fill:#8b7333;stroke-width:0.26458332" />
    <path
       id="path96"
       d="m 203.97986,201.12098 c -3.3278,-0.75738 -7.7474,-2.82476 -10.53011,-4.92573 -1.49899,-1.13175 -1.80052,-1.86763 -0.95146,-2.32203 0.38864,-0.208 0.80073,-0.0239 2.05052,0.91625 1.8993,1.42868 4.88968,3.00664 7.38496,3.89687 6.89996,2.46169 14.70737,1.0753 19.08677,-3.38931 1.96,-1.99813 2.74693,-3.80963 2.73035,-6.28528 -0.0344,-5.14114 -3.09932,-7.51993 -12.68899,-9.8484 -6.55263,-1.59106 -8.17015,-2.09167 -10.42497,-3.22647 -3.73417,-1.87932 -5.45003,-4.5816 -5.45003,-8.58314 0,-1.82983 0.11432,-2.3746 0.79969,-3.81066 2.45179,-5.13727 10.03221,-7.90892 17.27203,-6.31523 3.84831,0.84712 9.32168,4.1452 9.12834,5.50044 -0.13305,0.9326 -1.09192,0.83387 -2.23263,-0.22987 -1.26353,-1.17828 -4.68116,-2.87548 -6.97577,-3.46417 -2.09887,-0.53847 -5.96908,-0.60032 -7.93749,-0.12685 -5.27207,1.26812 -8.77353,5.04966 -8.36897,9.03838 0.3835,3.78111 2.5605,5.97327 7.58092,7.6337 0.94275,0.3118 3.61909,1.02892 5.94742,1.59361 5.70945,1.3847 8.16604,2.19328 10.05417,3.3093 4.83759,2.85937 6.42377,8.24092 3.90066,13.23402 -1.53422,3.03613 -5.56288,6.00656 -9.7215,7.16789 -2.17825,0.6083 -8.41255,0.7468 -10.65391,0.23668 z"
       style="fill:#8b7333;stroke-width:0.26458332" />
    <path
       id="path94"
       d="m 450.08954,201.01354 c -2.88809,-0.70019 -6.04827,-2.07825 -8.58377,-3.74316 -2.36625,-1.55377 -3.22712,-2.42584 -2.99408,-3.0331 0.28176,-0.73427 0.86699,-0.54041 3.22726,1.06906 4.24045,2.89156 8.22653,4.32912 12.60731,4.54675 5.73535,0.28492 11.54009,-2.00398 14.09126,-5.55642 1.20568,-1.67885 2.00252,-4.24209 1.83433,-5.90048 -0.48662,-4.79818 -3.3523,-6.89873 -12.48077,-9.14845 -9.16315,-2.25826 -11.13475,-3.02858 -13.51616,-5.28081 -1.98175,-1.87426 -2.6194,-3.4395 -2.62456,-6.44265 -0.003,-2.02627 0.0991,-2.59818 0.68816,-3.83646 1.442,-3.03125 5.04042,-5.60463 9.07814,-6.49214 2.40276,-0.52814 6.94883,-0.40658 9.31508,0.24908 3.59413,0.99591 8.6002,4.38039 8.15806,5.51546 -0.28681,0.73629 -1.1226,0.54356 -2.45753,-0.5667 -3.01255,-2.50554 -6.60974,-3.75533 -10.90912,-3.7902 -3.00606,-0.0244 -4.8674,0.36581 -6.9433,1.45554 -3.52009,1.84784 -5.2138,4.23975 -5.2138,7.36314 0,3.03909 1.31207,5.10232 4.34959,6.8398 1.44968,0.82921 5.60507,2.10723 11.26083,3.46334 6.62347,1.58814 9.67211,3.18739 11.57309,6.07102 0.93908,1.42448 1.39252,3.12585 1.38863,5.21039 -0.0103,5.58197 -4.48648,10.24374 -11.50651,11.98388 -2.71984,0.6742 -7.61151,0.68513 -10.34214,0.0231 z"
       style="fill:#8b7333;stroke-width:0.26458332" />
    <path
       id="path92"
       d="m 247.99958,200.84014 c -0.0883,-0.23018 -0.1606,-9.81289 -0.1606,-21.2949 v -20.87639 l -7.60677,-0.0702 -7.60677,-0.0702 v -0.66146 -0.66146 l 15.99197,-0.0682 c 9.31958,-0.0398 16.09214,0.0319 16.23203,0.1718 0.132,0.13202 0.16063,0.49015 0.0636,0.79584 -0.17375,0.54751 -0.28861,0.5558 -7.69919,0.5558 h -7.52279 v 20.98146 c 0,15.96613 -0.0759,21.05735 -0.3175,21.29896 -0.44823,0.44823 -1.18398,0.39414 -1.37398,-0.10102 z"
       style="fill:#8b7333;stroke-width:0.26458332" />
    <path
       id="path90"
       d="m 291.09568,201.00787 c -3.56473,-0.76976 -6.37444,-2.30763 -8.98427,-4.91747 -3.3429,-3.3429 -4.82383,-6.69397 -5.19927,-11.76508 -0.24511,-3.31068 -0.28387,-25.81196 -0.046,-26.72149 0.1098,-0.41986 0.31877,-0.53905 0.83923,-0.47868 l 0.69302,0.0804 0.14677,14.81667 c 0.12472,12.59074 0.20984,14.99553 0.5666,16.00729 2.29079,6.49674 7.06136,10.48092 13.65414,11.40335 7.82257,1.09451 15.70223,-4.63515 17.50163,-12.72627 0.15759,-0.70851 0.26742,-6.77972 0.27128,-14.99346 0.003,-7.59156 0.0787,-13.99117 0.16706,-14.22135 0.2563,-0.66795 1.3897,-0.5266 1.57102,0.19591 0.0848,0.33794 0.10789,6.97568 0.0513,14.75052 -0.0915,12.55898 -0.15523,14.3132 -0.57155,15.72359 -1.71643,5.81508 -6.15262,10.442 -11.79468,12.30179 -1.92082,0.63316 -7.00833,0.94548 -8.86621,0.5443 z"
       style="fill:#8b7333;stroke-width:0.26458332" />
    <path
       id="path88"
       d="m 326.4606,200.80494 c -0.30512,-0.57015 -0.44466,-41.38441 -0.14658,-42.8718 l 0.17235,-0.8599 h 6.02337 c 5.57676,0 6.213,0.0493 8.58047,0.66438 8.36512,2.17345 14.53202,8.72239 16.26647,17.27416 0.41209,2.03174 0.34875,6.59172 -0.12268,8.8328 -1.38563,6.587 -6.19316,12.57174 -12.39946,15.43569 -3.46401,1.59849 -4.58301,1.78356 -11.57634,1.91459 -6.24711,0.11704 -6.53513,0.10052 -6.7976,-0.38992 z"
       style="fill:#8b7333;stroke-width:0.26458332" />
    <path
       id="path86"
       d="m 339.91398,199.15236 c 9.91118,-2.44654 16.61911,-11.29049 16.06232,-21.17704 -0.52832,-9.38039 -7.40222,-17.14249 -16.76784,-18.93443 -1.25359,-0.23985 -3.68712,-0.38015 -6.59381,-0.38015 h -4.60692 v 20.32882 c 0,11.18085 0.0893,20.4212 0.19843,20.5341 0.2857,0.29557 10.29185,-0.0218 11.70782,-0.3713 z"
       style="fill:#8b7333;stroke-width:0.26458332" />
    <path
       id="path34"
       d="m 369.14705,200.94649 c -0.0733,-0.19211 -0.10256,-10.11242 -0.065,-22.04512 l 0.0683,-21.69584 h 0.66146 0.66146 v 21.96042 21.96042 l -0.5965,0.0847 c -0.32806,0.0466 -0.65649,-0.0725 -0.7298,-0.26458 z"
       style="fill:#8b7333;stroke-width:0.26458332" />
    <path
       id="path108"
       transform="scale(0.26458333)"
       d="M 374.01172 295.03125 L 368.16602 295.04688 C 358.71216 295.0711 333.75505 296.95576 326.55078 298.18945 C 318.07001 299.64174 316.36968 300.53132 301.71289 311.17578 C 274.60568 330.86236 242.82841 350.58984 238.22461 350.58984 C 237.42207 350.58984 235.78183 348.03763 234.49219 344.78125 C 230.52896 334.77405 230.91064 335.17607 227.17578 337.08203 C 223.47051 338.97288 210.39593 348.16212 205.47656 352.33398 L 202.17383 355.13477 L 206.7832 368.77148 C 220.22929 408.53935 229.212 448.48122 234.72656 493.02148 C 236.19883 504.91274 236.62466 584.77607 235.25 591.25781 C 234.59021 594.3688 234.00919 595.04688 232.00391 595.04688 C 229.36438 595.04688 218.4748 591.31448 216.91406 589.875 C 216.34732 589.35228 215.92018 572.65229 215.86328 548.83594 C 215.76344 507.03306 215.11646 497.47016 210.18555 464.73633 C 204.65551 428.02518 190.14633 370.28711 186.45117 370.28711 C 184.89395 370.28711 165.03093 391.84968 163.1875 395.54102 C 161.77207 398.37534 161.96813 399.84648 166.2168 418.26953 C 175.34025 457.83061 178.84475 479.89155 180.98047 511.20312 C 182.18485 528.86036 182.30928 575.83906 181.15625 577.65625 C 180.70365 578.36955 179.6874 578.7445 178.89844 578.49023 C 178.10948 578.23595 173.94055 577.28079 169.63477 576.36719 L 161.80664 574.70508 L 161.79688 553.81445 C 161.77623 509.67194 157.0704 465.37829 148.54492 429.06445 L 146.41992 420.01367 L 143.33008 424.94922 C 138.99437 431.87773 128.16041 454.86998 124.88867 464.08594 L 122.14844 471.80664 L 124.42969 491.73047 C 126.19901 507.17557 126.73978 517.78831 126.83398 538.95508 L 126.95508 566.25781 L 124.42969 566.07812 C 123.04073 565.97976 119.0642 565.57668 115.5918 565.18164 L 109.27734 564.46289 L 109.27734 569.0957 C 109.27734 575.28488 112.2062 597.36833 113.15234 598.31445 C 113.56474 598.72685 120.60198 600.42149 128.79102 602.08008 C 201.45078 616.79645 269.89995 644.91472 326.25781 683.19727 C 332.92837 687.72843 336.55259 690.81748 336.35938 691.80859 C 335.95823 693.86614 323.80671 703.13281 321.50977 703.13281 C 320.51603 703.13281 314.51799 699.77722 308.18164 695.67578 C 260.0418 664.51548 201.39653 639.32946 142.04688 624.32617 C 122.00205 619.25895 117.35938 618.49076 117.35938 620.24219 C 117.35938 620.7655 118.9436 626.41797 120.87891 632.80273 C 124.67746 645.33452 128.6064 654.99508 130.33984 656.06641 C 130.93586 656.43477 138.00311 658.5411 146.04492 660.74609 C 182.27734 670.68065 224.45809 687.62041 258.27539 705.81641 C 272.20846 713.31335 295.14648 727.37005 295.14648 728.41211 C 295.14648 728.70586 291.99934 732.06724 288.1543 735.88281 L 281.16406 742.82031 L 268.20508 735.19141 C 240.40711 718.82675 210.20503 704.23329 182.00977 693.54297 C 163.10871 686.37657 142.59184 679.58395 141.91016 680.26562 C 140.20834 681.96745 165.00961 717.63427 173.04492 725.04102 C 174.36374 726.25667 179.53491 728.95529 184.53516 731.03711 C 206.44471 740.15896 257.77148 767.25489 257.77148 769.69922 C 257.77148 770.14015 256.79407 771.36546 255.60156 772.42383 C 252.63355 775.05803 247.66992 781.95599 247.66992 783.44531 C 247.66992 784.71623 263.43763 792.41423 272.75195 795.68945 L 278.13672 797.58203 L 285.79297 788.99609 C 297.32012 776.0679 335.70448 738.06734 347.16992 728.23242 C 369.39279 709.16991 400.41648 687.23466 425.45508 672.88477 C 443.80089 662.37059 468.51083 650.24215 470.23633 650.9043 C 472.2803 651.68864 475.66104 667.36315 474.2168 669.35938 C 473.78834 669.95159 466.61892 673.99799 458.28516 678.35156 C 404.58001 706.40721 349.73891 747.78986 311.0918 789.42188 C 297.05941 804.53805 297.21975 804.12525 304.56445 806.28711 C 306.32913 806.80654 314.07024 808.34645 321.76562 809.70898 L 335.75586 812.18555 L 351.56445 797.12109 C 371.13626 778.46871 382.79607 768.44198 399.69727 755.73242 C 422.21784 738.79716 453.68458 718.83961 473.6543 708.82617 L 482.96094 704.16016 L 483.98047 707.93945 C 484.54063 710.01833 485.68828 713.99161 486.53125 716.76953 C 487.37422 719.54745 488.06822 722.31765 488.07422 722.92383 C 488.08023 723.53001 485.69807 725.30557 482.78125 726.87109 C 473.80271 731.69009 442.63432 750.55461 433.48438 756.70703 C 413.63169 770.05594 381.99951 795.04545 365.85742 810.13281 L 361.31055 814.38086 L 375.5332 813.80469 C 390.55221 813.19514 413.07466 810.77198 417.45117 809.29492 C 418.88213 808.81199 425.92879 804.12694 433.10938 798.88477 C 440.28995 793.6426 450.25561 786.61304 455.25586 783.26172 C 467.58179 775.00051 495.5854 758.69141 497.44531 758.69141 C 499.40815 758.69141 500.4995 760.21134 502.58008 765.84961 C 505.89276 774.82679 505.71767 774.79883 515.9375 767.96289 C 520.92014 764.63006 527.03038 760.09999 529.51562 757.89453 L 534.0332 753.88477 L 531.73047 746.94336 C 510.05076 681.60347 501.48566 635.91061 499.5625 575.34766 C 498.96721 556.60143 500.44023 519.4561 501.93359 515.56445 C 502.68509 513.60611 507.54063 514.17463 515.35938 517.13672 L 520.91602 519.24023 L 520.91602 559.92188 C 520.91602 606.34128 522.54023 625.86816 529.59375 664.24219 C 534.69214 691.97948 547.0799 739.49805 549.21289 739.49805 C 551.48955 739.49805 574.95898 713.61974 574.95898 711.10938 C 574.95898 710.55438 573.39563 703.87469 571.48633 696.26367 C 563.58729 664.77584 557.80688 630.84043 555.79102 604.13867 C 554.58146 588.11714 554.42496 533.4892 555.58398 531.66406 C 556.20576 530.68494 558.38126 530.90995 565.41797 532.67578 L 574.45312 534.94336 L 575.10547 565.75195 C 575.82268 599.6471 576.82089 613.03372 580.60352 639.49414 C 583.61658 660.57118 588.68979 686.96323 589.97461 688.24805 C 591.08682 689.36026 603.22233 665.78471 609.7793 649.77539 L 614.38281 638.53516 L 612.88672 626.13477 C 610.62773 607.41538 609.30469 583.66987 609.30469 561.85547 L 609.30469 542.26562 L 612.58594 542.93164 C 614.39159 543.29741 618.54794 543.88002 621.82031 544.22656 L 627.76953 544.85547 L 627.03711 534.53516 C 626.09519 521.24948 624.7989 512.15242 623.68945 511.04297 C 623.20635 510.55987 616.02281 508.78628 607.72461 507.09961 C 540.08466 493.35128 475.69478 468.03849 424.44531 435.05078 C 408.33696 424.68235 400.21203 418.832 400.20703 417.59766 C 400.20198 416.42755 407.79961 409.25161 411.99414 406.46484 C 414.65183 404.69912 415.65951 405.14972 430.22461 414.59961 C 465.00896 437.16783 513.9999 460.09646 557.78516 474.30078 C 575.98164 480.20387 606.12305 488.27547 614.60742 489.51758 C 618.86924 490.14151 619.40382 490.00991 619.39062 488.33789 C 619.37339 486.15543 612.39192 465.06933 609.33203 457.95703 L 607.25195 453.12109 L 594.38867 449.68164 C 557.27194 439.75877 518.23705 424.41222 484.14844 406.3418 C 466.5317 397.00314 442.50314 382.16504 441.89062 380.24609 C 441.39723 378.70029 452.53791 366.75195 454.47266 366.75195 C 455.31147 366.75195 464.24032 371.47445 474.31445 377.24609 C 511.31597 398.44487 543.05665 412.64666 582.85156 425.81055 C 589.13687 427.8897 594.53846 429.3307 594.85547 429.01367 C 596.23911 427.63005 576.58144 398.17558 568.03125 388.82031 C 563.31563 383.66067 561.30091 382.48537 541.41797 373.29688 C 509.8974 358.73028 478.99414 341.92459 478.99414 339.34961 C 478.99414 338.80232 481.267 335.54646 484.04492 332.11328 C 486.82284 328.68009 489.0957 325.5448 489.0957 325.14648 C 489.0957 324.38777 476.50509 318.19873 465.76367 313.67773 C 461.62707 311.93669 458.89471 311.31722 457.78125 311.86914 C 456.85017 312.33067 451.12924 318.3837 445.06641 325.31836 C 408.6784 366.93893 362.01053 405.9601 315.75977 433.4375 C 302.10277 441.55107 268.718 458.67578 266.55859 458.67578 C 264.66561 458.67578 264.31122 457.71165 262.7168 448.22266 C 261.90114 443.3684 261.77186 440.14405 262.37109 439.57031 C 262.89652 439.06722 270.62949 434.78806 279.55469 430.0625 C 315.79539 410.87438 345.51097 390.89281 377.97852 363.87891 C 390.93359 353.09994 437.57812 307.48715 437.57812 305.59766 C 437.57813 303.80343 420.28131 299.4622 405.51953 297.55078 L 400.23047 296.86523 L 384.81055 311.50781 C 356.78716 338.11812 337.45335 353.78057 309.79297 372.2832 C 291.02372 384.83835 266.15262 399.39997 258.52344 402.29883 L 253.68359 404.13672 L 252.62109 401.35547 C 251.27276 397.82222 248.67969 387.92738 248.67969 386.31836 C 248.67969 385.64624 255.61132 381.14773 264.08398 376.32227 C 299.73809 356.01607 340.22919 326.55494 367.66211 300.95703 L 374.01172 295.03125 z "
       style="fill:#666666;stroke-width:1.01015258" />
  </g>
</svg>
